SplineFontDB: 1.0
FontName: FreeSerifBoldItalic
FullName: Free Serif Bold Italic
FamilyName: FreeSerif
Weight: Bold
Copyright: Copyleft 2002, 2003 Free Software Foundation.
Version: $Revision: 1.8 $
ItalicAngle: -15.3
UnderlinePosition: -100
UnderlineWidth: 50
Ascent: 800
Descent: 200
NeedsXUIDChange: 1
FSType: 0
PfmFamily: 17
TTFWeight: 700
TTFWidth: 5
Panose: 2 2 7 3 6 5 5 9 3 4
LineGap: 90
VLineGap: 0
ScriptLang: 2
 1 latn 1 dflt 
 1 DFLT 1 dflt 
LangName: 1033 "" "" "" "" "" "" "" "" "" "" "" "" "" "The use of this font is granted subject to GNU General Public License." "http://www.gnu.org/copyleft/gpl.html" "" "" "" "" "The quick brown fox jumps over the lazy dog." 
LangName: 1060 "" "" "polkrepko le+AX4A-e+AQ0A-e" "" "" "" "" "" "" "" "" "" "" "Dovoljena je uporaba v skladu z licenco GNU General Public License." "http://www.gnu.org/copyleft/gpl.html" "" "" "" "" "+AWAA-erif bo za vajo spet kuhal doma+AQ0A-e +AX4A-gance." 
Encoding: unicode
DisplaySize: -36
AntiAlias: 1
FitToEm: 1
WinInfo: 672 16 14
BeginPrivate: 8
UniqueID 7 5020939
BlueValues 23 [-20 0 449 469 669 689]
BlueScale 8 0.039625
StdHW 4 [27]
StdVW 5 [120]
StemSnapH 206 [27 33 36 43 54 64 73 91] 
systemdict /internaldict known
{1183615869 systemdict /internaldict get exec
/StemSnapLength 2 copy known { get 8 lt } { pop pop true } ifelse }
{ true } ifelse { pop [27 33] } if
StemSnapV 2 []
ForceBold 5 false
EndPrivate
BeginChars: 65536 1334
StartChar: exclam
Encoding: 33 33 1
Width: 389
Flags: W
HStem: -13 146<131 147>
VStem: 67 146<51 67>
Fore
196 204 m 1
 167 212 l 1
 197 368 215 487 220 565 c 0
 222 609 224 620 232 638 c 0
 246 667 270 684 301 684 c 0
 342 684 370 655 370 611 c 0
 370 584 365 569 339 522 c 1
 283 411 238 312 196 204 c 1
140 133 m 0
 178 133 213 97 213 58 c 0
 213 19 180 -13 139 -13 c 128
 98 -13 67 17 67 58 c 0
 67 100 99 133 140 133 c 0
EndSplineSet
MinimumDistance: x8,-1 
EndChar
StartChar: quotedbl
Encoding: 34 34 2
Width: 555
Flags: W
Fore
177 398 m 1
 136 398 l 1
 152 612 l 1
 155 650 192 685 230 685 c 0
 256 685 276 663 276 636 c 0
 276 622 275 620 261 589 c 2
 259 584 l 1
 177 398 l 1
437 398 m 1
 396 398 l 1
 412 612 l 1
 415 650 452 685 490 685 c 0
 516 685 536 663 536 636 c 0
 536 622 535 620 521 589 c 2
 519 584 l 1
 437 398 l 1
EndSplineSet
EndChar
StartChar: numbersign
Encoding: 35 35 3
Width: 500
Flags: W
HStem: 0 21G<-22 56 169 247> 210 73<-13 62 172 253 363 429> 417 73<71 146 255 337 446 513>
DStem: 63 210 141 210 -22 0 56 0 147 417 225 417 93 283 171 283 254 210 332 210 169 0 247 0 263 700 340 700 176 490 254 490 338 417 416 417 284 283 362 283 454 700 531 700 367 490 445 490
Fore
449 283 m 1
 429 210 l 1
 332 210 l 1
 247 0 l 1
 169 0 l 1
 254 210 l 1
 141 210 l 1
 56 0 l 1
 -22 0 l 1
 63 210 l 1
 -33 210 l 1
 -13 283 l 1
 93 283 l 1
 147 417 l 1
 51 417 l 1
 71 490 l 1
 176 490 l 1
 263 700 l 1
 340 700 l 1
 254 490 l 1
 367 490 l 1
 454 700 l 1
 531 700 l 1
 445 490 l 1
 533 490 l 1
 513 417 l 1
 416 417 l 1
 362 283 l 1
 449 283 l 1
338 417 m 1
 225 417 l 1
 171 283 l 1
 284 283 l 1
 338 417 l 1
EndSplineSet
EndChar
StartChar: dollar
Encoding: 36 36 4
Width: 500
Flags: W
HStem: 0 32<186.031 220> 637 33<274 300>
VStem: 79.0027 98.9973<488 542> 322.998 109.002<157 201>
DStem: 127 7 178 0 98 -100 150 -100 211 303 253 274 137 42 186 32 303 635 351 625 248 436 292 410 331 733 381 733 313 668 361 661
Fore
497 598 m 1
 455 465 l 1
 434 470 l 1
 435 481 435 494 435 500 c 0
 435 569 411 605 351 625 c 1
 292 410 l 1
 353 357 372 338 396 308 c 0
 419 277 432 238 432 201 c 0
 432 87 331 0 201 0 c 2
 178 0 l 1
 150 -100 l 1
 98 -100 l 1
 127 7 l 1
 64 22 33 39 -20 86 c 1
 22 228 l 1
 44 222 l 1
 47 114 67 74 137 42 c 1
 211 303 l 1
 105 384 79 420 79 488 c 0
 79 591 164 670 275 670 c 0
 283 670 291 670 313 668 c 1
 331 733 l 1
 381 733 l 1
 361 661 l 1
 394 655 441 636 479 612 c 1
 497 598 l 1
248 436 m 1
 303 635 l 1
 298 637 294 637 288 637 c 0
 222 637 178 599 178 542 c 0
 178 502 195 476 248 436 c 1
253 274 m 1
 186 32 l 1
 221 32 230 33 247 39 c 0
 294 57 323 101 323 157 c 0
 323 204 308 230 253 274 c 1
EndSplineSet
MinimumDistance: x7,-1 
EndChar
StartChar: percent
Encoding: 37 37 5
Width: 833
Flags: W
HStem: -9.99672 45.9967<583 617> 294.003 45.9971<168 202> 585 38<423 439>
VStem: 347 34<566 589> 759 34<246 262>
DStem: 543 612 644 692 194 -8 250 -8
Fore
676 376 m 0
 746 376 793 329 793 260 c 0
 793 184 760 101 706 44 c 0
 674 10 628 -10 583 -10 c 0
 503 -10 450 45 450 128 c 0
 450 192 485 265 539 316 c 0
 582 356 627 376 676 376 c 0
708 325 m 0
 684 326 658 308 635 273 c 0
 605 230 570 137 567 93 c 0
 565 61 587 36 617 36 c 0
 653 36 688 65 718 119 c 0
 745 168 759 214 759 257 c 0
 759 295 738 323 708 325 c 0
194 -8 m 1
 543 612 l 1
 500 594 461 585 424 585 c 0
 414 585 401 587 381 590 c 1
 380 501 363 444 320 382 c 0
 281 325 228 294 168 294 c 0
 93 294 39 351 39 431 c 0
 39 555 151 679 263 679 c 0
 292 679 311 672 340 651 c 0
 368 631 394 623 436 623 c 0
 499 623 549 643 605 692 c 1
 644 692 l 1
 250 -8 l 1
 194 -8 l 1
287 631 m 0
 270 633 246 613 224 581 c 0
 191 531 157 441 154 394 c 0
 152 363 173 340 202 340 c 0
 272 340 347 463 347 577 c 0
 347 599 346 601 318 612 c 0
 311 615 310 615 302 623 c 0
 295 629 292 630 287 631 c 0
EndSplineSet
MinimumDistance: x1,-1 
EndChar
StartChar: ampersand
Encoding: 38 38 6
Width: 778
Flags: W
HStem: -18.9988 70.9988<198 265> -17.9981 78.9981<529 596> 649 33<414 427>
VStem: 5.00331 132.997<148 190> 234.002 120.998<476 530> 477 80<567 582> 479 212<336 360>
Fore
673 101 m 1
 699 80 l 1
 638 7 595 -18 529 -18 c 0
 476 -18 435 0 390 44 c 1
 324 -1 268 -19 198 -19 c 0
 84 -19 5 49 5 148 c 0
 5 194 26 242 63 280 c 0
 97 316 129 334 245 384 c 1
 237 429 234 452 234 476 c 0
 234 598 309 682 419 682 c 0
 499 682 557 634 557 568 c 0
 557 501 499 446 375 396 c 1
 387 322 420 235 461 169 c 1
 518 241 535 270 535 298 c 0
 535 320 521 329 479 336 c 1
 479 361 l 1
 691 361 l 1
 691 336 l 1
 629 324 624 319 486 133 c 1
 525 82 557 61 596 61 c 0
 623 61 644 72 673 101 c 1
253 343 m 1
 169 302 138 260 138 190 c 0
 138 111 193 52 265 52 c 0
 296 52 322 60 362 80 c 1
 306 167 279 232 253 343 c 1
366 434 m 1
 403 456 403 456 414 465 c 0
 453 495 477 538 477 582 c 0
 477 624 458 649 425 649 c 0
 380 649 355 607 355 530 c 0
 355 505 357 488 366 434 c 1
EndSplineSet
MinimumDistance: x16,-1 
EndChar
StartChar: quotesingle
Encoding: 39 39 7
Width: 278
Flags: W
Fore
169 398 m 1
 128 398 l 1
 144 612 l 1
 147 650 184 685 222 685 c 0
 248 685 268 663 268 636 c 0
 268 622 267 620 253 589 c 2
 251 584 l 1
 169 398 l 1
EndSplineSet
EndChar
StartChar: parenleft
Encoding: 40 40 8
Width: 333
Flags: W
Fore
326 685 m 1
 344 665 l 1
 263 591 226 543 190 462 c 0
 147 366 122 237 122 110 c 0
 122 -6 138 -68 193 -164 c 1
 170 -179 l 1
 69 -41 28 70 28 207 c 0
 28 279 41 344 68 404 c 0
 114 508 174 573 326 685 c 1
EndSplineSet
EndChar
StartChar: parenright
Encoding: 41 41 9
Width: 333
Flags: W
Fore
-27 -179 m 1
 -44 -159 l 1
 32 -89 63 -51 95 14 c 0
 145 114 177 266 177 399 c 0
 177 513 159 580 105 670 c 1
 128 685 l 1
 180 614 201 580 224 524 c 0
 255 450 271 372 271 299 c 0
 271 202 245 114 192 33 c 0
 141 -47 90 -95 -27 -179 c 1
EndSplineSet
EndChar
StartChar: asterisk
Encoding: 42 42 10
Width: 500
Flags: W
HStem: 334.007 104.993<115 144 377 406> 497 105.992<114 144 377 407>
VStem: 210 101<300 306 621.082 636> 253 15<428 453 483 510>
Fore
253 482 m 1
 253 494 l 2
 253 527 246 552 227 584 c 0
 214 606 210 618 210 633 c 0
 210 664 230 685 261 685 c 0
 291 685 311 664 311 633 c 0
 311 618 307 606 294 584 c 0
 275 552 268 527 268 494 c 2
 268 482 l 1
 279 488 l 2
 308 505 320 517 344 555 c 0
 365 590 383 603 407 603 c 0
 432 603 456 577 456 548 c 0
 456 533 447 519 430 508 c 0
 416 499 406 497 377 497 c 0
 333 496 320 493 287 474 c 2
 276 468 l 1
 287 462 l 2
 320 443 331 441 377 439 c 0
 406 439 417 436 430 429 c 0
 446 420 456 403 456 388 c 0
 456 359 433 334 406 334 c 0
 381 334 365 346 344 382 c 0
 322 418 312 428 279 448 c 2
 268 454 l 1
 268 442 l 2
 268 410 275 386 294 353 c 0
 306 331 311 318 311 303 c 0
 311 273 291 252 260 252 c 0
 230 252 210 273 210 304 c 0
 210 318 215 331 227 353 c 0
 246 386 253 410 253 442 c 2
 253 454 l 1
 242 448 l 2
 209 428 199 418 177 382 c 0
 156 346 140 334 115 334 c 0
 88 334 65 359 65 388 c 0
 65 403 75 420 91 429 c 0
 103 436 115 439 144 439 c 0
 190 441 201 443 234 462 c 2
 245 468 l 1
 234 474 l 2
 201 493 188 496 144 497 c 0
 115 497 105 499 91 508 c 0
 74 519 65 532 65 549 c 0
 65 577 89 603 114 603 c 0
 138 603 155 590 177 555 c 0
 201 517 213 505 242 488 c 2
 253 482 l 1
EndSplineSet
MinimumDistance: x7,-1 
EndChar
StartChar: plus
Encoding: 43 43 11
Width: 570
Flags: W
HStem: 0 21G<241 329> 209 88<34 241 329 536>
VStem: 241 88<1 209 297 505>
Fore
241 297 m 1
 241 506 l 1
 329 506 l 1
 329 297 l 1
 537 297 l 1
 537 209 l 1
 329 209 l 1
 329 0 l 1
 241 0 l 1
 241 209 l 1
 33 209 l 1
 33 297 l 1
 241 297 l 1
EndSplineSet
MinimumDistance: x4,-1 y6,8 y6,7 y3,1 y3,2 x3,5 x3,4 x0,10 x0,11 
EndChar
StartChar: comma
Encoding: 44 44 12
Width: 250
Flags: W
VStem: -12 155.997<36 61>
Fore
-47 -182 m 1
 -60 -158 l 1
 18 -116 58 -77 58 -41 c 0
 58 -27 51 -17 28 -2 c 0
 -2 18 -12 34 -12 61 c 0
 -12 103 18 134 59 134 c 0
 110 134 144 95 144 36 c 0
 144 -45 68 -131 -47 -182 c 1
EndSplineSet
KernsSLIF: 8217 -23 1 0 8221 -1 1 0 63196 -26 1 0
EndChar
StartChar: hyphen
Encoding: 45 45 13
Width: 333
Flags: W
HStem: 166 116<26 248>
DStem: 26 282 271 282 2 166 248 166
Fore
271 282 m 1
 248 166 l 1
 2 166 l 1
 26 282 l 1
 271 282 l 1
EndSplineSet
MinimumDistance: x0,-1 
KernsSLIF: 89 -69 1 0 87 -59 1 0 86 -62 1 0 84 -59 1 0 197 -13 1 0 196 -13 1 0 193 -13 1 0 198 -22 1 0 65 -13 1 0
EndChar
StartChar: period
Encoding: 46 46 14
Width: 250
Flags: W
HStem: -13 148<55 71>
VStem: -9 148<51 67>
Fore
66 135 m 0
 106 135 139 101 139 61 c 0
 139 19 106 -13 64 -13 c 0
 23 -13 -9 19 -9 60 c 0
 -9 103 23 135 66 135 c 0
EndSplineSet
MinimumDistance: x1,-1 
KernsSLIF: 8217 -27 1 0 8221 -5 1 0 63196 -32 1 0
EndChar
StartChar: slash
Encoding: 47 47 15
Width: 278
Flags: W
HStem: 665 20G<255 342>
DStem: 255 685 342 685 -64 -18 23 -18
Fore
255 685 m 1
 342 685 l 1
 23 -18 l 1
 -64 -18 l 1
 255 685 l 1
EndSplineSet
EndChar
StartChar: zero
Encoding: 48 48 16
Width: 500
Flags: W
HStem: -14 29<161 179> 654 29<321 329>
Fore
327 683 m 0
 418 683 477 588 477 442 c 0
 477 285 398 104 298 29 c 0
 259 0 219 -14 177 -14 c 0
 81 -14 17 73 17 206 c 0
 17 354 79 515 172 611 c 0
 217 657 272 683 327 683 c 0
325 654 m 0
 288 654 260 614 223 510 c 0
 176 380 120 145 120 81 c 0
 120 41 140 15 170 15 c 0
 211 15 240 53 273 149 c 0
 296 216 345 408 362 494 c 0
 370 531 374 563 374 582 c 0
 374 627 356 654 325 654 c 0
EndSplineSet
EndChar
StartChar: one
Encoding: 49 49 17
Width: 500
Flags: W
HStem: 0 23<5.06261 31.02 325 349>
VStem: 5 345<1 23>
DStem: 252 556 419 683 124 97 265 123
Fore
5 0 m 1
 5 23 l 1
 77 23 107 42 124 97 c 1
 252 556 l 1
 254 565 256 574 256 580 c 0
 256 602 241 613 210 613 c 0
 191 613 174 612 147 608 c 1
 149 631 l 1
 265 648 328 661 419 683 c 1
 265 123 l 2
 254 83 253 78 253 69 c 0
 253 32 271 24 350 23 c 1
 350 0 l 1
 5 0 l 1
EndSplineSet
MinimumDistance: x8,-1 
EndChar
StartChar: two
Encoding: 50 50 18
Width: 500
Flags: W
HStem: 0 111<107 283> 592.996 90.0041<219 281>
VStem: 311.998 134.002<483 515>
Fore
419 191 m 1
 340 0 l 1
 -27 0 l 1
 -27 24 l 1
 63 114 l 2
 251 301 312 392 312 483 c 0
 312 552 277 593 219 593 c 0
 167 593 126 566 86 507 c 1
 64 519 l 1
 92 573 108 597 137 623 c 0
 181 663 228 683 281 683 c 0
 374 683 446 609 446 515 c 0
 446 440 396 358 302 278 c 2
 106 111 l 1
 255 111 l 2
 333 111 356 125 394 191 c 1
 419 191 l 1
EndSplineSet
MinimumDistance: x11,-1 
EndChar
StartChar: three
Encoding: 51 51 19
Width: 500
Flags: W
HStem: 611.996 71.0042<234 301>
VStem: 284.998 123.002<189 250> 320.686 128.432<522 547>
Fore
128 347 m 1
 132 369 l 1
 261 396 321 445 321 522 c 0
 321 577 287 612 234 612 c 0
 187 612 159 594 118 537 c 1
 97 550 l 1
 159 643 220 683 301 683 c 0
 386 683 450 625 450 547 c 0
 450 487 414 438 343 403 c 2
 331 397 l 1
 388 354 408 316 408 250 c 0
 408 104 279 -13 118 -13 c 0
 36 -13 -15 18 -15 67 c 0
 -15 101 9 123 45 123 c 0
 71 123 87 112 110 77 c 0
 127 52 133 43 135 41 c 0
 143 33 159 27 175 27 c 0
 236 27 285 100 285 189 c 0
 285 256 260 304 213 328 c 0
 189 341 170 345 128 347 c 1
EndSplineSet
EndChar
StartChar: four
Encoding: 52 52 20
Width: 500
Flags: W
HStem: 0 21G<188 316> 150 98<54 228 385 426> 663 20G<440 503>
DStem: 229 150 358 150 188 0 316 0 335 528 503 683 256 248 384 248 440 683 335 528 13 255 53 248
Fore
453 248 m 1
 426 150 l 1
 358 150 l 1
 316 0 l 1
 188 0 l 1
 229 150 l 1
 -15 150 l 1
 13 255 l 1
 440 683 l 1
 503 683 l 1
 384 248 l 1
 453 248 l 1
53 248 m 1
 256 248 l 1
 335 528 l 1
 53 248 l 1
EndSplineSet
EndChar
StartChar: five
Encoding: 53 53 21
Width: 500
Flags: W
HStem: -13 135.995<48 120> 560 109<204 451>
VStem: 306.997 105.003<189 250>
DStem: 204 669 197 560 73 372 163 484
Fore
197 560 m 1
 163 484 l 1
 255 465 282 456 316 433 c 0
 378 393 412 328 412 250 c 0
 412 102 284 -13 120 -13 c 0
 41 -13 -11 19 -11 66 c 0
 -11 99 14 123 48 123 c 0
 78 123 95 110 119 70 c 0
 140 36 152 27 173 27 c 0
 243 27 307 104 307 189 c 0
 307 253 271 311 209 342 c 0
 171 362 139 369 73 372 c 1
 204 669 l 1
 487 669 l 1
 451 560 l 1
 197 560 l 1
EndSplineSet
MinimumDistance: x3,-1 
EndChar
StartChar: six
Encoding: 54 54 22
Width: 500
Flags: W
HStem: -15 32<183 199>
VStem: 23 112.002<95 195> 319 123.998<251 315>
Fore
503 679 m 1
 509 655 l 1
 374 604 292 530 231 409 c 1
 261 419 273 422 293 422 c 0
 386 422 443 357 443 251 c 0
 443 103 334 -15 197 -15 c 0
 88 -15 23 64 23 195 c 0
 23 336 98 475 224 569 c 0
 305 628 369 653 503 679 c 1
251 382 m 0
 219 382 210 373 189 320 c 0
 156 238 135 148 135 95 c 128
 135 42 153 17 190 17 c 0
 215 17 238 32 251 56 c 0
 284 119 319 253 319 315 c 0
 319 361 298 382 251 382 c 0
EndSplineSet
EndChar
StartChar: seven
Encoding: 55 55 23
Width: 500
Flags: W
HStem: 0 21G<52 144> 556 113<212 383>
DStem: 384 556 525 669 52 0 144 0
Fore
83 479 m 1
 57 479 l 1
 144 669 l 1
 525 669 l 1
 144 0 l 1
 52 0 l 1
 384 556 l 1
 251 556 l 2
 147 556 120 544 83 479 c 1
EndSplineSet
EndChar
StartChar: eight
Encoding: 56 56 24
Width: 500
Flags: W
HStem: -13 30<185 211> 650 33<291 312>
VStem: 3 97<140 155> 109.002 110.998<499 553> 305.999 113.001<147 193> 383 93<531 555>
Fore
333 381 m 1
 333 376 l 1
 394 309 419 257 419 193 c 0
 419 74 325 -13 197 -13 c 0
 82 -13 3 54 3 153 c 0
 3 238 59 296 183 340 c 1
 183 345 l 1
 127 404 109 441 109 499 c 0
 109 605 190 683 300 683 c 0
 354 683 408 662 442 628 c 0
 464 605 476 575 476 540 c 0
 476 469 436 425 333 381 c 1
209 321 m 1
 193 310 193 310 190 307 c 0
 129 262 100 209 100 141 c 0
 100 64 138 17 199 17 c 0
 261 17 306 72 306 147 c 0
 306 199 295 219 209 321 c 1
310 403 m 1
 367 463 383 493 383 544 c 0
 383 608 351 650 302 650 c 0
 254 650 220 609 220 553 c 0
 220 504 241 468 310 403 c 1
EndSplineSet
MinimumDistance: x10,-1 
EndChar
StartChar: nine
Encoding: 57 57 25
Width: 500
Flags: W
HStem: 245.002 42.9979<204 243> 651 31.8276<308 320>
VStem: 53 124.002<352 412>
Fore
-6 -10 m 1
 -12 15 l 1
 110 52 204 135 265 259 c 1
 241 248 226 245 204 245 c 0
 114 245 53 312 53 412 c 0
 53 564 161 683 299 683 c 0
 348 683 388 668 417 639 c 0
 454 601 475 542 475 476 c 0
 475 334 398 191 273 99 c 0
 193 40 129 15 -6 -10 c 1
314 651 m 0
 283 651 256 630 235 589 c 0
 204 528 177 416 177 352 c 0
 177 311 200 288 243 288 c 0
 285 288 293 298 320 377 c 0
 345 450 345 450 353 491 c 0
 359 524 363 561 363 582 c 0
 363 628 347 651 314 651 c 0
EndSplineSet
MinimumDistance: x11,-1 
EndChar
StartChar: colon
Encoding: 58 58 26
Width: 333
Flags: W
HStem: -13 148<87 103> 311 148<183 199>
VStem: 23 148<51 67> 116 148<372.493 387>
Fore
98 135 m 0
 138 135 171 101 171 61 c 0
 171 19 138 -13 96 -13 c 0
 55 -13 23 19 23 61 c 128
 23 103 56 135 98 135 c 0
191 459 m 0
 231 459 264 425 264 385 c 0
 264 343 231 311 189 311 c 0
 148 311 116 343 116 385 c 128
 116 427 149 459 191 459 c 0
EndSplineSet
MinimumDistance: x5,-1 
EndChar
StartChar: semicolon
Encoding: 59 59 27
Width: 333
Flags: W
HStem: 311 148<179 199>
VStem: 23 155.997<35 60> 116 148<377 393>
Fore
-12 -183 m 1
 -25 -159 l 1
 53 -117 93 -78 93 -42 c 0
 93 -28 86 -18 63 -3 c 0
 33 17 23 33 23 60 c 0
 23 102 53 133 94 133 c 0
 145 133 179 94 179 35 c 0
 179 -46 104 -132 -12 -183 c 1
191 459 m 0
 231 459 264 425 264 385 c 0
 264 343 231 311 189 311 c 0
 148 311 116 343 116 385 c 128
 116 427 149 459 191 459 c 0
EndSplineSet
MinimumDistance: x8,-1 
EndChar
StartChar: less
Encoding: 60 60 28
Width: 570
Flags: W
DStem: 31 211 154 253 539 -12 539 84 539 518 539 422 31 295 154 253
Fore
539 -12 m 1
 31 211 l 1
 31 295 l 1
 539 518 l 1
 539 422 l 1
 154 253 l 1
 539 84 l 1
 539 -12 l 1
EndSplineSet
MinimumDistance: x0,-1 
EndChar
StartChar: equal
Encoding: 61 61 29
Width: 570
Flags: W
HStem: 107 88<34 536> 311 88<34 536>
VStem: 33 504<108 194 312 398>
Fore
537 399 m 1
 537 311 l 1
 33 311 l 1
 33 399 l 1
 537 399 l 1
537 195 m 1
 537 107 l 1
 33 107 l 1
 33 195 l 1
 537 195 l 1
EndSplineSet
MinimumDistance: x0,-1 
EndChar
StartChar: greater
Encoding: 62 62 30
Width: 570
Flags: W
DStem: 31 422 31 518 416 253 539 295 416 253 539 211 31 84 31 -12
Fore
31 -12 m 1
 31 84 l 1
 416 253 l 1
 31 422 l 1
 31 518 l 1
 539 295 l 1
 539 211 l 1
 31 -12 l 1
EndSplineSet
MinimumDistance: x5,-1 
EndChar
StartChar: question
Encoding: 63 63 31
Width: 500
Flags: W
HStem: -13 148<143 159> 653 30.0401<271 281>
VStem: 79 148<51 67> 119 122<546 557> 342.011 127.163<539 573>
Fore
196 208 m 1
 167 215 l 1
 171 270 192 316 238 374 c 2
 279 425 l 2
 323 480 343 526 343 573 c 0
 343 622 316 653 274 653 c 0
 242 653 212 634 212 615 c 0
 212 609 215 603 223 593 c 0
 236 576 241 562 241 547 c 0
 241 515 214 488 180 488 c 128
 146 488 119 517 119 555 c 0
 119 630 193 684 294 684 c 0
 399 684 470 626 470 539 c 0
 470 477 433 427 344 369 c 2
 278 326 l 2
 240 301 224 278 196 208 c 1
154 135 m 0
 194 135 227 101 227 61 c 0
 227 19 194 -13 152 -13 c 0
 111 -13 79 19 79 61 c 128
 79 103 112 135 154 135 c 0
EndSplineSet
EndChar
StartChar: at
Encoding: 64 64 32
Width: 832
Flags: W
HStem: -18 46<431 463> 142.241 36.759<591 599> 143.005 46.995<365 407> 646 39<415 451>
VStem: 63 91<302 350> 272 76<257 277> 724 46<366 401>
Fore
545 463 m 1
 556 501 l 1
 627 501 l 1
 562 244 l 1
 560 238 560 233 560 224 c 0
 560 195 574 179 597 179 c 0
 627 179 654 196 677 230 c 0
 706 271 724 329 724 379 c 0
 724 525 594 646 437 646 c 0
 272 646 154 511 154 322 c 0
 154 151 277 28 449 28 c 0
 518 28 569 40 647 76 c 1
 660 41 l 1
 563 -4 511 -18 439 -18 c 0
 228 -18 63 134 63 328 c 0
 63 527 228 685 436 685 c 0
 624 685 770 555 770 387 c 0
 770 255 683 142 583 142 c 0
 534 142 492 176 490 217 c 1
 455 171 408 143 365 143 c 0
 313 143 272 193 272 257 c 0
 272 330 304 409 355 463 c 0
 386 496 430 515 473 515 c 0
 509 515 523 505 545 463 c 1
486 467 m 0
 461 469 427 449 399 417 c 0
 366 379 348 329 348 275 c 0
 348 223 371 190 407 190 c 0
 436 190 466 215 488 257 c 0
 509 298 526 358 528 402 c 0
 530 441 515 465 486 467 c 0
EndSplineSet
MinimumDistance: x16,-1 
EndChar
StartChar: A
Encoding: 65 65 33
Width: 667
Flags: W
HStem: 0 25<109 128> 208 40<162 345> 663 20G<388 413>
VStem: -67 196<1 25> 289 304<1 25>
DStem: 388 683 309 491 16 95 161 248
Fore
593 25 m 1
 593 0 l 1
 289 0 l 1
 289 25 l 1
 353 31 368 42 368 84 c 0
 368 97 366 117 360 156 c 0
 359 163 356 184 353 208 c 1
 138 208 l 1
 79 106 l 2
 69 89 64 73 64 60 c 0
 64 36 83 25 129 25 c 1
 129 0 l 1
 -67 0 l 1
 -67 25 l 1
 -31 33 -16 46 16 95 c 1
 388 683 l 1
 413 683 l 1
 509 111 l 1
 522 35 527 30 593 25 c 1
161 248 m 1
 346 248 l 1
 309 491 l 1
 161 248 l 1
EndSplineSet
MinimumDistance: x0,-1 
KernsSLIF: 121 -67 0 0 119 -56 0 0 118 -51 0 0 117 -18 0 0 116 -4 0 0 8217 -101 0 0 8221 -78 0 0 113 -18 0 0 46 1 0 0 111 -23 0 0 45 -23 0 0 8249 -68 0 0 171 -58 0 0 103 -20 0 0 101 -25 0 0 100 -5 0 0 231 -29 0 0 99 -20 0 0 98 -1 0 0 97 -5 0 0 89 -44 0 0 87 -107 0 0 86 -110 0 0 217 -61 0 0 220 -61 0 0 219 -61 0 0 218 -61 0 0 85 -61 0 0 84 -33 0 0 81 -54 0 0 214 -53 0 0 79 -53 0 0 71 -59 0 0 199 -63 0 0 67 -61 0 0
EndChar
StartChar: B
Encoding: 66 66 34
Width: 667
Flags: W
HStem: 0 32<248 271> 637 32<376 392>
VStem: 418.941 152.35<206 229> 477 147<522 538>
DStem: 178 546 338 593 56 97 277 368 178 546 269 338 56 97 203 94
Fore
116 644 m 1
 116 669 l 1
 388 669 l 2
 543 669 624 619 624 523 c 0
 624 482 606 442 577 417 c 0
 542 388 511 374 435 355 c 1
 536 322 572 284 572 206 c 0
 572 78 460 0 277 0 c 2
 -24 0 l 1
 -24 25 l 1
 24 31 40 46 56 97 c 1
 178 546 l 2
 185 571 189 593 189 603 c 0
 189 615 182 628 173 633 c 0
 161 640 152 642 116 644 c 1
269 338 m 1
 203 94 l 1
 200 81 198 72 198 65 c 0
 198 43 217 32 255 32 c 0
 299 32 333 45 360 72 c 0
 395 108 419 171 419 229 c 0
 419 266 407 295 385 313 c 0
 365 330 335 336 269 338 c 1
338 593 m 2
 277 368 l 1
 351 371 385 378 416 398 c 0
 456 424 477 472 477 536 c 0
 477 603 448 637 390 637 c 0
 358 637 348 629 338 593 c 2
EndSplineSet
MinimumDistance: x3,-1 
KernsSLIF: 89 -50 0 0 87 -46 0 0 86 -46 0 0 216 -23 0 0 210 -22 0 0 214 -22 0 0 212 -22 0 0 211 -22 0 0 338 -20 0 0 79 -22 0 0 195 -34 0 0 197 -34 0 0 196 -34 0 0 194 -34 0 0 193 -34 0 0 198 -40 0 0 65 -34 0 0
EndChar
StartChar: C
Encoding: 67 67 35
Width: 667
Flags: W
HStem: -17.6239 53.2783<304 336> 650 34.1508<464 466> 665 20G<647 677>
VStem: 32.5575 153.629<209 241>
Fore
677 685 m 1
 626 451 l 1
 594 457 l 1
 596 470 597 479 597 492 c 0
 597 590 547 650 466 650 c 0
 425 650 386 634 349 604 c 0
 258 528 186 355 186 209 c 0
 186 100 242 35 336 35 c 0
 367 35 398 41 426 53 c 0
 468 71 496 94 546 153 c 1
 576 131 l 1
 544 87 528 69 498 47 c 0
 441 4 375 -18 304 -18 c 0
 141 -18 32 86 32 241 c 0
 32 483 217 685 440 685 c 0
 481 685 528 677 571 664 c 0
 586 659 601 656 609 656 c 0
 624 656 633 663 647 685 c 1
 677 685 l 1
EndSplineSet
MinimumDistance: x6,-1 
KernsSLIF: 214 -25 0 0 211 -25 0 0 79 -25 0 0 75 -28 0 0 72 -26 0 0 197 -24 0 0 196 -24 0 0 193 -24 0 0 198 -31 0 0 65 -24 0 0
EndChar
StartChar: D
Encoding: 68 68 36
Width: 744
Flags: W
HStem: 0 34<248 264> 638 31<379.67 408>
VStem: 560 146.999<396 457>
DStem: 177 543 340 600 56 97 212 126
Fore
116 644 m 1
 116 669 l 1
 406 669 l 2
 595 669 707 567 707 396 c 0
 707 169 517 0 262 0 c 2
 -24 0 l 1
 -24 25 l 1
 25 31 41 46 56 97 c 1
 177 543 l 1
 185 575 189 592 189 602 c 0
 189 626 179 634 147 639 c 0
 143 640 130 642 116 644 c 1
340 600 m 1
 212 126 l 1
 212 126 211 124 211 122 c 0
 202 96 199 80 199 68 c 0
 199 45 216 34 253 34 c 0
 348 34 419 71 472 147 c 0
 526 224 560 343 560 457 c 0
 560 579 506 638 395 638 c 0
 363 638 347 627 340 600 c 1
EndSplineSet
KernsSLIF: 89 -64 0 0 88 -64 0 0 87 -58 0 0 86 -60 0 0 84 -27 0 0 74 -67 0 0 195 -54 0 0 197 -54 0 0 192 -54 0 0 196 -54 0 0 194 -54 0 0 193 -54 0 0 65 -54 0 0
EndChar
StartChar: E
Encoding: 69 69 37
Width: 670
Flags: W
HStem: 0 32<248 280> 337.774 32.2258<279 296> 637 32<392 424>
DStem: 179 546 339 593 56 97 278 370 179 546 511 472 56 97 437 199 179 546 269 338 56 97 213 129
Fore
589 194 m 1
 530 0 l 1
 -24 0 l 1
 -24 25 l 1
 28 33 40 44 56 97 c 1
 179 546 l 2
 185 568 189 591 189 606 c 0
 189 627 178 635 147 639 c 0
 142 640 130 642 116 644 c 1
 116 669 l 1
 656 669 l 1
 613 479 l 1
 586 484 l 1
 586 546 579 571 556 595 c 0
 529 622 475 637 402 637 c 0
 361 637 349 628 339 593 c 1
 278 370 l 1
 410 369 436 382 483 476 c 1
 511 472 l 1
 437 199 l 1
 409 204 l 1
 412 223 413 234 413 248 c 0
 413 317 383 336 269 338 c 1
 213 129 l 1
 211 123 l 1
 210 115 208 109 206 104 c 0
 201 84 198 73 198 66 c 0
 198 42 216 32 259 32 c 0
 345 32 413 51 469 90 c 0
 508 117 529 142 564 199 c 1
 589 194 l 1
EndSplineSet
MinimumDistance: x18,-1 
EndChar
StartChar: F
Encoding: 70 70 38
Width: 656
Flags: W
HStem: 0 21G<-24 271> 337.753 32.2471<279 296> 637 32<392 432>
VStem: -24 295<1 25>
DStem: 179 546 339 593 56 97 278 370 179 546 504 472 56 97 430 199 179 546 269 338 56 97 215 137
Fore
504 472 m 1
 430 199 l 1
 402 204 l 1
 405 223 406 234 406 248 c 0
 406 316 376 336 269 338 c 1
 215 137 l 1
 214 135 213 129 211 122 c 0
 203 97 200 81 200 69 c 0
 200 38 215 29 271 25 c 1
 271 0 l 1
 -24 0 l 1
 -24 25 l 1
 28 33 40 44 56 97 c 1
 179 546 l 2
 185 568 189 592 189 606 c 0
 189 627 178 636 147 639 c 0
 142 640 130 642 116 644 c 1
 116 669 l 1
 649 669 l 1
 606 479 l 1
 579 484 l 1
 579 540 573 567 553 590 c 0
 526 621 475 637 402 637 c 0
 362 637 349 628 339 593 c 1
 278 370 l 1
 409 371 429 382 476 476 c 1
 504 472 l 1
EndSplineSet
MinimumDistance: x0,-1 
KernsSLIF: 117 -42 0 0 114 -38 0 0 46 -98 0 0 248 -79 0 0 339 -86 0 0 246 -45 0 0 243 -82 0 0 111 -81 0 0 106 -34 0 0 105 -29 0 0 45 -54 0 0 233 -86 0 0 101 -86 0 0 44 -96 0 0 229 -75 0 0 230 -83 0 0 228 -48 0 0 225 -75 0 0 97 -75 0 0 214 -48 0 0 79 -48 0 0 74 -88 0 0 195 -101 0 0 197 -101 0 0 192 -101 0 0 196 -101 0 0 194 -101 0 0 193 -101 0 0 65 -101 0 0
EndChar
StartChar: G
Encoding: 71 71 39
Width: 722
Flags: W
HStem: -17.93 37.93<325 343> 649 36<447 469>
VStem: 21.2729 156.62<208 251> 419 287<304 329>
Fore
706 330 m 1
 706 304 l 1
 653 300 646 292 627 222 c 1
 579 41 l 1
 551 28 l 2
 494 2 394 -18 317 -18 c 0
 142 -18 21 92 21 251 c 0
 21 404 108 555 240 632 c 0
 301 667 372 685 448 685 c 0
 494 685 527 679 572 664 c 0
 591 657 599 655 608 655 c 0
 628 655 639 663 650 685 c 1
 681 685 l 1
 630 464 l 1
 601 468 l 1
 599 536 592 565 570 598 c 0
 548 630 509 649 462 649 c 0
 417 649 374 633 336 601 c 0
 245 524 177 357 177 208 c 0
 177 86 235 20 341 20 c 0
 380 20 421 33 435 50 c 0
 439 55 439 55 462 133 c 0
 489 225 493 242 493 268 c 0
 493 277 487 288 481 292 c 0
 470 298 462 300 419 304 c 1
 419 330 l 1
 706 330 l 1
EndSplineSet
MinimumDistance: x0,-1 
KernsSLIF: 89 -31 0 0 87 -27 0 0 86 -27 0 0 84 -42 0 0 195 -14 0 0 197 -14 0 0 192 -14 0 0 196 -14 0 0 194 -14 0 0 193 -14 0 0 198 -20 0 0 65 -14 0 0
EndChar
StartChar: H
Encoding: 72 72 40
Width: 778
Flags: W
HStem: 0 21G<-24 272 340 657> 329 44<279 504> 649 20G<116 433 501 799>
VStem: -24 296<1 25> 116 317<644 668> 340 317<1 25> 501 298<644 668>
DStem: 178 546 332 572 56 97 278 373 178 546 718 572 56 97 609 175 178 546 266 329 56 97 216 148 505 329 718 572 441 97 609 175 505 329 609 175 441 97 603 153 564 546 718 572 517 373 609 175
Fore
657 25 m 1
 657 0 l 1
 340 0 l 1
 340 25 l 1
 407 29 427 43 441 97 c 1
 505 329 l 1
 266 329 l 1
 216 148 l 1
 215 143 213 138 212 132 c 0
 203 100 199 82 199 68 c 0
 199 36 209 30 272 25 c 1
 272 0 l 1
 -24 0 l 1
 -24 25 l 1
 26 32 40 45 56 97 c 1
 178 546 l 2
 185 572 189 593 189 604 c 0
 189 626 178 635 147 639 c 0
 142 640 130 642 116 644 c 1
 116 669 l 1
 433 669 l 1
 433 644 l 1
 368 642 348 627 332 572 c 1
 278 373 l 1
 517 373 l 1
 564 546 l 2
 569 564 574 595 574 607 c 0
 574 627 564 635 533 639 c 0
 528 640 515 642 501 644 c 1
 501 669 l 1
 799 669 l 1
 799 644 l 1
 748 637 734 625 718 572 c 1
 609 175 l 1
 603 153 l 2
 589 103 584 80 584 66 c 0
 584 37 602 27 657 25 c 1
EndSplineSet
EndChar
StartChar: I
Encoding: 73 73 41
Width: 393
Flags: W
HStem: 0 21G<-24 272> 649 20G<116 414>
VStem: -24 296<1 25> 116 298<644 668>
DStem: 179 546 332 572 56 97 218 152
Fore
272 25 m 1
 272 0 l 1
 -24 0 l 1
 -24 25 l 1
 25 31 40 45 56 97 c 1
 179 546 l 2
 184 564 189 595 189 607 c 0
 189 627 179 635 148 639 c 0
 143 640 130 642 116 644 c 1
 116 669 l 1
 414 669 l 1
 414 644 l 1
 363 638 348 625 332 572 c 1
 218 152 l 2
 205 103 200 80 200 65 c 0
 200 37 215 28 272 25 c 1
EndSplineSet
EndChar
StartChar: J
Encoding: 74 74 42
Width: 500
Flags: W
HStem: -98.0762 35.0762<84 87> 649 20G<227 524>
VStem: -46 127<1 13> 227 297<644 668>
DStem: 289 546 443 572 175 114 315 93
Fore
524 669 m 1
 524 644 l 1
 475 638 460 625 443 572 c 1
 315 93 l 2
 280 -38 214 -99 106 -99 c 0
 18 -99 -46 -56 -46 2 c 0
 -46 41 -18 72 18 72 c 0
 53 72 81 44 81 9 c 0
 81 -5 78 -11 68 -24 c 0
 60 -33 58 -38 58 -45 c 0
 58 -57 67 -63 85 -63 c 0
 121 -63 136 -35 175 114 c 2
 289 546 l 2
 296 572 300 595 300 607 c 0
 300 625 287 635 258 639 c 0
 253 640 241 642 227 644 c 1
 227 669 l 1
 524 669 l 1
EndSplineSet
KernsSLIF: 197 -39 0 0 196 -39 0 0 198 -42 0 0 65 -39 0 0
EndChar
StartChar: K
Encoding: 75 75 43
Width: 664
Flags: W
HStem: 0 21G<-24 265 329 609> 642 27<504 509>
VStem: -24 289<1 25> 116 310<644 668> 329 280<1 25> 488 211<644 668>
DStem: 178 546 332 572 56 97 270 344 178 546 268 337 56 97 201 88 268 337 389 398 381 95 546 60
Fore
389 398 m 1
 546 60 l 2
 557 36 571 29 609 25 c 1
 609 0 l 1
 329 0 l 1
 329 25 l 1
 341 26 352 27 356 28 c 0
 382 30 394 38 394 52 c 0
 394 63 390 75 381 95 c 2
 268 337 l 1
 201 88 l 1
 200 83 199 77 199 71 c 0
 199 38 213 29 265 25 c 1
 265 0 l 1
 -24 0 l 1
 -24 25 l 1
 25 31 40 44 56 97 c 1
 178 546 l 2
 185 572 189 593 189 604 c 0
 189 626 178 635 147 639 c 0
 142 640 130 642 116 644 c 1
 116 669 l 1
 426 669 l 1
 426 644 l 1
 367 639 348 624 332 572 c 1
 270 344 l 1
 476 520 544 588 544 617 c 0
 544 632 534 639 509 642 c 0
 506 642 497 643 488 644 c 1
 488 669 l 1
 699 669 l 1
 699 644 l 1
 656 638 648 635 605 596 c 2
 389 398 l 1
EndSplineSet
KernsSLIF: 121 -68 0 0 252 -8 0 0 117 -8 0 0 246 -13 0 0 243 -13 0 0 111 -13 0 0 45 -30 0 0 101 -16 0 0 229 3 0 0 230 -4 0 0 228 3 0 0 97 3 0 0 83 -1 0 0 214 -43 0 0 211 -43 0 0 338 -42 0 0 79 -43 0 0 71 -46 0 0 67 -51 0 0
EndChar
StartChar: L
Encoding: 76 76 44
Width: 609
Flags: W
HStem: 0 32<248 280> 649 20G<116 433>
VStem: 116 317<644 668>
DStem: 179 546 332 572 56 97 203 94
Fore
588 194 m 1
 529 0 l 1
 -24 0 l 1
 -24 25 l 1
 25 32 40 45 56 97 c 1
 179 546 l 2
 184 564 189 595 189 607 c 0
 189 627 179 635 148 639 c 0
 143 640 130 642 116 644 c 1
 116 669 l 1
 433 669 l 1
 433 644 l 1
 367 640 348 627 332 572 c 1
 203 94 l 2
 200 83 198 70 198 62 c 0
 198 41 218 32 262 32 c 0
 344 32 415 52 469 90 c 0
 508 118 530 143 564 199 c 1
 588 194 l 1
EndSplineSet
MinimumDistance: x10,-1 
KernsSLIF: 121 -23 0 0 252 5 0 0 117 5 0 0 8217 -67 0 0 8221 -45 0 0 45 41 0 0 89 -41 0 0 87 -74 0 0 86 -77 0 0 220 -17 0 0 85 -17 0 0 84 -30 0 0 83 1 0 0 213 4 0 0 210 4 0 0 214 4 0 0 212 4 0 0 211 4 0 0 79 4 0 0 71 4 0 0 197 28 0 0 196 28 0 0 193 28 0 0 198 25 0 0 65 28 0 0
EndChar
StartChar: M
Encoding: 77 77 45
Width: 896
Flags: W
HStem: -12 681<285 313> 0 21G<-29 178 463 775>
VStem: -29 207<1 25> 463 312<1 25>
DStem: 688 561 836 572 563 97 713 123 705 669 688 561 395 189 313 -12
Fore
917 669 m 1
 917 644 l 1
 866 638 851 624 836 572 c 1
 713 123 l 1
 712 118 l 1
 711 113 l 1
 705 92 703 78 703 68 c 0
 703 36 717 28 775 25 c 1
 775 0 l 1
 463 0 l 1
 463 25 l 1
 528 29 547 43 563 97 c 1
 688 561 l 1
 313 -12 l 1
 285 -12 l 1
 218 547 l 1
 117 178 l 2
 104 130 98 102 98 86 c 0
 98 45 114 33 178 25 c 1
 178 0 l 1
 -29 0 l 1
 -29 25 l 1
 25 37 32 48 72 178 c 1
 181 551 l 2
 188 576 192 596 192 609 c 0
 192 637 183 641 120 644 c 1
 120 669 l 1
 341 669 l 1
 395 189 l 1
 705 669 l 1
 917 669 l 1
EndSplineSet
MinimumDistance: x2,-1 
EndChar
StartChar: N
Encoding: 78 78 46
Width: 722
Flags: W
HStem: 0 21G<-29 179> 649 20G<109 304 537 746>
VStem: -29 208<1 25> 537 209<644 668>
DStem: 192 589 216 534 72 178 117 178 216 534 304 669 473 -15 519 204 599 491 644 491 519 204 501 -15
Fore
304 669 m 1
 519 204 l 1
 599 491 l 2
 610 531 617 567 617 585 c 0
 617 623 596 639 537 644 c 1
 537 669 l 1
 746 669 l 1
 746 644 l 1
 688 631 683 623 644 491 c 1
 501 -15 l 1
 473 -15 l 1
 216 534 l 1
 117 178 l 1
 106 137 99 102 99 84 c 0
 99 45 120 30 179 25 c 1
 179 0 l 1
 -29 0 l 1
 -29 25 l 1
 26 36 33 47 72 178 c 1
 192 589 l 1
 173 633 164 639 109 644 c 1
 109 669 l 1
 304 669 l 1
EndSplineSet
KernsSLIF: 252 -33 0 0 117 -33 0 0 46 -26 0 0 248 -32 0 0 246 -34 0 0 243 -34 0 0 111 -32 0 0 233 -38 0 0 101 -37 0 0 44 -24 0 0 229 -27 0 0 230 -34 0 0 228 -27 0 0 225 -27 0 0 97 -25 0 0 214 -32 0 0 211 -32 0 0 79 -32 0 0 71 -26 0 0 199 -30 0 0 67 -32 0 0 197 -39 0 0 196 -39 0 0 193 -39 0 0 198 -42 0 0 65 -39 0 0
EndChar
StartChar: O
Encoding: 79 79 47
Width: 722
Flags: W
HStem: -18 34<262 283> 651 34<427.95 459>
VStem: 27 144.002<137 221> 547 143.998<454 531>
Fore
449 685 m 0
 588 685 691 587 691 454 c 0
 691 308 609 149 485 58 c 0
 418 8 342 -18 263 -18 c 0
 122 -18 27 78 27 221 c 0
 27 360 113 521 234 609 c 0
 302 659 376 685 449 685 c 0
445 651 m 0
 381 651 328 610 277 520 c 0
 222 424 171 239 171 137 c 0
 171 63 210 16 273 16 c 0
 327 16 372 46 418 113 c 0
 485 211 547 411 547 531 c 0
 547 603 506 651 445 651 c 0
EndSplineSet
KernsSLIF: 89 -56 0 0 88 -63 0 0 87 -52 0 0 86 -52 0 0 84 -18 0 0 197 -57 0 0 196 -57 0 0 193 -57 0 0 198 -67 0 0 65 -57 0 0
EndChar
StartChar: P
Encoding: 80 80 48
Width: 614
Flags: W
HStem: 0 21G<-24 270> 317.686 34.3145<312 337> 637 32<376 392>
VStem: -24 294<1 25> 469.291 146.214<514 546>
DStem: 179 546 336 593 56 97 272 354 179 546 262 322 56 97 208 123
Fore
116 644 m 1
 116 669 l 1
 403 669 l 2
 542 669 616 615 616 514 c 0
 616 394 509 317 343 317 c 0
 317 317 298 318 262 322 c 1
 208 123 l 1
 204 107 198 74 198 64 c 0
 198 37 214 28 270 25 c 1
 270 0 l 1
 -24 0 l 1
 -24 25 l 1
 28 33 40 44 56 97 c 1
 179 546 l 2
 185 568 189 592 189 606 c 0
 189 627 178 636 147 639 c 0
 142 640 130 642 116 644 c 1
336 593 m 1
 272 354 l 1
 289 353 300 352 314 352 c 0
 384 352 421 375 447 434 c 0
 461 465 470 511 470 546 c 0
 470 604 439 637 386 637 c 0
 367 637 356 633 347 622 c 0
 343 617 343 617 336 593 c 1
EndSplineSet
KernsSLIF: 46 -109 0 0 248 -47 0 0 339 -57 0 0 246 -35 0 0 243 -52 0 0 111 -52 0 0 45 -54 0 0 233 -57 0 0 101 -57 0 0 44 -107 0 0 229 -50 0 0 230 -58 0 0 228 -38 0 0 225 -50 0 0 97 -50 0 0 74 -105 0 0 197 -89 0 0 196 -89 0 0 193 -89 0 0 198 -104 0 0 65 -89 0 0
EndChar
StartChar: Q
Encoding: 81 81 49
Width: 722
Flags: W
HStem: -207.999 89.9989<396 479> 651 34<427.95 459>
VStem: 27 144.002<136 211> 547 143.998<452 531>
Fore
634 -40 m 1
 655 -59 l 1
 574 -168 505 -208 396 -208 c 0
 355 -208 322 -202 260 -182 c 0
 208 -166 185 -161 156 -161 c 0
 124 -161 97 -168 42 -189 c 1
 28 -165 l 1
 184 -35 l 2
 192 -28 197 -24 198 -23 c 0
 200 -21 201 -19 203 -16 c 1
 200 -12 197 -10 189 -7 c 0
 136 12 123 19 97 44 c 0
 52 86 27 146 27 211 c 0
 27 454 233 685 449 685 c 0
 589 685 691 587 691 452 c 0
 691 319 624 179 514 80 c 0
 437 11 382 -9 252 -17 c 1
 231 -37 206 -62 206 -64 c 0
 206 -68 216 -70 244 -72 c 0
 286 -75 330 -82 354 -90 c 2
 396 -103 l 2
 432 -114 453 -118 479 -118 c 0
 539 -118 576 -99 634 -40 c 1
445 651 m 0
 381 651 328 610 277 520 c 0
 222 423 171 239 171 136 c 0
 171 63 210 17 273 17 c 0
 327 17 372 47 418 114 c 0
 485 212 547 411 547 531 c 0
 547 603 506 651 445 651 c 0
EndSplineSet
EndChar
StartChar: R
Encoding: 82 82 50
Width: 672
Flags: W
HStem: 0 21G<-24 272 405 607> 331 32<278.063 298> 637 32<376 394>
VStem: -24 296<1 25> 477 151<525 544>
DStem: 179 546 338 593 56 97 278 363 179 546 269 331 56 97 214 138 298 331 436 343 405 0 519 97
Fore
116 644 m 1
 116 669 l 1
 392 669 l 2
 550 669 628 622 628 526 c 0
 628 470 599 419 548 385 c 0
 516 364 491 354 436 343 c 1
 519 97 l 1
 541 38 551 30 607 25 c 1
 607 0 l 1
 405 0 l 1
 298 331 l 1
 269 331 l 1
 214 138 l 2
 205 107 200 81 200 67 c 0
 200 37 214 29 272 25 c 1
 272 0 l 1
 -24 0 l 1
 -24 25 l 1
 25 31 40 45 56 97 c 1
 179 546 l 1
 184 563 189 595 189 607 c 0
 189 627 179 635 148 639 c 0
 143 640 130 642 116 644 c 1
338 593 m 1
 278 363 l 1
 340 364 379 371 405 388 c 0
 448 415 477 476 477 542 c 0
 477 602 444 637 387 637 c 0
 356 637 347 629 338 593 c 1
EndSplineSet
MinimumDistance: x3,-1 
KernsSLIF: 121 -12 0 0 252 -13 0 0 250 -13 0 0 117 -13 0 0 339 -23 0 0 246 -18 0 0 243 -18 0 0 111 -18 0 0 45 -30 0 0 233 -21 0 0 101 -21 0 0 229 -1 0 0 230 -9 0 0 228 -1 0 0 225 -1 0 0 97 -1 0 0 89 -40 0 0 87 -46 0 0 86 -46 0 0 220 -44 0 0 85 -44 0 0 84 -24 0 0 214 -34 0 0 211 -34 0 0 338 -32 0 0 79 -34 0 0 71 -28 0 0 199 -32 0 0 67 -33 0 0
EndChar
StartChar: S
Encoding: 83 83 51
Width: 556
Flags: W
HStem: -18 34<220 239> 649.915 34.2748<303 327> 661 20G<496 526>
VStem: 102.002 120.998<491 545> 346.994 121.006<142 185>
Fore
2 -18 m 1
 38 206 l 1
 67 204 l 1
 71 144 79 114 98 83 c 0
 123 41 169 16 221 16 c 0
 270 16 305 35 328 74 c 0
 340 96 347 120 347 142 c 0
 347 188 312 235 234 295 c 0
 178 339 137 383 115 425 c 0
 107 442 102 464 102 491 c 0
 102 601 189 685 303 685 c 0
 331 685 358 680 401 666 c 0
 426 659 443 655 452 655 c 0
 473 655 487 663 496 681 c 1
 526 681 l 1
 486 480 l 1
 459 484 l 1
 446 601 407 650 327 650 c 0
 263 650 223 609 223 545 c 0
 223 500 238 478 300 431 c 0
 422 338 468 271 468 185 c 0
 468 61 379 -18 239 -18 c 0
 199 -18 165 -11 116 6 c 0
 93 14 80 17 70 17 c 0
 51 17 44 11 32 -18 c 1
 2 -18 l 1
EndSplineSet
MinimumDistance: x20,-1 
KernsSLIF: 116 -6 0 0 89 -24 0 0 87 -20 0 0 86 -20 0 0 84 -34 0 0 197 -11 0 0 196 -11 0 0 193 -11 0 0 198 -17 0 0 65 -11 0 0
EndChar
StartChar: T
Encoding: 84 84 52
Width: 611
Flags: W
HStem: 0 25<51 66> 634 35<290 302 449.125 469.876>
VStem: 50 331<1 25>
DStem: 303 634 449 634 155 97 309 128
Fore
650 669 m 1
 614 477 l 1
 587 479 l 1
 582 590 543 633 449 634 c 1
 309 128 l 2
 302 102 298 81 298 66 c 0
 298 34 311 28 381 25 c 1
 381 0 l 1
 50 0 l 1
 50 25 l 1
 64 25 l 2
 115 25 141 46 155 97 c 2
 303 634 l 1
 201 632 138 591 86 491 c 1
 61 498 l 1
 99 669 l 1
 650 669 l 1
EndSplineSet
MinimumDistance: x3,-1 
KernsSLIF: 121 -86 0 0 119 -89 0 0 118 -89 0 0 117 -91 0 0 59 -98 0 0 115 -78 0 0 114 -76 0 0 46 -79 0 0 248 -90 0 0 111 -90 0 0 106 -27 0 0 105 -19 0 0 45 -74 0 0 8249 -120 0 0 171 -110 0 0 103 -95 0 0 101 -94 0 0 44 -77 0 0 58 -98 0 0 99 -89 0 0 230 -91 0 0 97 -83 0 0 89 11 0 0 87 15 0 0 86 15 0 0 83 -16 0 0 213 -22 0 0 216 -22 0 0 210 -22 0 0 214 -22 0 0 212 -22 0 0 211 -22 0 0 338 -18 0 0 79 -22 0 0 74 -63 0 0 71 -9 0 0 67 -15 0 0 195 -52 0 0 197 -52 0 0 192 -52 0 0 196 -52 0 0 194 -52 0 0 193 -52 0 0 198 -54 0 0 65 -52 0 0
EndChar
StartChar: U
Encoding: 85 85 53
Width: 722
Flags: W
HStem: -17.6297 56.5648<290 327> 640 29<128 129>
VStem: 67 138<138 158> 98 311<644 668> 536 208<644 668>
DStem: 156 529 315 572 100 323 233 272 597 491 642 491 539 282 576 263
Fore
744 669 m 1
 744 644 l 1
 689 633 682 623 642 491 c 1
 576 263 l 2
 545 155 521 101 487 62 c 0
 442 9 375 -18 290 -18 c 0
 159 -18 67 50 67 148 c 0
 67 181 79 243 100 323 c 1
 156 529 l 2
 165 562 171 593 171 605 c 0
 171 627 161 635 129 640 c 0
 125 640 112 642 98 644 c 1
 98 669 l 1
 409 669 l 1
 409 644 l 1
 347 641 332 629 315 572 c 1
 233 272 l 2
 208 181 205 166 205 139 c 0
 205 76 251 38 327 38 c 0
 382 38 426 58 460 98 c 0
 490 135 512 185 539 282 c 2
 597 491 l 1
 608 532 616 571 616 588 c 0
 616 623 593 639 536 644 c 1
 536 669 l 1
 744 669 l 1
EndSplineSet
KernsSLIF: 114 -32 0 0 46 -41 0 0 112 -30 0 0 110 -39 0 0 109 -35 0 0 44 -40 0 0 195 -65 0 0 197 -65 0 0 196 -65 0 0 194 -65 0 0 193 -65 0 0 198 -71 0 0 65 -65 0 0
EndChar
StartChar: V
Encoding: 86 86 54
Width: 667
Flags: W
HStem: 644 25<65.0628 88.5574 545 548>
VStem: 65 298<644 668> 523 192<644 668>
DStem: 529 484 656 604 339 182 263 -18
Fore
715 669 m 1
 715 644 l 1
 687 635 669 623 656 604 c 1
 263 -18 l 1
 231 -18 l 1
 155 491 l 1
 133 634 127 644 65 644 c 1
 65 669 l 1
 363 669 l 1
 363 644 l 1
 296 638 287 633 287 599 c 0
 287 593 287 589 288 583 c 1
 339 182 l 1
 529 484 l 2
 568 545 588 589 588 611 c 0
 588 630 576 639 548 642 c 0
 544 642 534 643 523 644 c 1
 523 669 l 1
 715 669 l 1
EndSplineSet
KernsSLIF: 121 -34 0 0 117 -47 0 0 59 -96 0 0 114 -44 0 0 46 -97 0 0 248 -81 0 0 111 -83 0 0 105 -12 0 0 45 -62 0 0 8249 -109 0 0 171 -99 0 0 103 -83 0 0 101 -87 0 0 44 -96 0 0 58 -96 0 0 230 -84 0 0 97 -76 0 0 84 7 0 0 83 -25 0 0 213 -64 0 0 216 -64 0 0 210 -64 0 0 214 -64 0 0 212 -64 0 0 211 -64 0 0 79 -64 0 0 71 -53 0 0 67 -60 0 0 195 -100 0 0 197 -100 0 0 192 -100 0 0 196 -100 0 0 194 -100 0 0 193 -100 0 0 198 -111 0 0 65 -100 0 0
EndChar
StartChar: W
Encoding: 87 87 55
Width: 889
Flags: W
HStem: -18 687<220 249 541 570>
VStem: 65 277<645 668> 400 269<645 668> 470.988 135.012<537 586> 753 187<645 668>
DStem: 471 537 482 471 321 226 249 -18 801 553 856 572 645 226 570 -18
Fore
940 669 m 1
 940 645 l 1
 898 639 884 627 856 572 c 1
 570 -18 l 1
 541 -18 l 1
 482 471 l 1
 249 -18 l 1
 220 -18 l 1
 142 561 l 1
 132 632 130 634 65 645 c 1
 65 669 l 1
 342 669 l 1
 342 644 l 1
 295 638 281 627 281 591 c 0
 281 587 281 580 282 575 c 1
 321 226 l 1
 471 537 l 1
 470 623 460 637 400 645 c 1
 400 669 l 1
 669 669 l 1
 669 644 l 1
 616 639 606 630 606 586 c 0
 606 575 606 572 612 521 c 1
 645 226 l 1
 801 553 l 2
 813 579 816 587 816 599 c 0
 816 635 809 640 753 644 c 1
 753 669 l 1
 940 669 l 1
EndSplineSet
KernsSLIF: 121 -25 0 0 117 -38 0 0 59 -79 0 0 114 -34 0 0 46 -64 0 0 248 -57 0 0 111 -58 0 0 105 -11 0 0 45 -37 0 0 8249 -84 0 0 171 -74 0 0 103 -63 0 0 101 -62 0 0 44 -62 0 0 58 -78 0 0 230 -60 0 0 97 -51 0 0 84 8 0 0 83 -24 0 0 213 -47 0 0 216 -48 0 0 210 -47 0 0 214 -47 0 0 212 -47 0 0 211 -47 0 0 79 -47 0 0 71 -41 0 0 67 -46 0 0 195 -83 0 0 197 -83 0 0 192 -83 0 0 196 -83 0 0 194 -83 0 0 193 -83 0 0 198 -87 0 0 65 -83 0 0
EndChar
StartChar: X
Encoding: 88 88 56
Width: 667
Flags: W
HStem: 0 21G<-24 190 278 586> 641 28<375.007 389.187 504 513>
VStem: -24 214<1 25> 100 305<644 668> 278 308<1 25> 491 203<644 668>
DStem: 191 581 371 458 275 309 382 421 275 309 289 264 207 235 155 116 476 520 595 583 382 421 396 378
Fore
586 25 m 1
 586 0 l 1
 278 0 l 1
 278 25 l 1
 332 30 346 38 346 63 c 0
 346 84 335 127 308 204 c 0
 295 243 293 250 289 264 c 1
 155 116 l 2
 133 92 125 78 125 65 c 0
 125 42 145 29 190 25 c 1
 190 0 l 1
 -24 0 l 1
 -24 25 l 1
 18 33 49 61 207 235 c 2
 275 309 l 1
 191 581 l 1
 175 627 160 638 100 644 c 1
 100 669 l 1
 405 669 l 1
 405 644 l 1
 391 642 380 641 375 641 c 0
 342 637 331 628 331 605 c 0
 331 591 342 549 365 476 c 0
 367 471 369 465 371 458 c 2
 382 421 l 1
 476 520 l 2
 527 574 546 600 546 618 c 0
 546 633 536 640 513 642 c 0
 509 642 501 643 491 644 c 1
 491 669 l 1
 694 669 l 1
 694 644 l 1
 658 639 639 627 595 583 c 1
 396 378 l 1
 470 141 l 2
 499 47 514 33 586 25 c 1
EndSplineSet
KernsSLIF: 121 -81 0 0 117 -21 0 0 111 -26 0 0 45 -46 0 0 101 -29 0 0 97 -9 0 0 81 -58 0 0 214 -56 0 0 79 -56 0 0 67 -58 0 0
EndChar
StartChar: Y
Encoding: 89 89 57
Width: 611
Flags: W
HStem: 0 21G<73 395> 644 25<337 355>
VStem: 73 283<644 668> 73 322<1 25> 451 208<644 668>
DStem: 234 313 378 308 174 97 326 117 492 538 568 575 363 352 378 308
Fore
234 313 m 1
 146 581 l 1
 127 634 124 637 73 644 c 1
 73 669 l 1
 356 669 l 1
 356 644 l 1
 301 643 286 635 286 607 c 0
 286 590 296 554 319 488 c 0
 322 478 329 458 338 429 c 0
 341 418 356 374 363 352 c 1
 492 538 l 2
 512 567 518 580 518 598 c 0
 518 633 504 642 451 644 c 1
 451 669 l 1
 659 669 l 1
 659 644 l 1
 621 636 602 621 568 575 c 1
 378 308 l 1
 326 117 l 2
 320 94 318 84 318 72 c 0
 318 35 330 28 395 25 c 1
 395 0 l 1
 73 0 l 1
 73 25 l 1
 142 30 156 40 174 97 c 1
 234 313 l 1
EndSplineSet
KernsSLIF: 118 -54 0 0 117 -59 0 0 59 -91 0 0 46 -69 0 0 112 -54 0 0 248 -75 0 0 111 -76 0 0 105 -12 0 0 45 -63 0 0 8249 -107 0 0 171 -97 0 0 103 -81 0 0 101 -80 0 0 44 -67 0 0 58 -91 0 0 230 -77 0 0 97 -69 0 0 84 7 0 0 83 -25 0 0 213 -61 0 0 216 -61 0 0 210 -61 0 0 214 -61 0 0 212 -61 0 0 211 -61 0 0 79 -61 0 0 71 -54 0 0 67 -59 0 0 195 -45 0 0 197 -45 0 0 192 -45 0 0 196 -45 0 0 194 -45 0 0 193 -45 0 0 198 -47 0 0 65 -45 0 0
EndChar
StartChar: Z
Encoding: 90 90 58
Width: 611
Flags: W
HStem: 0 35<157 261> 634 35<325 422>
DStem: 423 634 590 640 -11 29 156 35
Fore
554 194 m 1
 495 0 l 1
 -11 0 l 1
 -11 29 l 1
 423 634 l 1
 345 634 l 2
 235 634 172 597 93 487 c 1
 65 491 l 1
 122 669 l 1
 590 669 l 1
 590 640 l 1
 156 35 l 1
 226 35 l 2
 314 35 373 49 418 80 c 0
 458 107 496 149 527 199 c 1
 554 194 l 1
EndSplineSet
MinimumDistance: x9,-1 
KernsSLIF: 121 -39 0 0 118 -29 0 0
EndChar
StartChar: bracketleft
Encoding: 91 91 59
Width: 333
Flags: W
HStem: -159 35<107 182> 639 35<267 355>
DStem: 162 674 234 576 -37 -159 76 -100
Fore
355 639 m 1
 286 639 l 2
 250 639 248 636 234 576 c 2
 76 -100 l 2
 75 -104 79 -113 83 -117 c 0
 88 -122 96 -124 111 -124 c 2
 189 -124 l 1
 182 -159 l 1
 -37 -159 l 1
 162 674 l 1
 362 674 l 1
 355 639 l 1
EndSplineSet
MinimumDistance: x2,-1 
EndChar
StartChar: backslash
Encoding: 92 92 60
Width: 278
Flags: W
HStem: 665 20G<-1 84>
DStem: -1 685 84 685 195 -18 279 -18
Fore
-1 685 m 1
 84 685 l 1
 279 -18 l 1
 195 -18 l 1
 -1 685 l 1
EndSplineSet
EndChar
StartChar: bracketright
Encoding: 93 93 61
Width: 333
Flags: W
HStem: -157 35<-49 24> 639 35<123 200>
DStem: 229 616 343 674 71 -61 143 -157
Fore
-49 -122 m 1
 19 -122 l 2
 55 -122 57 -119 71 -61 c 1
 229 616 l 2
 232 628 216 639 194 639 c 2
 116 639 l 1
 123 674 l 1
 343 674 l 1
 143 -157 l 1
 -56 -157 l 1
 -49 -122 l 1
EndSplineSet
EndChar
StartChar: asciicircum
Encoding: 94 94 62
Width: 570
Flags: W
HStem: 649 20G<245 325>
DStem: 245 669 285 576 67 304 156 304 285 576 325 669 414 304 503 304
Fore
156 304 m 1
 67 304 l 1
 245 669 l 1
 325 669 l 1
 503 304 l 1
 414 304 l 1
 285 576 l 1
 156 304 l 1
EndSplineSet
MinimumDistance: x4,-1 
EndChar
StartChar: underscore
Encoding: 95 95 63
Width: 500
Flags: W
HStem: -125 50<1 499>
VStem: 0 500<-124 -76>
Fore
500 -125 m 1
 0 -125 l 1
 0 -75 l 1
 500 -75 l 1
 500 -125 l 1
EndSplineSet
EndChar
StartChar: grave
Encoding: 96 96 64
Width: 333
Flags: W
Fore
297 516 m 1
 252 516 l 1
 119 605 l 2
 97 620 85 637 85 652 c 0
 85 676 106 697 130 697 c 0
 149 697 170 684 186 663 c 2
 297 516 l 1
EndSplineSet
EndChar
StartChar: a
Encoding: 97 97 65
Width: 500
Flags: W
VStem: -21 123<99.9685 129>
DStem: 344 449 455 456 326 390 384 220
Fore
434 127 m 1
 455 112 l 1
 398 25 351 -14 304 -14 c 0
 267 -14 237 15 237 52 c 0
 237 66 240 80 251 119 c 1
 194 24 148 -13 87 -13 c 0
 22 -13 -21 38 -21 114 c 0
 -21 270 129 462 252 462 c 0
 295 462 317 441 326 390 c 1
 344 449 l 1
 455 456 l 1
 384 220 l 2
 360 139 350 97 350 72 c 0
 350 63 355 57 362 57 c 0
 378 57 393 72 434 127 c 1
266 420 m 0
 239 422 206 391 176 338 c 0
 135 264 102 164 102 112 c 0
 102 81 121 58 147 58 c 0
 174 58 204 85 231 133 c 0
 269 201 303 314 303 373 c 0
 303 400 288 418 266 420 c 0
EndSplineSet
MinimumDistance: x1,-1 
KernsSLIF: 121 -3 0 0 119 -5 0 0 118 -5 0 0 8217 -22 0 0 106 -2 0 0
EndChar
StartChar: b
Encoding: 98 98 66
Width: 500
Flags: W
HStem: -12.7852 32.7852<134 142>
VStem: -14 123<46 51> 319 125<323 340>
Fore
76 642 m 1
 76 669 l 1
 165 679 214 686 284 699 c 1
 194 371 l 1
 245 438 281 462 332 462 c 0
 398 462 444 411 444 338 c 0
 444 159 287 -13 124 -13 c 0
 59 -13 -14 19 -14 47 c 0
 -14 52 -3 96 6 128 c 2
 100 455 l 2
 126 546 139 599 139 612 c 0
 139 635 125 642 76 642 c 1
275 394 m 0
 242 394 210 364 184 307 c 0
 169 272 146 209 135 170 c 0
 127 138 109 56 109 47 c 0
 109 32 122 20 140 20 c 0
 183 20 222 51 256 111 c 0
 292 173 319 266 319 325 c 0
 319 371 304 394 275 394 c 0
EndSplineSet
MinimumDistance: x5,-1 
KernsSLIF: 121 -17 0 0 119 -12 0 0 118 -12 0 0
EndChar
StartChar: c
Encoding: 99 99 67
Width: 444
Flags: W
HStem: -12.9972 63.9972<148 196> 429 32.5405<267 274>
VStem: -5 128<125 147> 272.238 118.85<354 372>
Fore
318 141 m 1
 346 123 l 1
 311 73 295 54 269 32 c 0
 235 3 192 -13 148 -13 c 0
 58 -13 -5 49 -5 138 c 0
 -5 298 139 462 280 462 c 0
 346 462 392 425 392 372 c 0
 392 331 366 302 330 302 c 0
 297 302 272 324 272 354 c 0
 272 366 276 377 285 393 c 0
 291 402 293 408 293 412 c 0
 293 422 283 429 271 429 c 0
 241 429 211 405 185 358 c 0
 149 293 123 203 123 141 c 0
 123 87 153 51 196 51 c 128
 239 51 270 74 318 141 c 1
EndSplineSet
KernsSLIF: 107 -16 0 0 104 -20 0 0
EndChar
StartChar: d
Encoding: 100 100 68
Width: 500
Flags: W
VStem: -20.9818 123.847<112.125 121.972>
DStem: 341 497 517 699 323 429 406 294
Fore
427 131 m 1
 449 115 l 1
 394 27 349 -11 300 -11 c 0
 262 -11 240 12 240 51 c 0
 240 66 243 81 251 118 c 1
 194 23 148 -13 85 -13 c 0
 24 -13 -21 40 -21 112 c 0
 -21 269 129 462 251 462 c 0
 280 462 299 453 323 429 c 1
 341 497 l 1
 364 581 370 606 370 615 c 0
 370 633 355 643 329 643 c 2
 308 643 l 1
 308 670 l 1
 408 678 457 685 517 699 c 1
 406 294 l 2
 371 167 349 80 349 71 c 0
 349 65 355 59 360 59 c 0
 375 59 400 86 427 131 c 1
271 420 m 0
 241 422 205 390 173 333 c 0
 137 268 106 176 103 122 c 0
 101 87 119 59 144 59 c 0
 173 59 202 84 230 133 c 0
 264 196 308 328 308 370 c 0
 308 398 293 419 271 420 c 0
EndSplineSet
EndChar
StartChar: e
Encoding: 101 101 69
Width: 444
Flags: W
HStem: -12.9977 63.9977<156 200> 429 32.3367<277 280>
VStem: 5 130<124 147> 305.09 92.9102<375 395>
Fore
317 142 m 1
 346 125 l 1
 286 26 232 -13 156 -13 c 0
 69 -13 5 50 5 134 c 0
 5 299 149 462 293 462 c 0
 354 462 398 426 398 375 c 0
 398 340 379 302 344 270 c 0
 294 224 245 202 141 182 c 1
 137 162 135 149 135 133 c 0
 135 79 157 51 200 51 c 0
 242 51 270 73 317 142 c 1
148 214 m 1
 159 218 174 223 181 225 c 0
 258 254 306 319 306 395 c 0
 306 417 297 429 278 429 c 0
 230 429 184 352 148 214 c 1
EndSplineSet
MinimumDistance: x5,-1 
KernsSLIF: 121 -6 0 0 120 -15 0 0 119 -3 0 0 118 -3 0 0 116 -3 0 0 8217 -12 0 0
EndChar
StartChar: f
Encoding: 102 102 70
Width: 333
Flags: W
HStem: -205 31<-73 -57> 407 42<48 111 237 319> 669 29<343 349>
VStem: -169 101<-127 -118> 346 100<611 620>
Fore
328 449 m 1
 319 407 l 1
 229 407 l 1
 175 154 164 109 140 30 c 0
 107 -73 80 -126 40 -162 c 0
 9 -191 -28 -205 -70 -205 c 0
 -130 -205 -169 -174 -169 -126 c 0
 -169 -97 -145 -72 -117 -72 c 0
 -92 -72 -68 -96 -68 -120 c 0
 -68 -131 -72 -143 -80 -154 c 0
 -83 -158 -84 -161 -84 -163 c 0
 -84 -169 -76 -174 -66 -174 c 0
 -26 -174 -7 -133 24 15 c 0
 30 44 58 169 112 407 c 1
 39 407 l 1
 48 449 l 1
 121 449 l 1
 150 550 169 591 211 637 c 0
 247 676 295 698 347 698 c 0
 407 698 446 667 446 618 c 0
 446 587 425 565 395 565 c 0
 368 565 346 587 346 614 c 0
 346 624 349 633 357 645 c 0
 361 651 362 654 362 656 c 0
 362 664 355 669 345 669 c 0
 310 669 279 619 254 520 c 2
 236 449 l 1
 328 449 l 1
EndSplineSet
KernsSLIF: 116 9 0 0 115 -14 0 0 8217 12 0 0 248 -29 0 0 339 -35 0 0 246 20 0 0 243 -31 0 0 111 -30 0 0 108 43 0 0 106 12 0 0 105 20 0 0 102 2 0 0 233 -36 0 0 101 -35 0 0 229 -20 0 0 230 -32 0 0 228 17 0 0 225 -24 0 0 97 -23 0 0
EndChar
StartChar: g
Encoding: 103 103 71
Width: 500
Flags: W
HStem: -203 34<135 156> 153 31<188 204> 373 56<412 477> 431 31<252 259>
VStem: -52 87<-101 -89> 35 116.004<243 280> 265.994 109.006<-100 -53> 300 116.999<331 372> 300 178<373 385.198>
Fore
478 429 m 1
 478 373 l 1
 411 373 l 1
 416 357 417 347 417 331 c 0
 417 271 386 220 328 187 c 0
 289 165 245 153 201 153 c 0
 190 153 181 154 170 157 c 0
 162 160 155 161 150 161 c 0
 137 161 122 141 122 125 c 0
 122 110 141 96 173 87 c 2
 226 72 l 2
 335 41 375 7 375 -53 c 0
 375 -141 276 -203 136 -203 c 0
 21 -203 -52 -162 -52 -97 c 0
 -52 -73 -41 -49 -24 -35 c 0
 -1 -16 19 -8 81 7 c 1
 37 22 19 42 19 73 c 0
 19 110 34 124 115 170 c 1
 61 193 35 229 35 280 c 0
 35 381 134 462 257 462 c 0
 303 462 334 453 367 429 c 1
 478 429 l 1
115 -6 m 0
 108 -5 77 -23 65 -35 c 0
 44 -55 35 -71 35 -91 c 0
 35 -137 81 -169 146 -169 c 0
 222 -169 266 -143 266 -100 c 0
 266 -74 253 -56 225 -43 c 0
 205 -33 126 -7 115 -6 c 0
255 431 m 0
 229 431 208 415 189 382 c 0
 168 344 151 283 151 243 c 0
 151 205 166 184 194 184 c 0
 224 184 249 206 271 252 c 0
 288 288 300 338 300 372 c 128
 300 406 281 431 255 431 c 0
EndSplineSet
MinimumDistance: x0,-1 
KernsSLIF: 114 3 0 0 246 -27 0 0 243 -27 0 0 108 -21 0 0 233 -32 0 0 101 -32 0 0 229 -25 0 0 230 -34 0 0 228 -25 0 0 97 -25 0 0
EndChar
StartChar: h
Encoding: 104 104 72
Width: 556
Flags: W
HStem: 0 21G<-13 108>
VStem: 352.006 122.009<369 387>
Fore
476 142 m 1
 498 127 l 1
 432 24 392 -9 331 -9 c 0
 292 -9 265 15 265 49 c 0
 265 90 278 140 326 280 c 0
 330 290 333 301 337 313 c 0
 344 333 348 344 348 346 c 0
 351 355 353 363 353 369 c 0
 353 380 343 390 331 390 c 0
 305 390 272 361 230 301 c 0
 180 228 159 178 108 0 c 1
 -13 0 l 1
 141 567 l 2
 146 586 149 601 149 610 c 0
 149 632 135 643 108 643 c 0
 103 643 94 643 86 642 c 1
 86 669 l 1
 167 676 217 684 294 699 c 1
 187 283 l 1
 243 363 267 393 298 419 c 0
 334 449 363 462 399 462 c 0
 446 462 475 434 475 387 c 0
 475 368 464 326 445 265 c 1
 387 87 l 2
 384 78 384 77 384 75 c 0
 384 68 394 59 401 59 c 0
 414 59 433 80 476 142 c 1
EndSplineSet
KernsSLIF: 121 -20 0 0 8217 -32 0 0
EndChar
StartChar: i
Encoding: 105 105 73
Width: 278
Flags: W
HStem: 550 135<183.109 204>
VStem: 128 135<615 621>
DStem: 73 338 223 462 15 123 132 128
Fore
216 141 m 1
 238 127 l 1
 168 22 131 -9 71 -9 c 0
 30 -9 2 17 2 54 c 0
 2 67 7 95 15 123 c 1
 73 338 l 1
 77 355 80 370 80 378 c 0
 80 399 64 407 21 407 c 1
 21 434 l 1
 99 440 169 450 223 462 c 1
 132 128 l 2
 129 116 123 82 123 76 c 0
 123 68 130 61 138 61 c 0
 153 61 176 82 202 121 c 2
 216 141 l 1
194 685 m 0
 231 685 263 654 263 617 c 0
 263 580 232 550 194 550 c 0
 157 550 128 580 128 619 c 0
 128 654 159 685 194 685 c 0
EndSplineSet
MinimumDistance: x15,-1 
KernsSLIF: 106 -5 0 0 84 -20 0 0
EndChar
StartChar: j
Encoding: 106 106 74
Width: 278
Flags: W
HStem: -207 31<-89 -77> 550 135<199.109 212>
VStem: -189 98<-131 -124> 144 135<609 625>
DStem: 81 310 239 462 -11 -45 125 24
Fore
31 407 m 1
 31 434 l 1
 143 444 180 449 239 462 c 1
 125 24 l 2
 85 -131 16 -207 -84 -207 c 0
 -146 -207 -189 -176 -189 -130 c 0
 -189 -101 -166 -77 -140 -77 c 0
 -113 -77 -91 -99 -91 -126 c 0
 -91 -137 -93 -142 -104 -158 c 0
 -105 -160 -106 -162 -106 -164 c 0
 -106 -169 -93 -176 -82 -176 c 0
 -54 -176 -37 -145 -11 -45 c 2
 81 310 l 1
 88 339 93 364 93 376 c 0
 93 402 81 407 31 407 c 1
210 685 m 0
 248 685 279 654 279 617 c 128
 279 580 248 550 210 550 c 0
 173 550 144 580 144 619 c 0
 144 654 175 685 210 685 c 0
EndSplineSet
EndChar
StartChar: k
Encoding: 107 107 75
Width: 500
Flags: W
HStem: -7.99557 70.9956<311 363> 0 21G<-23 99>
VStem: 276 207<424 448>
DStem: 133 567 286 699 -23 0 163 239 133 567 149 188 -23 0 99 0
Fore
149 188 m 1
 99 0 l 1
 -23 0 l 1
 133 567 l 2
 138 586 141 600 141 609 c 0
 141 632 127 643 99 643 c 0
 95 643 86 643 78 642 c 1
 78 669 l 1
 157 677 209 685 286 699 c 1
 163 239 l 1
 289 338 327 375 327 401 c 0
 327 417 315 422 276 424 c 1
 276 449 l 1
 483 449 l 1
 483 424 l 1
 437 418 416 406 348 348 c 2
 285 293 l 1
 323 98 335 63 363 63 c 0
 382 63 398 80 425 127 c 1
 447 116 l 1
 397 25 361 -8 311 -8 c 0
 249 -8 219 45 188 215 c 1
 149 188 l 1
EndSplineSet
MinimumDistance: x13,-1 
KernsSLIF: 252 2 0 0 117 2 0 0 115 1 0 0 46 17 0 0 246 1 0 0 243 1 0 0 111 1 0 0 45 1 0 0 103 -14 0 0 233 -2 0 0 101 -2 0 0 44 19 0 0 229 10 0 0 230 2 0 0 228 10 0 0 225 10 0 0 97 10 0 0
EndChar
StartChar: l
Encoding: 108 108 76
Width: 278
Flags: W
DStem: 110 473 290 699 36 209 145 176
Fore
216 141 m 1
 238 127 l 1
 169 22 131 -9 69 -9 c 0
 29 -9 2 15 2 51 c 0
 2 75 14 133 36 209 c 1
 110 473 l 1
 130 540 144 602 144 615 c 0
 144 633 129 643 102 643 c 0
 98 643 92 643 81 642 c 1
 81 669 l 1
 156 676 204 682 290 699 c 1
 145 176 l 1
 131 124 123 90 123 76 c 0
 123 68 130 61 138 61 c 0
 155 61 176 82 216 141 c 1
EndSplineSet
KernsSLIF: 121 -8 0 0 118 -12 0 0
EndChar
StartChar: m
Encoding: 109 109 77
Width: 778
Flags: W
HStem: 0 21G<-14 107 227 347>
DStem: 576 338 681 284 531 207 636 151
Fore
34 407 m 1
 34 434 l 1
 149 443 170 446 234 461 c 1
 170 262 l 1
 235 362 265 400 302 428 c 1
 330 451 360 462 388 462 c 0
 430 462 455 436 455 394 c 0
 455 366 448 340 429 290 c 1
 513 422 559 462 627 462 c 0
 671 462 704 431 704 391 c 0
 704 365 696 327 681 284 c 1
 636 151 l 1
 615 84 615 84 615 73 c 0
 615 66 622 59 631 59 c 0
 644 59 665 81 688 117 c 0
 690 120 695 127 700 135 c 1
 722 122 l 1
 664 24 624 -9 562 -9 c 0
 519 -9 495 13 495 54 c 0
 495 82 509 144 531 207 c 2
 576 338 l 1
 580 351 583 362 583 368 c 0
 583 379 572 389 560 389 c 0
 530 389 490 347 448 273 c 0
 412 210 406 192 347 0 c 1
 227 0 l 1
 292 207 l 1
 325 309 337 351 337 366 c 0
 337 379 328 389 318 389 c 0
 305 389 276 368 254 343 c 0
 198 276 160 190 107 0 c 1
 -14 0 l 1
 53 238 l 2
 80 333 88 367 88 381 c 0
 88 399 74 407 42 407 c 2
 34 407 l 1
EndSplineSet
MinimumDistance: x10,-1 
KernsSLIF: 121 -16 0 0 119 -16 0 0 118 -16 0 0 112 -1 0 0
EndChar
StartChar: n
Encoding: 110 110 78
Width: 556
Flags: W
HStem: 0 21G<-6 115>
VStem: 353.957 120.043<369 387>
DStem: 349 348 448 272 294 182 412 163
Fore
471 135 m 1
 493 122 l 1
 435 25 393 -9 334 -9 c 0
 292 -9 266 14 266 51 c 0
 266 77 278 134 294 182 c 2
 349 348 l 2
 352 358 354 366 354 369 c 0
 354 379 341 390 329 390 c 0
 311 390 280 368 260 341 c 0
 198 260 162 173 115 0 c 1
 -6 0 l 1
 23 108 l 1
 50 204 l 2
 84 324 96 371 96 382 c 0
 96 401 84 406 42 407 c 1
 42 434 l 1
 98 436 178 447 242 461 c 1
 178 263 l 1
 245 362 264 386 300 421 c 0
 328 447 364 462 401 462 c 0
 448 462 474 435 474 387 c 0
 474 363 464 318 448 272 c 1
 412 163 l 2
 394 109 387 86 387 76 c 128
 387 66 393 59 401 59 c 0
 418 59 431 73 471 135 c 1
EndSplineSet
MinimumDistance: x20,-1 
KernsSLIF: 121 -20 0 0 119 -20 0 0 118 -20 0 0 8217 -32 0 0 112 -4 0 0 84 -59 0 0
EndChar
StartChar: o
Encoding: 111 111 79
Width: 500
Flags: W
HStem: -13 29<155 173> 433 29<269 285>
VStem: -3 119.002<78 135> 322 118.997<311 375>
Fore
284 462 m 0
 375 462 441 399 441 311 c 0
 441 142 305 -13 156 -13 c 0
 64 -13 -3 50 -3 135 c 0
 -3 303 137 462 284 462 c 0
275 433 m 0
 243 433 214 410 188 364 c 0
 153 302 116 156 116 78 c 0
 116 40 135 16 165 16 c 0
 200 16 230 45 259 107 c 0
 291 177 322 307 322 375 c 0
 322 411 304 433 275 433 c 0
EndSplineSet
KernsSLIF: 121 -29 0 0 120 -26 0 0 119 -21 0 0 118 -21 0 0 116 -2 0 0 8217 -22 0 0 84 -75 0 0
EndChar
StartChar: p
Encoding: 112 112 80
Width: 500
Flags: W
HStem: -205 27<-119 -104 112 128> -12.0305 34.0648<152 169>
VStem: -120 249<-204 -178> 321.176 124.824<334.028 341>
Fore
23 407 m 1
 23 434 l 1
 75 440 114 446 216 462 c 1
 178 347 l 1
 237 430 281 462 338 462 c 0
 404 462 446 415 446 341 c 0
 446 168 304 -13 169 -13 c 0
 148 -13 136 -9 101 9 c 1
 98 -4 l 1
 90 -32 l 1
 72 -100 64 -133 64 -145 c 0
 64 -169 80 -177 129 -178 c 1
 129 -205 l 1
 -120 -205 l 1
 -120 -178 l 1
 -114 -178 l 2
 -73 -178 -61 -165 -45 -104 c 2
 55 284 l 1
 68 333 77 373 77 382 c 0
 77 401 68 405 23 407 c 1
282 391 m 0
 256 393 223 368 198 329 c 0
 182 305 172 277 148 195 c 0
 121 104 113 74 113 58 c 0
 113 38 130 22 152 22 c 0
 185 22 218 50 249 104 c 0
 285 169 317 269 321 334 c 0
 323 366 308 389 282 391 c 0
EndSplineSet
MinimumDistance: x5,-1 
KernsSLIF: 121 -13 0 0 116 -2 0 0
EndChar
StartChar: q
Encoding: 113 113 81
Width: 500
Flags: W
HStem: -205 27<346 370>
VStem: 1 125<100 135> 104 267<-204 -178>
Fore
371 -178 m 1
 371 -205 l 1
 104 -205 l 1
 104 -178 l 1
 166 -175 177 -167 194 -115 c 1
 257 98 l 1
 205 16 165 -13 105 -13 c 0
 41 -13 1 37 1 117 c 0
 1 172 19 231 53 292 c 0
 112 394 200 462 276 462 c 0
 299 462 320 454 330 440 c 0
 339 429 342 418 347 390 c 1
 362 449 l 1
 471 449 l 1
 429 294 410 223 386 145 c 0
 344 5 306 -134 306 -150 c 0
 306 -170 321 -178 357 -178 c 2
 371 -178 l 1
290 419 m 0
 262 421 227 390 195 334 c 0
 155 262 126 172 126 116 c 0
 126 78 139 59 165 59 c 0
 196 59 225 83 253 133 c 0
 288 195 325 318 325 371 c 0
 325 399 312 417 290 419 c 0
EndSplineSet
MinimumDistance: x0,-1 
KernsSLIF: 117 -5 0 0 99 -6 0 0
EndChar
StartChar: r
Encoding: 114 114 82
Width: 389
Flags: W
HStem: 0 21G<-21 100> 323 139<329 334>
Fore
27 407 m 1
 27 434 l 1
 148 444 167 447 227 462 c 1
 161 253 l 1
 240 411 281 462 332 462 c 0
 366 462 389 436 389 396 c 0
 389 354 364 323 330 323 c 0
 314 323 301 331 286 348 c 0
 279 357 274 361 270 361 c 0
 257 361 235 336 209 291 c 0
 180 243 165 205 133 104 c 0
 129 89 115 46 100 0 c 1
 -21 0 l 1
 47 229 81 357 81 382 c 0
 81 401 72 405 27 407 c 1
EndSplineSet
KernsSLIF: 122 10 0 0 121 20 0 0 120 7 0 0 119 20 0 0 118 20 0 0 117 11 0 0 116 12 0 0 59 -30 0 0 115 1 0 0 114 14 0 0 113 -19 0 0 46 -69 0 0 112 16 0 0 248 -12 0 0 242 -15 0 0 339 -19 0 0 246 -15 0 0 244 -15 0 0 243 -15 0 0 111 -15 0 0 110 6 0 0 109 10 0 0 108 -12 0 0 107 -11 0 0 106 12 0 0 105 17 0 0 45 -13 0 0 104 -16 0 0 103 -4 0 0 102 8 0 0 232 -20 0 0 234 -20 0 0 233 -20 0 0 101 -20 0 0 100 -14 0 0 44 -67 0 0 58 -30 0 0 231 -8 0 0 99 -15 0 0 229 -13 0 0 224 -13 0 0 230 -22 0 0 228 -13 0 0 226 -13 0 0 225 -13 0 0 97 -13 0 0
EndChar
StartChar: s
Encoding: 115 115 83
Width: 389
Flags: W
HStem: -13 30<125 133> 429 32.9762<184 198>
VStem: 47.0031 94.9969<336 376> 182.99 96.0095<71 119>
Fore
333 461 m 1
 310 308 l 1
 283 310 l 1
 267 393 241 429 195 429 c 0
 163 429 142 408 142 376 c 0
 142 354 160 323 198 278 c 0
 254 213 279 164 279 119 c 0
 279 44 215 -13 131 -13 c 0
 111 -13 92 -9 68 -1 c 0
 55 4 44 7 37 7 c 0
 24 7 12 -1 8 -13 c 1
 -19 -13 l 1
 3 153 l 1
 30 150 l 1
 38 96 46 73 66 48 c 0
 82 28 103 17 126 17 c 0
 158 17 183 41 183 71 c 0
 183 96 165 130 127 175 c 0
 61 253 47 282 47 336 c 0
 47 412 100 462 181 462 c 0
 201 462 214 459 239 449 c 0
 257 442 266 440 275 440 c 0
 290 440 293 442 304 461 c 1
 333 461 l 1
EndSplineSet
MinimumDistance: x6,-1 
KernsSLIF: 116 -6 0 0 8217 -22 0 0
EndChar
StartChar: t
Encoding: 116 116 84
Width: 278
Flags: W
HStem: 407 42<210 280>
VStem: 30 251<407 442>
DStem: 81 407 198 407 13 169 165 289
Fore
281 449 m 1
 281 407 l 1
 198 407 l 1
 165 289 l 1
 129 167 111 94 111 76 c 0
 111 69 119 61 127 61 c 0
 143 61 169 88 203 141 c 1
 225 127 l 1
 159 24 119 -9 59 -9 c 0
 17 -9 -11 17 -11 56 c 0
 -11 73 -1 118 13 169 c 1
 81 407 l 1
 30 407 l 1
 30 442 l 1
 109 472 159 513 213 594 c 1
 248 594 l 1
 209 449 l 1
 281 449 l 1
EndSplineSet
KernsSLIF: 59 -23 0 0 8217 -19 0 0 246 1 0 0 243 1 0 0 111 1 0 0 104 -5 0 0 233 -2 0 0 101 -2 0 0 58 -22 0 0 229 10 0 0 230 2 0 0 228 10 0 0 225 10 0 0 97 10 0 0 83 -11 0 0
EndChar
StartChar: u
Encoding: 117 117 85
Width: 556
Flags: W
VStem: 15.004 118.996<65 88>
DStem: 76 306 243 462 36 173 149 154
Fore
471 133 m 1
 492 120 l 1
 440 31 391 -9 331 -9 c 0
 287 -9 266 11 266 51 c 0
 266 79 272 106 290 161 c 1
 187 17 157 -9 90 -9 c 0
 41 -9 15 16 15 65 c 0
 15 89 22 125 36 173 c 1
 76 306 l 2
 85 335 90 363 90 379 c 0
 90 399 80 404 34 407 c 1
 34 434 l 1
 82 436 141 444 215 457 c 0
 231 460 237 461 243 462 c 1
 149 154 l 2
 136 111 134 103 134 88 c 0
 134 71 141 63 155 63 c 0
 175 63 197 80 228 118 c 0
 285 190 314 256 370 449 c 1
 488 449 l 1
 410 181 l 1
 385 86 385 86 385 76 c 0
 385 67 391 59 399 59 c 0
 416 59 436 80 471 133 c 1
EndSplineSet
MinimumDistance: x13,-1 
KernsSLIF: 8217 -33 0 0
EndChar
StartChar: v
Encoding: 118 118 86
Width: 444
Flags: W
VStem: 90 112<129 166> 284 117<394 406>
Fore
16 407 m 1
 16 434 l 1
 99 446 122 450 171 462 c 1
 192 382 198 324 202 128 c 1
 301 240 328 281 328 316 c 0
 328 326 323 336 308 353 c 0
 291 373 284 387 284 404 c 0
 284 434 311 462 340 462 c 0
 371 462 401 430 401 395 c 0
 401 353 380 299 340 241 c 0
 285 161 238 108 111 -13 c 1
 85 -13 l 1
 89 123 l 1
 90 144 90 160 90 164 c 0
 90 271 79 359 62 391 c 0
 56 404 47 407 16 407 c 1
EndSplineSet
MinimumDistance: x8,-1 
KernsSLIF: 59 -51 0 0 115 -19 0 0 46 -51 0 0 248 -22 0 0 242 -24 0 0 246 -24 0 0 243 -24 0 0 111 -24 0 0 108 -24 0 0 45 -1 0 0 103 -20 0 0 232 -28 0 0 234 -28 0 0 233 -28 0 0 101 -28 0 0 44 -51 0 0 58 -51 0 0 99 -24 0 0 227 -20 0 0 229 -20 0 0 224 -20 0 0 230 -28 0 0 228 -20 0 0 226 -20 0 0 225 -20 0 0 97 -20 0 0
EndChar
StartChar: w
Encoding: 119 119 87
Width: 667
Flags: W
HStem: 442 20G<360 387>
VStem: 497 117<398 409>
DStem: 360 462 292 272 204 187 273 237
Fore
16 407 m 1
 16 434 l 1
 99 448 130 453 171 462 c 1
 194 376 201 312 204 187 c 1
 360 462 l 1
 387 462 l 1
 419 130 l 1
 508 235 538 281 538 311 c 0
 538 321 532 334 518 353 c 0
 503 374 497 388 497 402 c 0
 497 434 523 462 553 462 c 0
 585 462 614 433 614 400 c 0
 614 316 527 183 342 -13 c 1
 315 -13 l 1
 292 272 l 1
 273 237 l 2
 229 158 185 81 179 73 c 2
 122 -13 l 1
 95 -13 l 1
 96 32 l 1
 97 67 97 68 97 72 c 1
 95 150 l 1
 92 288 78 381 58 399 c 0
 50 406 41 407 16 407 c 1
EndSplineSet
MinimumDistance: x11,-1 
KernsSLIF: 59 -56 0 0 115 -24 0 0 46 -53 0 0 248 -28 0 0 242 -30 0 0 246 -30 0 0 243 -30 0 0 111 -30 0 0 108 -28 0 0 45 -7 0 0 103 -26 0 0 232 -34 0 0 234 -34 0 0 233 -34 0 0 101 -34 0 0 44 -53 0 0 58 -56 0 0 99 -30 0 0 227 -24 0 0 229 -24 0 0 224 -24 0 0 230 -32 0 0 228 -24 0 0 226 -24 0 0 225 -24 0 0 97 -24 0 0
EndChar
StartChar: x
Encoding: 120 120 88
Width: 500
Flags: W
HStem: -13 115<8 19> 348 114<410 420>
DStem: 162 192 173 142 118 122 149 103
Fore
400 123 m 1
 421 109 l 1
 360 21 318 -13 270 -13 c 0
 250 -13 230 -3 218 13 c 0
 196 41 188 67 173 142 c 1
 149 103 l 2
 91 7 68 -13 18 -13 c 0
 -20 -13 -46 11 -46 46 c 0
 -46 77 -22 102 9 102 c 0
 21 102 33 98 49 89 c 0
 59 83 64 81 70 81 c 0
 87 81 98 90 118 122 c 2
 162 192 l 1
 132 346 l 1
 122 395 108 413 76 413 c 0
 67 413 62 413 41 411 c 1
 41 438 l 1
 208 462 l 1
 227 434 235 409 253 324 c 1
 333 435 364 462 411 462 c 0
 441 462 469 433 469 400 c 0
 469 372 443 348 413 348 c 0
 402 348 395 350 381 359 c 0
 369 365 362 368 356 368 c 0
 333 368 308 344 273 286 c 0
 268 278 267 277 264 273 c 1
 296 117 l 2
 304 79 314 64 333 64 c 0
 351 64 361 73 400 123 c 1
EndSplineSet
MinimumDistance: x4,-1 
KernsSLIF: 113 -12 0 0 111 -11 0 0 233 -14 0 0 101 -14 0 0 99 -10 0 0 97 -1 0 0
EndChar
StartChar: y
Encoding: 121 121 89
Width: 444
Flags: W
HStem: -205 115<-43 -33>
VStem: 273 119<397 408>
Fore
14 411 m 1
 14 438 l 1
 79 444 115 450 163 462 c 1
 181 415 207 303 229 185 c 1
 241 110 l 1
 310 243 328 285 328 315 c 0
 328 328 322 336 304 350 c 0
 280 368 273 380 273 404 c 0
 273 435 300 462 330 462 c 0
 363 462 392 432 392 398 c 0
 392 297 273 60 143 -99 c 0
 88 -165 23 -205 -32 -205 c 0
 -67 -205 -94 -178 -94 -145 c 0
 -94 -116 -70 -90 -44 -90 c 0
 -26 -90 -1 -99 16 -111 c 0
 24 -118 43 -125 50 -125 c 0
 67 -125 94 -104 115 -76 c 0
 133 -51 142 -27 142 -4 c 0
 142 27 125 124 92 284 c 0
 77 355 61 396 44 406 c 0
 37 410 32 411 14 411 c 1
EndSplineSet
MinimumDistance: x9,-1 
KernsSLIF: 59 -44 0 0 115 -13 0 0 46 -26 0 0 248 -17 0 0 242 -19 0 0 246 -19 0 0 243 -19 0 0 111 -17 0 0 108 -16 0 0 45 2 0 0 103 -23 0 0 232 -23 0 0 234 -23 0 0 233 -23 0 0 101 -22 0 0 44 -25 0 0 58 -43 0 0 99 -17 0 0 227 -12 0 0 229 -12 0 0 224 -12 0 0 230 -19 0 0 228 -12 0 0 226 -12 0 0 225 -12 0 0 97 -11 0 0
EndChar
StartChar: z
Encoding: 122 122 90
Width: 389
Flags: W
HStem: -78 29<237 248> 353 96<101 248>
VStem: 243 103<5 18>
DStem: 249 353 368 439 -43 -1 87 104
Fore
13 295 m 1
 56 449 l 1
 368 449 l 1
 368 439 l 1
 87 104 l 1
 138 82 162 59 194 -2 c 0
 211 -37 223 -49 241 -49 c 0
 253 -49 263 -42 263 -33 c 0
 263 -30 261 -25 256 -18 c 0
 247 -6 243 2 243 13 c 0
 243 41 266 65 293 65 c 0
 321 65 346 41 346 13 c 0
 346 -38 299 -78 238 -78 c 0
 198 -78 161 -64 107 -28 c 0
 72 -4 52 5 34 5 c 0
 23 5 16 2 1 -9 c 0
 -2 -12 -10 -17 -18 -23 c 1
 -43 -1 l 1
 249 353 l 1
 104 353 l 2
 74 353 58 338 41 292 c 1
 13 295 l 1
EndSplineSet
MinimumDistance: x2,-1 
EndChar
StartChar: braceleft
Encoding: 123 123 91
Width: 348
Flags: W
VStem: 28 104<-107 -91> 89 102<165 181>
DStem: 188 544 295 550 142 365 250 379
Fore
436 686 m 1
 433 674 l 1
 352 659 315 626 295 550 c 2
 250 379 l 1
 227 294 197 268 99 249 c 1
 174 229 191 215 191 173 c 0
 191 150 181 103 162 43 c 0
 143 -20 132 -71 132 -97 c 0
 132 -143 154 -164 213 -175 c 1
 210 -187 l 1
 117 -185 78 -177 53 -156 c 0
 36 -141 28 -122 28 -96 c 0
 28 -67 44 8 63 63 c 0
 79 111 89 155 89 179 c 0
 89 214 67 233 5 249 c 1
 94 268 122 293 142 365 c 1
 188 544 l 1
 219 653 277 686 436 686 c 1
EndSplineSet
MinimumDistance: x2,-1 
EndChar
StartChar: bar
Encoding: 124 124 92
Width: 220
Flags: W
HStem: -18 703<67 153>
VStem: 66 88<-17 684>
Fore
66 -18 m 1
 66 685 l 1
 154 685 l 1
 154 -18 l 1
 66 -18 l 1
EndSplineSet
MinimumDistance: x2,-1 
EndChar
StartChar: braceright
Encoding: 125 125 93
Width: 348
Flags: W
VStem: 116 102<319 328> 175 104<581.535 600>
DStem: 57 120 165 134 12 -51 119 -45
Fore
-129 -187 m 1
 -126 -175 l 1
 -45 -160 -8 -127 12 -51 c 2
 57 120 l 1
 80 205 110 231 208 250 c 1
 133 270 116 284 116 326 c 0
 116 348 125 390 144 456 c 0
 165 526 175 572 175 597 c 0
 175 641 151 663 94 674 c 1
 97 686 l 1
 190 684 229 676 254 655 c 0
 271 640 279 621 279 598 c 0
 279 567 263 493 244 436 c 0
 228 388 218 344 218 320 c 0
 218 285 240 266 302 250 c 1
 213 230 185 206 165 134 c 1
 119 -45 l 1
 88 -154 30 -187 -129 -187 c 1
EndSplineSet
MinimumDistance: x11,-1 
EndChar
StartChar: asciitilde
Encoding: 126 126 94
Width: 570
Flags: W
HStem: 175 88<390 395> 243 88<166 182>
Fore
461 308 m 1
 516 260 l 1
 470 197 439 175 393 175 c 0
 360 175 334 183 288 208 c 128
 242 233 211 243 176 243 c 0
 147 243 131 233 107 201 c 1
 54 247 l 1
 87 305 125 331 175 331 c 0
 212 331 233 324 311 290 c 0
 360 268 375 263 393 263 c 0
 416 263 436 276 461 308 c 1
EndSplineSet
EndChar
StartChar: exclamdown
Encoding: 161 161 95
Width: 389
Flags: W
HStem: 348 146<243 259>
VStem: 174 146<419 425>
Fore
193 275 m 1
 222 267 l 1
 192 114 173 -11 169 -86 c 0
 167 -128 165 -141 157 -159 c 0
 143 -188 118 -205 88 -205 c 0
 47 -205 19 -176 19 -131 c 0
 19 -105 24 -89 50 -43 c 1
 106 66 151 167 193 275 c 1
248 494 m 0
 290 494 320 464 320 423 c 0
 320 381 288 348 247 348 c 0
 209 348 174 383 174 423 c 128
 174 463 207 494 248 494 c 0
EndSplineSet
MinimumDistance: x8,-1 
EndChar
StartChar: cent
Encoding: 162 162 96
Width: 500
Flags: W
HStem: 429 32.5493<314 319>
VStem: 42 127<137 161>
DStem: 190 -13 225 -10 144 -143 178 -143 339 413 339 313 214 57 247 52 396 576 431 576 355 459 386 449
Fore
431 576 m 1
 386 449 l 1
 422 429 439 404 439 370 c 0
 439 331 411 302 374 302 c 0
 360 302 349 306 339 313 c 1
 247 52 l 1
 289 54 324 81 365 141 c 1
 392 123 l 1
 329 33 292 3 225 -10 c 1
 178 -143 l 1
 144 -143 l 1
 190 -13 l 1
 96 -7 42 48 42 138 c 0
 42 299 185 462 327 462 c 0
 336 462 343 461 355 459 c 1
 396 576 l 1
 431 576 l 1
214 57 m 1
 339 413 l 2
 342 421 330 429 317 429 c 0
 286 429 259 406 231 356 c 0
 195 293 169 204 169 147 c 0
 169 130 173 108 180 92 c 128
 187 76 194 68 214 57 c 1
EndSplineSet
MinimumDistance: x0,-1 
EndChar
StartChar: sterling
Encoding: 163 163 97
Width: 500
Flags: W
HStem: -11.9962 103.996<283 319> -11 30<44 64> 120 41.0359<48 60> 310 60<45 143 281 384> 524 158.987<401 449> 648.746 33.3517<379 401>
VStem: -32 30<68 77> 396.148 112.933<575 592>
Fore
394 370 m 1
 384 310 l 1
 269 310 l 1
 256 252 231 184 205 141 c 2
 194 124 l 1
 254 101 287 92 319 92 c 0
 367 92 387 106 409 155 c 1
 434 155 l 1
 422 98 411 71 390 43 c 0
 365 8 325 -12 283 -12 c 128
 241 -12 208 4 156 49 c 1
 129 6 101 -11 58 -11 c 0
 5 -11 -32 25 -32 75 c 0
 -32 127 7 162 64 162 c 0
 85 162 100 159 125 148 c 1
 132 215 134 226 144 310 c 1
 35 310 l 1
 45 370 l 1
 150 370 l 1
 175 494 199 551 248 607 c 0
 290 656 344 683 401 683 c 0
 464 683 510 644 510 592 c 0
 510 554 483 524 449 524 c 0
 419 524 396 546 396 575 c 0
 396 585 398 597 400 609 c 0
 402 616 403 623 403 628 c 0
 403 640 393 649 379 649 c 0
 350 649 329 622 319 572 c 1
 280 370 l 1
 394 370 l 1
113 90 m 1
 91 111 71 120 49 120 c 0
 18 120 -2 100 -2 70 c 128
 -2 40 21 19 54 19 c 0
 84 19 102 41 113 90 c 1
EndSplineSet
EndChar
StartChar: currency
Encoding: 164 164 98
Width: 500
Flags: W
HStem: 95 82<246 262> 443 82<246 262>
VStem: 35 88<306 322> 377 88<291.793 322>
DStem: -26 530 32 586 72 432 128 490 72 190 128 132 -26 92 32 34 372 132 428 190 468 34 526 92 468 586 526 530 372 490 428 432
Fore
-26 92 m 1
 72 190 l 1
 46 228 35 263 35 310 c 0
 35 356 46 393 72 432 c 1
 -26 530 l 1
 32 586 l 1
 128 490 l 1
 168 515 204 525 250 525 c 128
 296 525 332 515 372 490 c 1
 468 586 l 1
 526 530 l 1
 428 432 l 1
 455 389 465 356 465 310 c 0
 465 263 454 226 428 190 c 1
 526 92 l 1
 468 34 l 1
 372 132 l 1
 331 106 294 95 250 95 c 128
 206 95 169 106 128 132 c 1
 32 34 l 1
 -26 92 l 1
250 443 m 0
 179 443 123 385 123 310 c 0
 123 236 179 177 250 177 c 0
 319 177 377 237 377 308 c 0
 377 383 321 443 250 443 c 0
EndSplineSet
EndChar
StartChar: yen
Encoding: 165 165 99
Width: 500
Flags: W
HStem: 0 21G<46 368> 164 50<47 173 321 458> 292 50<82 206 370 491> 649 20G<46 326 428 628>
VStem: 46 280<644 668> 46 322<1 25> 428 200<644 668>
DStem: 82 342 341 292 68 292 320 214 128 581 257 580 207 342 337 344 210 292 341 292 188 214 320 214 472 538 535 575 337 344 369 342
Fore
504 342 m 1
 491 292 l 1
 341 292 l 1
 320 214 l 1
 472 214 l 1
 458 164 l 1
 306 164 l 1
 303 153 l 2
 291 110 287 87 287 68 c 0
 287 36 301 28 368 25 c 1
 368 0 l 1
 46 0 l 1
 46 25 l 1
 123 30 137 40 155 97 c 1
 174 164 l 1
 33 164 l 1
 47 214 l 1
 188 214 l 1
 210 292 l 1
 68 292 l 1
 82 342 l 1
 207 342 l 1
 128 581 l 1
 108 632 101 638 46 644 c 1
 46 669 l 1
 326 669 l 1
 326 644 l 1
 269 642 251 635 251 612 c 0
 251 603 253 592 257 580 c 2
 337 344 l 1
 472 538 l 2
 492 567 498 580 498 598 c 0
 498 633 484 642 428 644 c 1
 428 669 l 1
 628 669 l 1
 628 644 l 1
 588 636 569 621 535 575 c 1
 369 342 l 1
 504 342 l 1
EndSplineSet
EndChar
StartChar: brokenbar
Encoding: 166 166 100
Width: 220
Flags: W
HStem: -18 259<67 153> 426 259<67 153>
VStem: 66 88<-17 240 427 684>
Fore
66 -18 m 1
 66 241 l 1
 154 241 l 1
 154 -18 l 1
 66 -18 l 1
66 426 m 1
 66 685 l 1
 154 685 l 1
 154 426 l 1
 66 426 l 1
EndSplineSet
MinimumDistance: x2,-1 
EndChar
StartChar: section
Encoding: 167 167 101
Width: 500
Flags: W
HStem: -143 23<167 197> 121.842 26.1576<304 308> 399.081 25.243<172 195> 663 22<308 325>
VStem: 36 114<-39 -27> 68.0033 70.9967<299 342> 168.003 69.9966<551 590> 267.996 77.0038<-44 -9> 346 113<577 589> 363.992 71.0081<206 243>
Fore
288 125 m 1
 286 121 l 1
 329 67 345 33 345 -9 c 0
 345 -84 273 -143 181 -143 c 0
 99 -143 36 -97 36 -38 c 0
 36 -3 61 22 94 22 c 0
 126 22 150 1 150 -28 c 0
 150 -48 144 -59 128 -73 c 0
 118 -81 115 -86 115 -91 c 0
 115 -106 148 -120 182 -120 c 0
 232 -120 268 -88 268 -44 c 0
 268 -11 256 9 185 95 c 2
 119 175 l 2
 84 217 68 256 68 299 c 0
 68 368 115 425 172 425 c 0
 184 425 209 422 221 419 c 1
 223 422 l 1
 188 461 168 507 168 551 c 0
 168 630 232 685 323 685 c 0
 402 685 459 644 459 587 c 0
 459 552 434 526 401 526 c 0
 371 526 346 551 346 580 c 0
 346 595 352 605 368 618 c 0
 378 625 382 630 382 635 c 0
 382 650 354 663 323 663 c 0
 274 663 238 633 238 590 c 0
 238 558 256 526 306 467 c 2
 375 386 l 2
 413 341 435 290 435 243 c 0
 435 177 382 121 318 121 c 0
 308 121 300 122 288 125 c 1
195 400 m 0
 164 400 139 374 139 342 c 0
 139 321 151 291 168 266 c 0
 192 233 220 200 243 179 c 0
 267 156 283 148 305 148 c 0
 336 148 364 175 364 206 c 0
 364 273 253 400 195 400 c 0
EndSplineSet
MinimumDistance: x28,-1 
EndChar
StartChar: dieresis
Encoding: 168 168 102
Width: 333
Flags: W
HStem: 525 130<108.208 121 327 333>
VStem: 55 130<578.399 591> 267 130<578.399 591>
Fore
119 655 m 0
 155 655 185 625 185 589 c 0
 185 555 154 525 119 525 c 0
 85 525 55 555 55 589 c 0
 55 625 84 655 119 655 c 0
331 655 m 0
 367 655 397 625 397 589 c 0
 397 555 366 525 331 525 c 0
 297 525 267 555 267 589 c 0
 267 625 296 655 331 655 c 0
EndSplineSet
EndChar
StartChar: copyright
Encoding: 169 169 103
Width: 747
Flags: W
HStem: -18 46<350 382> 140 23<395 414> 518 20<382 414> 639 46<366 396>
VStem: 30 61<318 350> 180 85<318 350> 657 61<318 350>
Fore
526 250 m 1
 544 250 l 1
 527 178 l 1
 525 168 524 167 515 164 c 0
 487 152 429 140 396 140 c 0
 262 140 180 214 180 335 c 0
 180 457 269 538 405 538 c 0
 441 538 468 533 505 520 c 0
 520 514 527 508 527 499 c 2
 527 428 l 1
 510 428 l 1
 497 488 461 518 400 518 c 0
 314 518 265 454 265 342 c 0
 265 228 315 163 403 163 c 0
 461 163 497 189 526 250 c 1
374 685 m 0
 566 685 718 530 718 334 c 0
 718 134 568 -18 369 -18 c 0
 182 -18 30 139 30 332 c 0
 30 529 182 685 374 685 c 0
374 639 m 0
 219 639 91 501 91 333 c 0
 91 168 220 28 370 28 c 0
 530 28 657 164 657 334 c 0
 657 500 528 639 374 639 c 0
EndSplineSet
MinimumDistance: x15,-1 
EndChar
StartChar: ordfeminine
Encoding: 170 170 104
Width: 266
Flags: W
HStem: 658 27<190.414 196>
VStem: 16 78<472 487> 185.434 77.3408<446 447>
Fore
313 484 m 1
 326 475 l 1
 288 422 259 399 229 399 c 0
 206 399 185 417 185 437 c 0
 185 448 186 454 196 488 c 1
 159 423 130 400 86 400 c 0
 45 400 16 431 16 476 c 0
 16 572 114 685 196 685 c 0
 222 685 236 672 243 640 c 1
 254 676 l 1
 330 680 l 1
 284 540 l 1
 268 493 262 467 262 451 c 0
 262 446 264 442 267 442 c 0
 274 442 289 456 308 478 c 0
 310 481 310 481 313 484 c 1
198 658 m 0
 163 662 94 538 94 473 c 0
 94 458 105 445 118 445 c 0
 137 445 160 466 179 502 c 0
 199 539 218 601 218 630 c 0
 218 645 209 657 198 658 c 0
EndSplineSet
MinimumDistance: x12,-1 
EndChar
StartChar: guillemotleft
Encoding: 171 171 105
Width: 500
Flags: W
Fore
137 220 m 1
 177 137 l 2
 200 90 210 62 210 47 c 0
 210 39 203 32 195 32 c 0
 190 32 187 34 180 42 c 0
 158 67 87 141 12 217 c 1
 12 226 l 1
 182 350 l 2
 206 367 216 375 229 387 c 0
 248 405 262 415 270 415 c 0
 277 415 283 409 283 403 c 0
 283 382 252 341 182 269 c 1
 137 220 l 1
322 220 m 1
 362 137 l 2
 385 90 395 62 395 47 c 0
 395 39 388 32 380 32 c 0
 375 32 372 34 365 42 c 0
 343 67 272 141 197 217 c 1
 197 226 l 1
 367 350 l 2
 391 367 401 375 414 387 c 0
 433 405 447 415 455 415 c 0
 462 415 468 409 468 403 c 0
 468 382 437 341 367 269 c 1
 322 220 l 1
EndSplineSet
EndChar
StartChar: logicalnot
Encoding: 172 172 106
Width: 606
Flags: W
HStem: 311 88<52 466>
VStem: 467 88<109 310>
Fore
467 108 m 1
 467 311 l 1
 51 311 l 1
 51 399 l 1
 555 399 l 1
 555 108 l 1
 467 108 l 1
EndSplineSet
MinimumDistance: x4,-1 y1,5 y1,0 
EndChar
StartChar: registered
Encoding: 174 174 107
Width: 747
Flags: W
HStem: -18 46<350 393> 151 376<257 328> 317 20<329 372> 506 21<329 382> 639 46<366 395>
VStem: 30 61<316 350> 257 71<190 316 338 478> 437 73<427 434> 657 61<316 350>
Fore
210 511 m 1
 210 527 l 1
 393 527 l 2
 465 527 510 490 510 432 c 0
 510 384 483 348 429 328 c 1
 488 246 l 2
 519 204 542 178 562 162 c 1
 562 151 l 1
 492 151 l 2
 474 151 458 171 424 232 c 0
 406 263 395 282 372 317 c 1
 328 317 l 1
 328 215 l 2
 328 172 328 172 376 167 c 1
 376 151 l 1
 210 151 l 1
 210 167 l 1
 257 172 257 172 257 215 c 2
 257 464 l 2
 257 506 257 506 210 511 c 1
328 506 m 1
 328 337 l 1
 369 337 l 2
 412 337 437 370 437 428 c 0
 437 480 414 506 368 506 c 2
 328 506 l 1
374 685 m 0
 566 685 718 530 718 334 c 0
 718 134 568 -18 369 -18 c 0
 182 -18 30 139 30 332 c 0
 30 529 182 685 374 685 c 0
374 639 m 0
 219 639 91 501 91 333 c 0
 91 168 220 28 370 28 c 0
 530 28 657 164 657 334 c 0
 657 500 528 639 374 639 c 0
EndSplineSet
MinimumDistance: x25,-1 
EndChar
StartChar: macron
Encoding: 175 175 108
Width: 333
Flags: W
HStem: 553 70<68 377>
Fore
393 623 m 1
 377 553 l 1
 51 553 l 1
 68 623 l 1
 393 623 l 1
EndSplineSet
EndChar
StartChar: degree
Encoding: 176 176 109
Width: 400
Flags: W
HStem: 397 36<211.35 228> 647 36<223 228>
VStem: 83 41<525.285 542> 328 41<525.002 542>
Fore
226 683 m 0
 306 683 369 620 369 540 c 0
 369 459 306 397 224 397 c 0
 146 397 83 461 83 540 c 0
 83 620 146 683 226 683 c 0
226 647 m 0
 170 647 124 598 124 540 c 128
 124 482 170 433 225 433 c 0
 282 433 328 481 328 540 c 0
 328 598 281 647 226 647 c 0
EndSplineSet
MinimumDistance: x1,-1 
EndChar
StartChar: plusminus
Encoding: 177 177 110
Width: 570
Flags: W
HStem: 0 88<34 536> 271 88<34 241 329 536>
VStem: 33 504<1 87 271 359> 241 88<129 271 359 567>
Fore
241 359 m 1
 241 568 l 1
 329 568 l 1
 329 359 l 1
 537 359 l 1
 537 271 l 1
 329 271 l 1
 329 128 l 1
 241 128 l 1
 241 271 l 1
 33 271 l 1
 33 359 l 1
 241 359 l 1
33 0 m 1
 33 88 l 1
 537 88 l 1
 537 0 l 1
 33 0 l 1
EndSplineSet
MinimumDistance: x4,-1 y6,8 y6,7 y3,1 y3,2 x3,5 x3,4 x0,10 x0,11 
EndChar
StartChar: twosuperior
Encoding: 178 178 111
Width: 300
Flags: W
HStem: 274 69<97 207> 621.994 61.0065<161 205>
VStem: 219.995 93.0046<556 584>
Fore
291 388 m 1
 240 274 l 1
 2 274 l 1
 2 290 l 1
 106 389 121 403 150 435 c 0
 201 491 220 525 220 556 c 0
 220 597 197 622 161 622 c 0
 132 622 111 610 79 574 c 1
 61 585 l 1
 97 651 144 683 205 683 c 0
 265 683 313 639 313 584 c 0
 313 536 287 497 221 444 c 2
 96 343 l 1
 185 343 l 2
 235 343 250 351 275 388 c 1
 291 388 l 1
EndSplineSet
EndChar
StartChar: threesuperior
Encoding: 179 179 112
Width: 300
Flags: W
HStem: 631.994 51.0058<178 222>
VStem: 209.997 84.0033<390 423> 232.41 87.8761<580 602>
Fore
110 481 m 1
 112 495 l 1
 194 510 233 537 233 580 c 0
 233 612 212 632 178 632 c 0
 150 632 131 622 103 590 c 1
 89 603 l 1
 129 659 169 683 222 683 c 0
 278 683 321 648 321 602 c 0
 321 565 307 548 249 515 c 2
 242 511 l 1
 280 485 294 462 294 423 c 0
 294 336 208 265 102 265 c 0
 49 265 17 284 17 315 c 0
 17 339 33 356 54 356 c 0
 70 356 84 347 97 328 c 0
 118 300 121 298 140 298 c 0
 179 298 210 338 210 390 c 0
 210 448 177 478 110 481 c 1
EndSplineSet
EndChar
StartChar: acute
Encoding: 180 180 113
Width: 333
Flags: W
Fore
188 516 m 1
 139 516 l 1
 261 647 l 2
 296 685 313 697 331 697 c 0
 357 697 379 675 379 650 c 0
 379 631 370 620 340 603 c 2
 188 516 l 1
EndSplineSet
EndChar
StartChar: mu
Encoding: 181 181 114
Width: 576
Flags: W
HStem: 0 449<148 160>
VStem: -59.9976 128.998<-146 -108>
DStem: 125 449 260 449 14 74 167 137 381 449 516 449 330 285 412 113
Fore
516 449 m 1
 412 113 l 2
 409 103 407 93 407 86 c 0
 407 78 412 72 419 72 c 0
 434 72 452 90 482 134 c 1
 503 118 l 1
 460 59 446 43 421 21 c 0
 397 0 365 -13 336 -13 c 0
 300 -13 273 14 273 50 c 0
 273 69 275 80 284 118 c 1
 231 28 200 0 154 0 c 0
 130 0 118 5 92 24 c 1
 78 -19 70 -65 69 -108 c 0
 69 -136 67 -145 62 -157 c 0
 49 -187 21 -207 -10 -207 c 0
 -42 -207 -60 -185 -60 -146 c 0
 -60 -117 -54 -95 -29 -37 c 0
 -10 7 -4 24 14 74 c 1
 125 449 l 1
 260 449 l 1
 167 137 l 2
 163 123 160 106 160 95 c 0
 160 79 167 70 179 70 c 0
 221 70 296 177 330 285 c 2
 381 449 l 1
 516 449 l 1
EndSplineSet
MinimumDistance: x0,-1 
EndChar
StartChar: paragraph
Encoding: 182 182 115
Width: 500
Flags: W
HStem: -193 27<323 335.864> 644 25<330 384>
VStem: -4 79<383 399>
DStem: 141 258 330 644 56 -68 113 -193 241 644 330 644 147 283 113 -193 385 644 458 581 168 -193 289 -68
Fore
330 644 m 1
 113 -193 l 1
 -57 -193 l 1
 -50 -168 l 1
 -1 -164 16 -160 27 -150 c 0
 35 -144 40 -130 56 -68 c 2
 141 258 l 1
 91 260 68 266 43 283 c 0
 13 304 -4 343 -4 388 c 0
 -4 464 29 557 72 603 c 0
 113 647 178 669 267 669 c 2
 562 669 l 1
 556 644 l 1
 475 637 472 635 458 581 c 2
 289 -68 l 2
 285 -84 281 -101 273 -141 c 1
 272 -155 286 -162 323 -166 c 0
 326 -166 336 -167 346 -168 c 1
 339 -193 l 1
 168 -193 l 1
 385 644 l 1
 330 644 l 1
147 283 m 1
 241 644 l 1
 178 628 152 611 123 564 c 0
 95 518 75 448 75 394 c 0
 75 342 101 302 147 283 c 1
EndSplineSet
MinimumDistance: x13,-1 
EndChar
StartChar: periodcentered
Encoding: 183 183 116
Width: 250
Flags: W
HStem: 257 148<115 131>
VStem: 51 148<321 337>
Fore
126 405 m 0
 166 405 199 371 199 331 c 0
 199 289 166 257 124 257 c 0
 83 257 51 289 51 331 c 128
 51 373 84 405 126 405 c 0
EndSplineSet
MinimumDistance: x1,-1 
EndChar
StartChar: cedilla
Encoding: 184 184 117
Width: 333
Flags: W
HStem: -217.063 40.0633<10 20>
VStem: 65 91<-138 -129>
DStem: 41 5 85 5 -25 -92 40 -62
Fore
-25 -92 m 1
 41 5 l 1
 85 5 l 1
 40 -62 l 1
 50 -60 56 -59 66 -59 c 0
 118 -59 156 -89 156 -131 c 0
 156 -181 103 -218 32 -218 c 0
 -4 -218 -36 -211 -80 -193 c 1
 -58 -160 l 1
 -30 -173 -13 -177 9 -177 c 0
 43 -177 65 -161 65 -136 c 0
 65 -114 47 -100 18 -100 c 0
 8 -100 0 -101 -12 -104 c 1
 -25 -92 l 1
EndSplineSet
MinimumDistance: x5,-1 
EndChar
StartChar: onesuperior
Encoding: 185 185 118
Width: 300
Flags: W
HStem: 274 19<30.0628 51.8773 238 253>
VStem: 30 224<275 293>
Fore
30 274 m 1
 30 293 l 1
 86 293 101 307 118 373 c 0
 119 377 125 396 131 414 c 0
 156 487 193 608 191 613 c 0
 188 627 179 634 165 634 c 0
 159 634 148 633 133 632 c 2
 122 631 l 1
 124 652 l 1
 196 663 238 670 301 683 c 1
 201 353 l 1
 197 341 195 328 195 319 c 0
 195 297 205 293 254 293 c 1
 254 274 l 1
 30 274 l 1
EndSplineSet
MinimumDistance: x12,-1 
EndChar
StartChar: ordmasculine
Encoding: 186 186 119
Width: 300
Flags: W
HStem: 400 20<161 168> 665 19.9682<231.164 240.984>
VStem: 56 81.0036<455 489>
Fore
243 685 m 0
 306 685 350 644 347 587 c 0
 342 488 254 400 162 400 c 0
 101 400 56 438 56 489 c 0
 56 589 148 685 243 685 c 0
241 665 m 0
 221 666 198 648 181 617 c 0
 158 576 137 499 137 455 c 0
 137 433 148 420 165 420 c 0
 188 420 208 440 229 483 c 0
 248 523 264 584 266 627 c 0
 267 650 258 664 241 665 c 0
EndSplineSet
MinimumDistance: x6,-1 
EndChar
StartChar: guillemotright
Encoding: 187 187 120
Width: 500
Flags: W
Fore
343 227 m 1
 303 310 l 2
 280 358 270 385 270 400 c 0
 270 408 277 415 285 415 c 0
 290 415 293 413 300 405 c 0
 339 361 380 319 468 230 c 1
 468 221 l 1
 298 97 l 2
 274 80 264 71 251 60 c 1
 232 41 218 32 210 32 c 0
 203 32 197 38 197 44 c 0
 197 65 227 105 298 178 c 1
 343 227 l 1
158 227 m 1
 118 310 l 2
 95 358 85 385 85 400 c 0
 85 408 92 415 100 415 c 0
 105 415 108 413 115 405 c 0
 154 361 195 319 283 230 c 1
 283 221 l 1
 113 97 l 2
 89 80 79 71 66 60 c 1
 47 41 33 32 25 32 c 0
 18 32 12 38 12 44 c 0
 12 65 42 105 113 178 c 1
 158 227 l 1
EndSplineSet
KernsSLIF: 89 -83 1 0 87 -75 1 0 86 -79 1 0 84 -76 1 0 197 -30 1 0 196 -30 1 0 193 -30 1 0 198 -39 1 0 65 -30 1 0
EndChar
StartChar: onequarter
Encoding: 188 188 121
Width: 750
Flags: W
HStem: 0 21G<513 599> 88 61<426 539 644 671> 274 19<7.06279 28.8773 215 230> 663 20G<571 629>
VStem: 7 224<275 293>
DStem: 540 88 627 88 513 0 599 0 571 683 629 683 136 -14 194 -14 609 319 721 410 557 149 643 149 675 410 609 319 397 155 425 149
Fore
688 149 m 1
 671 88 l 1
 627 88 l 1
 599 0 l 1
 513 0 l 1
 540 88 l 1
 381 88 l 1
 397 155 l 1
 675 410 l 1
 721 410 l 1
 643 149 l 1
 688 149 l 1
425 149 m 1
 557 149 l 1
 609 319 l 1
 425 149 l 1
629 683 m 1
 194 -14 l 1
 136 -14 l 1
 571 683 l 1
 629 683 l 1
7 274 m 1
 7 293 l 1
 63 293 78 307 95 373 c 0
 97 380 102 396 108 414 c 0
 137 498 168 602 168 613 c 128
 168 624 156 634 142 634 c 0
 135 634 124 633 110 632 c 2
 99 631 l 1
 101 652 l 1
 173 663 215 670 278 683 c 1
 178 353 l 1
 174 341 172 328 172 319 c 0
 172 297 182 293 231 293 c 1
 231 274 l 1
 7 274 l 1
EndSplineSet
MinimumDistance: x9,-1 
EndChar
StartChar: onehalf
Encoding: 189 189 122
Width: 750
Flags: W
HStem: 0 69<507 617> 274 19<-8.93721 12.8773 199 214> 347.994 61.0065<571 615> 663 20G<556 614>
VStem: -9 224<275 293> 629.17 92.9355<282 310>
DStem: 556 683 614 683 121 -14 179 -14
Fore
614 683 m 1
 179 -14 l 1
 121 -14 l 1
 556 683 l 1
 614 683 l 1
701 114 m 1
 650 0 l 1
 412 0 l 1
 412 16 l 1
 516 115 531 129 560 161 c 0
 611 217 630 251 630 282 c 0
 630 323 607 348 571 348 c 0
 542 348 521 336 489 300 c 1
 471 311 l 1
 507 377 554 409 615 409 c 0
 675 409 723 365 723 310 c 0
 723 262 697 223 631 170 c 2
 506 69 l 1
 595 69 l 2
 645 69 660 77 685 114 c 1
 701 114 l 1
-9 274 m 1
 -9 293 l 1
 47 293 62 307 79 373 c 0
 81 380 86 396 92 414 c 0
 121 498 152 602 152 613 c 128
 152 624 140 634 126 634 c 0
 119 634 108 633 94 632 c 2
 83 631 l 1
 85 652 l 1
 157 663 199 670 262 683 c 1
 162 353 l 1
 158 341 156 328 156 319 c 0
 156 297 166 293 215 293 c 1
 215 274 l 1
 -9 274 l 1
EndSplineSet
EndChar
StartChar: threequarters
Encoding: 190 190 123
Width: 750
Flags: W
HStem: 0 21G<518 604> 88 61<431 544 649 676> 631.994 51.0058<168 212>
VStem: 199.997 84.0031<389 423> 222.41 87.8351<580 602>
DStem: 545 88 632 88 518 0 604 0 576 683 634 683 141 -14 199 -14 614 319 726 410 562 149 648 149 680 410 614 319 402 155 430 149
Fore
693 149 m 1
 676 88 l 1
 632 88 l 1
 604 0 l 1
 518 0 l 1
 545 88 l 1
 386 88 l 1
 402 155 l 1
 680 410 l 1
 726 410 l 1
 648 149 l 1
 693 149 l 1
430 149 m 1
 562 149 l 1
 614 319 l 1
 430 149 l 1
634 683 m 1
 199 -14 l 1
 141 -14 l 1
 576 683 l 1
 634 683 l 1
100 481 m 1
 102 495 l 1
 184 510 223 537 223 580 c 0
 223 612 202 632 168 632 c 0
 140 632 121 622 93 590 c 1
 79 603 l 1
 119 659 159 683 212 683 c 0
 268 683 311 648 311 602 c 0
 311 565 296 548 239 515 c 2
 232 511 l 1
 270 485 284 462 284 423 c 0
 284 336 198 265 93 265 c 0
 39 265 7 284 7 315 c 0
 7 339 23 356 44 356 c 0
 60 356 74 347 87 328 c 1
 109 300 111 298 129 298 c 0
 169 298 200 338 200 389 c 0
 200 448 168 478 100 481 c 1
EndSplineSet
MinimumDistance: x9,-1 
EndChar
StartChar: questiondown
Encoding: 191 191 124
Width: 500
Flags: W
HStem: -204.648 30.6485<220 228> 344 148<345 350>
VStem: 30.9352 126.947<-94 -60> 259 122<-77 -67> 273 148<405.493 420>
Fore
304 271 m 1
 333 264 l 1
 328 209 308 163 262 105 c 2
 221 54 l 2
 177 -1 157 -47 157 -94 c 0
 157 -143 184 -174 226 -174 c 0
 258 -174 288 -155 288 -136 c 0
 288 -130 285 -124 277 -113 c 0
 264 -97 259 -83 259 -69 c 0
 259 -36 286 -9 320 -9 c 128
 354 -9 381 -38 381 -76 c 0
 381 -151 307 -205 206 -205 c 0
 101 -205 30 -147 30 -60 c 0
 30 2 67 52 156 110 c 2
 222 153 l 2
 260 178 276 201 304 271 c 1
348 492 m 0
 388 492 421 458 421 418 c 0
 421 376 388 344 346 344 c 0
 305 344 273 376 273 418 c 128
 273 460 306 492 348 492 c 0
EndSplineSet
MinimumDistance: x16,-1 
EndChar
StartChar: AE
Encoding: 198 198 131
Width: 944
Flags: W
HStem: 0 32<528 573> 255 39<226 387> 637 32<672 710>
VStem: -64 195<1 25>
DStem: 390 574 478 627 24 102 225 294 490 627 626 605 398 294 561 370 490 627 781 472 398 294 708 199
Fore
264 0 m 1
 264 25 l 1
 316 33 326 43 342 96 c 1
 388 255 l 1
 196 255 l 1
 82 98 l 2
 73 85 67 71 67 59 c 0
 67 37 83 29 131 25 c 1
 131 0 l 1
 -64 0 l 1
 -64 25 l 1
 -48 28 -42 29 -34 34 c 0
 -28 37 -16 52 24 102 c 1
 390 574 l 2
 402 590 410 607 410 618 c 0
 410 636 394 642 329 646 c 1
 329 669 l 1
 918 669 l 1
 873 479 l 1
 849 484 l 1
 847 524 l 1
 843 599 789 637 685 637 c 0
 643 637 633 632 626 605 c 1
 561 370 l 1
 571 370 l 1
 580 370 l 2
 682 370 715 390 755 476 c 1
 781 472 l 1
 708 199 l 1
 683 204 l 1
 684 215 l 1
 685 224 l 1
 686 236 686 245 686 251 c 0
 686 316 663 331 553 338 c 1
 490 97 l 2
 487 86 485 75 485 69 c 0
 485 43 502 32 543 32 c 0
 614 32 677 48 720 78 c 0
 757 104 782 132 824 199 c 1
 850 196 l 1
 791 0 l 1
 264 0 l 1
225 294 m 1
 398 294 l 1
 490 627 l 1
 478 627 l 1
 225 294 l 1
EndSplineSet
MinimumDistance: x27,-1 
EndChar
StartChar: Ccedilla
Encoding: 199 199 132
Width: 667
Flags: W
HStem: -217.019 40.019<176 187> -17.6239 53.2783<304 336> 650 34.1508<464 466> 665 20G<647 677>
VStem: 32.1791 154.304<209 241> 232 91<-138 -129>
DStem: 203 -2 241 -12 142 -92 207 -62
Fore
241 -12 m 1
 207 -62 l 1
 217 -60 223 -59 233 -59 c 0
 285 -59 323 -89 323 -131 c 0
 323 -181 270 -218 199 -218 c 0
 162 -218 130 -211 87 -193 c 1
 109 -160 l 1
 137 -173 154 -177 176 -177 c 0
 210 -177 232 -161 232 -136 c 0
 232 -114 214 -100 185 -100 c 0
 175 -100 167 -101 155 -104 c 1
 142 -92 l 1
 203 -2 l 1
 94 34 32 122 32 241 c 0
 32 483 217 685 440 685 c 0
 481 685 528 677 571 664 c 0
 586 659 601 656 609 656 c 0
 624 656 633 663 647 685 c 1
 677 685 l 1
 626 451 l 1
 594 457 l 1
 596 470 597 479 597 492 c 0
 597 590 547 650 466 650 c 0
 425 650 386 634 349 604 c 0
 258 528 186 355 186 209 c 0
 186 100 242 35 336 35 c 0
 367 35 398 41 426 53 c 0
 468 71 496 94 546 153 c 1
 576 131 l 1
 544 87 528 70 498 47 c 0
 441 4 375 -18 304 -18 c 0
 283 -18 263 -16 241 -12 c 1
EndSplineSet
MinimumDistance: x3,-1 
KernsSLIF: 65 -30 0 0
EndChar
StartChar: Eth
Encoding: 208 208 141
Width: 722
Flags: W
HStem: 0 34<241 272> 329 44<22 111 273 382> 638 31<381 401>
VStem: 553 146.999<396 457>
DStem: 22 373 260 329 10 329 205 126 112 329 260 329 49 97 205 126 170 543 333 600 124 373 272 373
Fore
124 373 m 1
 170 543 l 1
 178 574 182 592 182 602 c 0
 182 626 172 634 140 639 c 0
 135 640 123 642 109 644 c 1
 109 669 l 1
 399 669 l 2
 588 669 700 567 700 396 c 0
 700 169 510 0 255 0 c 2
 -31 0 l 1
 -31 25 l 1
 18 31 34 46 49 97 c 1
 112 329 l 1
 10 329 l 1
 22 373 l 1
 124 373 l 1
272 373 m 1
 394 373 l 1
 382 329 l 1
 260 329 l 1
 205 126 l 1
 205 126 204 124 204 122 c 0
 195 96 192 80 192 68 c 0
 192 45 209 34 246 34 c 0
 341 34 412 71 465 147 c 0
 519 224 553 343 553 457 c 0
 553 579 499 638 388 638 c 0
 356 638 340 627 333 600 c 2
 272 373 l 1
EndSplineSet
EndChar
StartChar: multiply
Encoding: 215 215 148
Width: 570
Flags: W
DStem: 48 428 110 490 223 253 285 314 223 253 285 192 48 78 110 16 285 192 346 253 460 16 522 78 460 490 522 428 285 314 346 253
Fore
223 253 m 1
 48 428 l 1
 110 490 l 1
 285 314 l 1
 460 490 l 1
 522 428 l 1
 346 253 l 1
 522 78 l 1
 460 16 l 1
 285 192 l 1
 110 16 l 1
 48 78 l 1
 223 253 l 1
EndSplineSet
MinimumDistance: x5,-1 
EndChar
StartChar: Oslash
Encoding: 216 216 149
Width: 722
Flags: W
HStem: -18 34<265 283> 651 34<427.032 459>
VStem: 27 144.002<141 212> 547 143.998<453 526>
DStem: 144 11 183 -5 65 -125 113 -125 506 630 533 593 182 77 208 38 584 764 633 764 531 672 570 656
Fore
633 764 m 1
 570 656 l 1
 609 633 625 620 644 595 c 0
 674 557 691 504 691 453 c 0
 691 307 608 149 484 58 c 0
 417 8 342 -18 266 -18 c 0
 235 -18 214 -15 183 -5 c 1
 113 -125 l 1
 65 -125 l 1
 144 11 l 1
 113 29 100 39 84 58 c 0
 47 100 27 154 27 212 c 0
 27 453 234 685 449 685 c 0
 479 685 499 682 531 672 c 1
 584 764 l 1
 633 764 l 1
182 77 m 1
 506 630 l 1
 487 645 468 651 443 651 c 0
 382 651 327 608 278 521 c 0
 220 418 171 243 171 141 c 0
 171 119 175 97 182 77 c 1
533 593 m 1
 208 38 l 1
 228 22 247 16 273 16 c 0
 327 16 372 47 418 113 c 0
 483 208 547 412 547 526 c 0
 547 548 542 571 533 593 c 1
EndSplineSet
KernsSLIF: 65 -57 0 0
EndChar
StartChar: Thorn
Encoding: 222 222 155
Width: 611
Flags: W
HStem: 0 21G<-27 267> 182.842 34.1581<266 294> 502 32<329.612 359> 640 29<143 144>
VStem: -27 294<1 25> 113 294<644 668> 428 145.998<379 411>
DStem: 176 546 293 458 53 97 229 219
Fore
113 644 m 1
 113 669 l 1
 407 669 l 1
 407 644 l 1
 354 637 345 629 325 572 c 2
 312 534 l 1
 360 534 l 2
 499 534 574 480 574 379 c 0
 574 259 467 182 300 182 c 0
 274 182 255 183 219 187 c 1
 205 123 l 2
 198 92 195 73 195 64 c 0
 195 37 211 28 267 25 c 1
 267 0 l 1
 -27 0 l 1
 -27 25 l 1
 25 33 37 44 53 97 c 1
 176 546 l 2
 182 568 186 592 186 607 c 0
 186 627 175 636 144 640 c 0
 139 640 127 642 113 644 c 1
293 458 m 1
 229 219 l 1
 248 218 260 217 271 217 c 0
 342 217 379 240 405 299 c 0
 419 330 428 376 428 411 c 0
 428 469 397 502 344 502 c 0
 325 502 314 498 304 487 c 0
 300 482 300 482 293 458 c 1
EndSplineSet
EndChar
StartChar: germandbls
Encoding: 223 223 156
Width: 500
Flags: W
HStem: -200 31<-111 -99> -7 34<200 217> 675 30<312 326>
VStem: -200 99<-124 -113> 315 119.997<256 304> 362 110.996<574 615>
DStem: 76 403 214 509 -16 -20 123 102
Fore
241 384 m 1
 248 421 l 1
 264 421 l 2
 265 421 266 421 268 420 c 0
 286 414 316 439 333 473 c 0
 350 509 362 568 362 615 c 0
 362 655 347 675 315 675 c 0
 270 675 240 626 214 509 c 2
 123 102 l 2
 78 -98 2 -200 -103 -200 c 0
 -160 -200 -200 -169 -200 -123 c 0
 -200 -91 -180 -70 -149 -70 c 0
 -119 -70 -101 -87 -101 -115 c 0
 -101 -129 -103 -136 -112 -146 c 0
 -117 -151 -118 -153 -118 -158 c 0
 -118 -166 -114 -169 -102 -169 c 0
 -83 -169 -73 -164 -63 -152 c 0
 -47 -131 -30 -83 -16 -20 c 1
 76 403 l 2
 119 601 205 705 327 705 c 0
 412 705 473 650 473 574 c 0
 473 538 457 501 432 477 c 0
 398 444 368 428 291 399 c 1
 344 388 368 379 392 357 c 0
 420 333 435 298 435 256 c 0
 435 117 331 -7 215 -7 c 0
 185 -7 164 -1 142 15 c 1
 162 50 l 1
 166 45 l 2
 174 35 193 27 209 27 c 0
 232 27 252 46 270 85 c 0
 294 137 315 239 315 304 c 0
 315 334 306 358 291 369 c 0
 281 377 270 380 241 384 c 1
EndSplineSet
EndChar
StartChar: ae
Encoding: 230 230 163
Width: 722
Flags: W
HStem: -12.9978 62.9978<425 468> 419 42.6761<281 287> 428.776 29.4318<550 573>
VStem: 583 90<371 387>
DStem: 370 454 473 459 352 396 453 394
Fore
352 396 m 1
 370 454 l 1
 473 459 l 1
 453 394 l 1
 496 444 524 459 573 459 c 0
 636 459 673 427 673 372 c 0
 673 290 590 223 445 190 c 2
 406 181 l 1
 402 161 401 150 401 134 c 0
 401 83 427 50 468 50 c 0
 515 50 557 80 591 139 c 1
 619 122 l 1
 576 34 509 -13 425 -13 c 0
 378 -13 337 3 315 31 c 0
 298 52 290 72 282 118 c 1
 226 26 176 -12 109 -12 c 0
 43 -12 -5 38 -5 106 c 0
 -5 269 145 462 271 462 c 0
 314 462 334 446 352 396 c 1
285 419 m 0
 253 419 221 390 188 332 c 0
 151 266 124 182 121 124 c 0
 119 85 139 58 169 58 c 0
 202 58 233 83 262 137 c 0
 300 204 333 309 333 363 c 0
 333 395 313 419 285 419 c 0
418 231 m 2
 413 214 l 1
 441 218 463 227 494 246 c 0
 552 282 583 331 583 388 c 0
 583 416 573 429 550 429 c 0
 500 429 458 365 418 231 c 2
EndSplineSet
MinimumDistance: x5,-1 
KernsSLIF: 121 -8 0 0 119 -5 0 0 118 -5 0 0
EndChar
StartChar: ccedilla
Encoding: 231 231 164
Width: 444
Flags: W
HStem: -217.063 40.0633<66 76> -12.9973 63.9973<148 196> 429 32.3057<264 274>
VStem: -5 128<125 150> 121 91<-138 -129> 272.238 118.85<354 372>
DStem: 91 -4 130 -12 31 -92 96 -62
Fore
130 -12 m 1
 96 -62 l 1
 106 -60 112 -59 122 -59 c 0
 174 -59 212 -89 212 -131 c 0
 212 -181 159 -218 88 -218 c 0
 52 -218 20 -211 -24 -193 c 1
 -2 -160 l 1
 26 -173 43 -177 65 -177 c 0
 99 -177 121 -161 121 -136 c 0
 121 -114 103 -100 74 -100 c 0
 64 -100 56 -101 44 -104 c 1
 31 -92 l 1
 91 -4 l 1
 30 18 -5 70 -5 138 c 0
 -5 298 139 462 280 462 c 0
 347 462 392 425 392 372 c 0
 392 331 366 302 330 302 c 0
 297 302 272 324 272 354 c 0
 272 366 276 377 285 393 c 0
 291 402 293 408 293 412 c 0
 293 422 283 429 271 429 c 0
 241 429 212 405 185 358 c 0
 149 293 123 203 123 141 c 0
 123 87 153 51 196 51 c 128
 239 51 270 74 318 141 c 1
 346 123 l 1
 311 73 295 54 269 32 c 0
 236 3 192 -13 148 -13 c 0
 142 -13 137 -13 130 -12 c 1
EndSplineSet
EndChar
StartChar: egrave
Encoding: 232 232 165
Width: 444
Flags: W
HStem: -11.9977 63.9977<156 200> 430 32.3367<277 280>
VStem: 5 130<125 148> 305.09 92.9102<376 396>
Fore
317 143 m 1
 346 126 l 1
 286 27 232 -12 156 -12 c 0
 69 -12 5 51 5 135 c 0
 5 300 149 463 293 463 c 0
 354 463 398 427 398 376 c 0
 398 341 379 303 344 271 c 0
 294 225 245 203 141 183 c 1
 137 163 135 150 135 134 c 0
 135 80 157 52 200 52 c 0
 242 52 270 74 317 143 c 1
148 215 m 1
 159 219 174 224 181 226 c 0
 258 255 306 320 306 396 c 0
 306 418 297 430 278 430 c 0
 230 430 184 353 148 215 c 1
366 516 m 1
 321 516 l 1
 188 605 l 2
 166 620 154 637 154 652 c 0
 154 676 175 697 199 697 c 0
 218 697 239 684 255 663 c 2
 366 516 l 1
EndSplineSet
MinimumDistance: x5,-1 
EndChar
StartChar: eth
Encoding: 240 240 173
Width: 500
Flags: W
HStem: -13 29<154 173> 433 29<269 285>
VStem: -3 119.002<86 134> 322 119<355 387>
DStem: 253 607 283 574 131 543 164 512 420 696 454 664 313 639 347 608
Fore
283 574 m 1
 164 512 l 1
 131 543 l 1
 253 607 l 1
 214 644 177 665 137 672 c 1
 181 699 l 1
 230 692 270 674 313 639 c 1
 420 696 l 1
 454 664 l 1
 347 608 l 1
 414 529 441 462 441 372 c 0
 441 163 310 -13 155 -13 c 0
 65 -13 -3 50 -3 134 c 0
 -3 299 134 462 272 462 c 0
 303 462 324 449 343 420 c 1
 345 424 l 1
 341 478 322 524 283 574 c 1
276 433 m 0
 243 433 215 411 189 365 c 0
 153 300 116 159 116 86 c 0
 116 39 132 16 165 16 c 0
 200 16 230 45 259 107 c 0
 291 178 322 307 322 375 c 0
 322 411 304 433 276 433 c 0
EndSplineSet
MinimumDistance: x8,-1 
EndChar
StartChar: divide
Encoding: 247 247 180
Width: 570
Flags: W
HStem: -29 148<283 289> 209 88<34 536> 387 148<283 289>
VStem: 33 504<210 296> 211 148<35 51 451 467>
Fore
537 209 m 1
 33 209 l 1
 33 297 l 1
 537 297 l 1
 537 209 l 1
286 119 m 0
 326 119 359 85 359 45 c 0
 359 4 326 -29 284 -29 c 0
 243 -29 211 3 211 45 c 128
 211 87 244 119 286 119 c 0
286 535 m 0
 326 535 359 501 359 461 c 0
 359 419 326 387 284 387 c 0
 243 387 211 419 211 461 c 128
 211 503 244 535 286 535 c 0
EndSplineSet
MinimumDistance: x5,-1 
EndChar
StartChar: oslash
Encoding: 248 248 181
Width: 500
Flags: W
HStem: -13 29<156 173> 433 29<266 285>
VStem: -3 119.002<86 134> 322 118.998<311 372>
DStem: 74 7 106 -5 2 -119 42 -119 307 419 321 377 116 78 128 34 387 560 424 560 328 456 359 444
Fore
424 560 m 1
 359 444 l 1
 416 416 441 375 441 311 c 0
 441 143 305 -13 157 -13 c 0
 139 -13 126 -11 106 -5 c 1
 42 -119 l 1
 2 -119 l 1
 74 7 l 1
 21 37 -3 77 -3 134 c 0
 -3 304 136 462 286 462 c 0
 300 462 310 461 328 456 c 1
 387 560 l 1
 424 560 l 1
116 78 m 1
 307 419 l 1
 297 429 288 433 275 433 c 0
 243 433 214 410 189 364 c 0
 153 300 116 160 116 86 c 2
 116 78 l 1
321 377 m 1
 128 34 l 1
 138 22 149 16 165 16 c 0
 204 16 235 50 266 125 c 0
 295 194 322 312 322 372 c 0
 322 374 322 375 321 377 c 1
EndSplineSet
EndChar
StartChar: thorn
Encoding: 254 254 187
Width: 500
Flags: W
HStem: -205 27<-119.937 -97.1899 112 128> -12.0305 34.0648<152 169>
VStem: -120 249<-204 -178> 321.176 124.824<334.028 341>
Fore
129 -178 m 1
 129 -205 l 1
 -120 -205 l 1
 -120 -178 l 1
 -71 -179 -60 -167 -42 -93 c 1
 120 537 l 2
 132 583 137 606 137 612 c 0
 137 635 123 642 74 642 c 1
 74 669 l 1
 163 679 212 686 280 699 c 1
 185 359 l 1
 188 356 l 1
 238 431 282 462 339 462 c 0
 404 462 446 414 446 341 c 0
 446 168 304 -13 169 -13 c 0
 148 -13 136 -9 101 9 c 1
 98 -4 l 1
 90 -32 l 2
 71 -100 64 -133 64 -146 c 0
 64 -170 79 -177 129 -178 c 1
282 391 m 0
 256 393 223 368 198 329 c 0
 182 305 172 277 148 195 c 0
 121 104 113 74 113 58 c 0
 113 38 130 22 152 22 c 0
 185 22 218 50 249 104 c 0
 285 169 317 269 321 334 c 0
 323 366 308 389 282 391 c 0
EndSplineSet
MinimumDistance: x13,-1 
EndChar
StartChar: Aogonek
Encoding: 260 260 193
Width: 667
Flags: W
HStem: -172.996 68.9961<606 647> 0 25<109 128> 208 40<162 345> 663 20G<388 413>
VStem: -67 196<1 25> 289 304<0 25> 500.004 83.9958<-92 -39>
DStem: 388 683 309 491 16 95 161 248
Fore
353 208 m 1
 138 208 l 1
 79 106 l 2
 69 89 64 73 64 60 c 0
 64 36 83 25 129 25 c 1
 129 0 l 1
 -67 0 l 1
 -67 25 l 1
 -31 33 -16 46 16 95 c 1
 388 683 l 1
 413 683 l 1
 509 111 l 1
 522 35 527 30 593 25 c 1
 593 0 l 1
 587 -14 584 -25 584 -39 c 0
 584 -81 606 -104 647 -104 c 0
 662 -104 673 -101 693 -91 c 0
 701 -87 702 -86 707 -84 c 1
 729 -98 l 1
 704 -144 656 -173 606 -173 c 0
 545 -173 500 -139 500 -92 c 0
 500 -65 509 -45 543 0 c 1
 289 0 l 1
 289 25 l 1
 353 31 368 42 368 84 c 0
 368 97 366 117 360 156 c 0
 359 163 356 184 353 208 c 1
161 248 m 1
 346 248 l 1
 309 491 l 1
 161 248 l 1
EndSplineSet
MinimumDistance: x14,-1 
EndChar
StartChar: aogonek
Encoding: 261 261 194
Width: 500
Flags: W
HStem: -172.996 68.9961<377 418>
VStem: -21 123<99.9685 129> 271.004 83.9962<-92 -41>
DStem: 344 449 455 456 326 390 384 220
Fore
434 127 m 1
 455 112 l 1
 430 74 419 60 390 27 c 0
 362 -3 355 -18 355 -41 c 0
 355 -82 378 -104 418 -104 c 0
 433 -104 444 -101 464 -91 c 0
 472 -87 473 -86 478 -84 c 1
 500 -98 l 1
 475 -144 427 -173 377 -173 c 0
 316 -173 271 -139 271 -92 c 0
 271 -67 278 -50 303 -14 c 1
 262 -10 237 15 237 52 c 0
 237 66 240 79 251 119 c 1
 194 24 148 -13 87 -13 c 0
 22 -13 -21 38 -21 114 c 0
 -21 270 129 462 252 462 c 0
 295 462 317 441 326 390 c 1
 344 449 l 1
 455 456 l 1
 384 220 l 2
 360 139 350 97 350 72 c 0
 350 63 355 57 362 57 c 0
 378 57 393 72 434 127 c 1
266 420 m 0
 239 422 206 391 176 338 c 0
 135 264 102 164 102 112 c 0
 102 81 121 58 147 58 c 0
 174 58 204 85 231 133 c 0
 269 201 303 314 303 373 c 0
 303 400 288 418 266 420 c 0
EndSplineSet
MinimumDistance: x1,-1 
EndChar
StartChar: dcaron
Encoding: 271 271 204
Width: 644
Flags: W
VStem: -20.9818 123.847<112.125 121.972> 523.38 139.863<597 619>
DStem: 341 497 517 699 323 429 406 294
Fore
427 131 m 1
 449 115 l 1
 394 27 349 -11 300 -11 c 0
 262 -11 240 12 240 51 c 0
 240 66 243 81 251 118 c 1
 194 23 148 -13 85 -13 c 0
 24 -13 -21 40 -21 112 c 0
 -21 269 129 462 251 462 c 0
 280 462 299 453 323 429 c 1
 341 497 l 1
 364 581 370 606 370 615 c 0
 370 633 355 643 329 643 c 2
 308 643 l 1
 308 670 l 1
 408 678 457 685 517 699 c 1
 406 294 l 2
 371 167 349 80 349 71 c 0
 349 65 355 59 360 59 c 0
 375 59 400 86 427 131 c 1
271 420 m 0
 241 422 205 390 173 333 c 0
 137 268 106 176 103 122 c 0
 101 87 119 59 144 59 c 0
 173 59 202 84 230 133 c 0
 264 196 308 328 308 370 c 0
 308 398 293 419 271 420 c 0
492 401 m 1
 480 422 l 1
 551 460 586 495 586 527 c 0
 586 540 579 549 559 562 c 0
 532 581 523 595 523 619 c 0
 523 657 550 685 587 685 c 0
 633 685 664 650 664 597 c 0
 664 524 596 447 492 401 c 1
EndSplineSet
EndChar
StartChar: dcroat
Encoding: 273 273 206
Width: 500
Flags: W
HStem: 513 31<215 344 475 532>
VStem: -20.9818 123.847<112.125 121.972>
DStem: 345 513 466 513 323 429 406 294
Fore
345 513 m 1
 206 513 l 1
 215 544 l 1
 353 544 l 1
 357 557 360 569 361 573 c 0
 369 602 370 608 370 615 c 0
 370 633 355 643 329 643 c 2
 308 643 l 1
 308 670 l 1
 408 678 457 685 517 699 c 1
 474 544 l 1
 540 544 l 1
 532 513 l 1
 466 513 l 1
 406 294 l 2
 371 167 349 80 349 71 c 0
 349 65 355 59 360 59 c 0
 375 59 400 86 427 131 c 1
 449 115 l 1
 394 27 349 -11 300 -11 c 0
 262 -11 240 12 240 51 c 0
 240 66 243 81 251 118 c 1
 194 23 148 -13 85 -13 c 0
 24 -13 -21 40 -21 112 c 0
 -21 269 129 462 251 462 c 0
 280 462 299 453 323 429 c 1
 345 513 l 1
271 420 m 0
 241 422 205 390 173 333 c 0
 137 268 106 176 103 122 c 0
 101 87 119 59 144 59 c 0
 173 59 202 84 230 133 c 0
 264 196 308 328 308 370 c 0
 308 398 293 419 271 420 c 0
EndSplineSet
MinimumDistance: x13,-1 
EndChar
StartChar: Eogonek
Encoding: 280 280 213
Width: 667
Flags: W
HStem: -172.996 68.9961<544 585> 0 32<245 277> 337.774 32.2258<276 293> 637 32<389 421>
VStem: 438.004 83.9958<-92 -41>
DStem: 176 546 336 593 53 97 275 370 176 546 508 472 53 97 434 199 176 546 266 338 53 97 210 129
Fore
586 194 m 1
 539 41 l 2
 526 -1 522 -23 522 -41 c 0
 522 -82 545 -104 585 -104 c 0
 600 -104 611 -101 631 -91 c 0
 639 -87 640 -86 645 -84 c 1
 667 -98 l 1
 642 -144 594 -173 544 -173 c 0
 483 -173 438 -139 438 -92 c 0
 438 -65 447 -45 481 0 c 1
 -27 0 l 1
 -27 25 l 1
 25 33 37 44 53 97 c 1
 176 546 l 2
 182 568 186 591 186 606 c 0
 186 627 175 635 144 639 c 0
 139 640 127 642 113 644 c 1
 113 669 l 1
 653 669 l 1
 610 479 l 1
 583 484 l 1
 583 546 576 571 553 595 c 0
 526 622 472 637 399 637 c 0
 358 637 346 628 336 593 c 1
 275 370 l 1
 407 369 433 382 480 476 c 1
 508 472 l 1
 434 199 l 1
 406 204 l 1
 409 223 410 234 410 248 c 0
 410 317 380 336 266 338 c 1
 210 129 l 1
 208 123 l 1
 207 115 205 109 203 104 c 0
 198 84 195 73 195 66 c 0
 195 42 213 32 256 32 c 0
 342 32 410 51 466 90 c 0
 505 117 526 142 561 199 c 1
 586 194 l 1
EndSplineSet
MinimumDistance: x2,-1 
EndChar
StartChar: eogonek
Encoding: 281 281 214
Width: 444
Flags: W
HStem: -172.996 68.9961<281 322> -12.9977 63.9977<156 200> 429 32.3367<277 283>
VStem: 5 130<124 147> 175.004 83.9958<-92 -37> 305.09 92.9102<375 395>
Fore
317 142 m 1
 346 125 l 1
 324 89 314 74 296 52 c 0
 266 15 259 -3 259 -37 c 0
 259 -81 280 -104 322 -104 c 0
 337 -104 348 -101 368 -91 c 0
 376 -87 377 -86 382 -84 c 1
 404 -98 l 1
 379 -144 331 -173 281 -173 c 0
 220 -173 175 -139 175 -92 c 0
 175 -65 184 -46 216 -3 c 1
 193 -10 177 -13 156 -13 c 0
 69 -13 5 50 5 134 c 0
 5 299 149 462 293 462 c 0
 354 462 398 426 398 375 c 0
 398 340 379 302 344 270 c 0
 294 224 245 202 141 182 c 1
 137 162 135 149 135 133 c 0
 135 79 157 51 200 51 c 0
 242 51 270 73 317 142 c 1
148 214 m 1
 159 218 174 223 181 225 c 0
 258 254 306 319 306 395 c 0
 306 417 297 429 278 429 c 0
 230 429 184 352 148 214 c 1
EndSplineSet
MinimumDistance: x14,-1 
EndChar
StartChar: Gcommaaccent
Encoding: 290 290 223
Width: 722
Flags: W
HStem: -17.9462 37.9462<324 343> 649 36<447 469>
VStem: 21.364 156.415<208 251> 184.614 139.834<-128 -106> 419 287<304 329>
Fore
706 330 m 1
 706 304 l 1
 653 300 646 292 627 222 c 1
 579 41 l 1
 551 28 l 2
 494 2 394 -18 317 -18 c 0
 142 -18 21 92 21 251 c 0
 21 404 108 555 240 632 c 0
 301 667 372 685 448 685 c 0
 494 685 527 679 572 664 c 0
 591 657 599 655 608 655 c 0
 628 655 639 663 650 685 c 1
 681 685 l 1
 630 464 l 1
 601 468 l 1
 599 536 592 565 570 598 c 0
 548 630 509 649 462 649 c 0
 417 649 374 633 336 601 c 0
 245 524 177 357 177 208 c 0
 177 86 235 20 341 20 c 0
 380 20 421 33 435 50 c 0
 439 55 439 55 462 133 c 0
 489 225 493 242 493 268 c 0
 493 277 487 288 481 292 c 0
 470 298 462 300 419 304 c 1
 419 330 l 1
 706 330 l 1
153 -324 m 1
 141 -303 l 1
 212 -265 247 -230 247 -198 c 0
 247 -185 240 -176 220 -163 c 0
 193 -144 184 -130 184 -106 c 0
 184 -68 211 -40 248 -40 c 0
 294 -40 325 -75 325 -128 c 0
 325 -201 257 -278 153 -324 c 1
EndSplineSet
MinimumDistance: x0,-1 
EndChar
StartChar: gcommaaccent
Encoding: 291 291 224
Width: 500
Flags: W
HStem: -203 34<135 156> 153 31<188 204> 373 56<412 477> 431 31<252 259>
VStem: -52 87<-101 -89> 35 116.004<243 280> 213 140.995<546 568> 265.994 109.006<-100 -53> 300 116.999<331 372> 300 178<373 385.198>
Fore
385 764 m 1
 397 743 l 1
 326 705 291 670 291 638 c 0
 291 625 298 616 318 603 c 0
 345 584 354 570 354 546 c 0
 354 508 327 480 290 480 c 0
 244 480 213 515 213 568 c 0
 213 641 281 718 385 764 c 1
478 429 m 1
 478 373 l 1
 411 373 l 1
 416 357 417 347 417 331 c 0
 417 271 386 220 328 187 c 0
 289 165 245 153 201 153 c 0
 190 153 181 154 170 157 c 0
 162 160 155 161 150 161 c 0
 137 161 122 141 122 125 c 0
 122 110 141 96 173 87 c 2
 226 72 l 2
 335 41 375 7 375 -53 c 0
 375 -141 276 -203 136 -203 c 0
 21 -203 -52 -162 -52 -97 c 0
 -52 -73 -41 -49 -24 -35 c 0
 -1 -16 19 -8 81 7 c 1
 37 22 19 42 19 73 c 0
 19 110 34 124 115 170 c 1
 61 193 35 229 35 280 c 0
 35 381 134 462 257 462 c 0
 303 462 334 453 367 429 c 1
 478 429 l 1
115 -6 m 0
 108 -5 77 -23 65 -35 c 0
 44 -55 35 -71 35 -91 c 0
 35 -137 81 -169 146 -169 c 0
 222 -169 266 -143 266 -100 c 0
 266 -74 253 -56 225 -43 c 0
 205 -33 126 -7 115 -6 c 0
255 431 m 0
 229 431 208 415 189 382 c 0
 168 344 151 283 151 243 c 0
 151 205 166 184 194 184 c 0
 224 184 249 206 271 252 c 0
 288 288 300 338 300 372 c 128
 300 406 281 431 255 431 c 0
EndSplineSet
MinimumDistance: x7,-1 
EndChar
StartChar: Hbar
Encoding: 294 294 227
Width: 778
Flags: W
HStem: 0 21G<-24 272 340 657> 329 44<279 504> 478 70<104 152 328 536 713 769> 478 191<306 326 692 712>
VStem: -24 296<1 25> 116 317<644 668> 340 317<1 25> 501 298<644 668>
DStem: 104 548 692.191 478 84 478 609 175 159.523 478 306.492 478 56 97 278 373 159.523 478 692.191 478 56 97 609 175 159.523 478 266 329 56 97 216 148 505 329 692.191 478 441 97 609 175 505 329 609 175 441 97 603 153 545.526 478 692.191 478 517 373 609 175
Fore
711.411 548 m 1
 788 548 l 5
 769 478 l 5
 692.191 478 l 1
 609 175 l 1
 603 153 l 2
 589 103 584 80 584 66 c 0
 584 37 602 27 657 25 c 1
 657 0 l 1
 340 0 l 1
 340 25 l 1
 407 29 427 43 441 97 c 1
 505 329 l 1
 266 329 l 1
 216 148 l 1
 215 143 213 138 212 132 c 0
 203 100 199 82 199 68 c 0
 199 36 209 30 272 25 c 1
 272 0 l 1
 -24 0 l 1
 -24 25 l 1
 26 32 40 45 56 97 c 1
 159.523 478 l 1
 84 478 l 5
 104 548 l 5
 178.535 548 l 1
 185.204 573.076 189 593.283 189 604 c 0
 189 626 178 635 147 639 c 0
 142 640 130 642 116 644 c 1
 116 669 l 1
 433 669 l 1
 433 644 l 1
 368 642 348 627 332 572 c 1
 325.487 548 l 1
 564.542 548 l 1
 569.355 566.215 574 595.433 574 607 c 0
 574 627 564 635 533 639 c 0
 528 640 515 642 501 644 c 1
 501 669 l 1
 799 669 l 1
 799 644 l 1
 748 637 734 625 718 572 c 1
 711.411 548 l 1
545.526 478 m 1
 306.492 478 l 1
 278 373 l 1
 517 373 l 1
 545.526 478 l 1
EndSplineSet
EndChar
StartChar: hbar
Encoding: 295 295 228
Width: 556
Flags: W
HStem: 0 21G<-13 108> 500 70<48 115 262 357>
VStem: 352.006 122.009<369 387>
Fore
260.82 570 m 1
 373 570 l 1
 357 500 l 1
 242.815 500 l 1
 187 283 l 1
 243 363 267 393 298 419 c 0
 334 449 363 462 399 462 c 0
 446 462 475 434 475 387 c 0
 475 368 464 326 445 265 c 1
 387 87 l 2
 384 78 384 77 384 75 c 0
 384 68 394 59 401 59 c 0
 414 59 433 80 476 142 c 1
 498 127 l 1
 432 24 392 -9 331 -9 c 0
 292 -9 265 15 265 49 c 0
 265 90 278 140 326 280 c 0
 330 290 333 301 337 313 c 0
 344 333 348 344 348 346 c 0
 351 355 353 363 353 369 c 0
 353 380 343 390 331 390 c 0
 305 390 272 361 230 301 c 0
 180 228 159 178 108 0 c 1
 -13 0 l 1
 122.802 500 l 1
 31 500 l 1
 48 570 l 1
 141.781 570 l 1
 146.311 587.58 149 601.479 149 610 c 0
 149 632 135 643 108 643 c 0
 103 643 94 643 86 642 c 1
 86 669 l 1
 167 676 217 684 294 699 c 1
 260.82 570 l 1
EndSplineSet
EndChar
StartChar: Iogonek
Encoding: 302 302 235
Width: 389
Flags: W
HStem: -172.996 68.9961<266 307> 649 20G<108 406>
VStem: -32 296<0 25> 108 298<644 668> 160.004 83.9958<-92 -45>
DStem: 171 546 324 572 48 97 210 152
Fore
264 25 m 1
 264 0 l 1
 251 -11 244 -27 244 -45 c 0
 244 -81 268 -104 307 -104 c 0
 323 -104 333 -101 353 -91 c 0
 361 -86 362 -86 367 -84 c 1
 389 -98 l 1
 364 -144 316 -173 266 -173 c 0
 205 -173 160 -139 160 -92 c 0
 160 -65 169 -45 203 0 c 1
 -32 0 l 1
 -32 25 l 1
 17 31 32 45 48 97 c 1
 171 546 l 2
 176 564 181 595 181 607 c 0
 181 627 171 635 140 639 c 0
 135 640 122 642 108 644 c 1
 108 669 l 1
 406 669 l 1
 406 644 l 1
 355 638 340 625 324 572 c 1
 210 152 l 2
 197 103 192 80 192 65 c 0
 192 37 207 28 264 25 c 1
EndSplineSet
MinimumDistance: x20,-1 
EndChar
StartChar: iogonek
Encoding: 303 303 236
Width: 278
Flags: W
HStem: -172.996 68.9961<155 196> 550 135<183.109 204>
VStem: 49.004 83.996<-92 -40> 128 135<611 627>
DStem: 73 338 223 462 15 123 132 128
Fore
216 141 m 1
 238 127 l 1
 211 85 201 71 177 47 c 0
 142 10 133 -7 133 -40 c 0
 133 -81 155 -104 196 -104 c 0
 211 -104 222 -101 242 -91 c 0
 250 -87 251 -86 256 -84 c 1
 278 -98 l 1
 253 -144 205 -173 155 -173 c 0
 94 -173 49 -139 49 -92 c 0
 49 -66 57 -48 86 -8 c 1
 79 -9 72 -9 69 -9 c 0
 30 -9 2 17 2 54 c 0
 2 67 7 95 15 123 c 1
 73 338 l 1
 77 355 80 370 80 378 c 0
 80 399 64 407 21 407 c 1
 21 434 l 1
 99 440 169 450 223 462 c 1
 132 128 l 2
 129 116 123 82 123 76 c 0
 123 68 130 61 138 61 c 0
 153 61 176 82 202 121 c 2
 216 141 l 1
194 685 m 0
 231 685 263 654 263 617 c 0
 263 580 232 550 194 550 c 0
 157 550 128 580 128 619 c 0
 128 654 159 685 194 685 c 0
EndSplineSet
MinimumDistance: x24,-1 
EndChar
StartChar: dotlessi
Encoding: 305 305 238
Width: 278
Flags: W
DStem: 73 338 223 462 15 123 132 128
Fore
216 141 m 1
 238 127 l 1
 168 22 131 -9 71 -9 c 0
 30 -9 2 17 2 54 c 0
 2 67 7 95 15 123 c 1
 73 338 l 1
 77 355 80 370 80 378 c 0
 80 399 64 407 21 407 c 1
 21 434 l 1
 99 440 169 450 223 462 c 1
 132 128 l 2
 129 116 123 82 123 76 c 0
 123 68 130 61 138 61 c 0
 153 61 176 82 202 121 c 2
 216 141 l 1
EndSplineSet
MinimumDistance: x9,-1 
EndChar
StartChar: ij
Encoding: 307 307 240
Width: 547
Flags: W
HStem: -207 31<178 186> 550 134<184 199 471 487>
VStem: 7 120<69 87> 78 98<-131 -124> 128 135<609 625> 411 135<609 625>
DStem: 314 178 506 462 256 -45 392 24
Fore
546 616 m 0
 546 578 514 550 477 550 c 0
 439 550 411 581 411 618 c 0
 411 653 442 684 477 684 c 0
 514 684 546 653 546 616 c 0
263 616 m 0
 263 578 231 550 194 550 c 0
 156 550 128 581 128 618 c 0
 128 653 159 684 194 684 c 0
 231 684 263 653 263 616 c 0
506 462 m 1
 392 24 l 2
 365 -80 310 -207 184 -207 c 0
 137 -207 78 -186 78 -130 c 0
 78 -103 99 -77 127 -77 c 0
 154 -77 176 -99 176 -126 c 0
 176 -147 161 -156 161 -164 c 0
 161 -171 178 -176 183 -176 c 0
 229 -176 247 -78 256 -45 c 1
 314 178 l 1
 316 187 319 195 321 204 c 1
 272 126 189 -9 85 -9 c 0
 30 -9 7 17 7 69 c 0
 7 144 80 312 80 375 c 0
 80 408 46 408 21 407 c 1
 21 434 l 1
 88 439 157 447 223 462 c 1
 193 352 159 241 133 130 c 1
 130 130 127 93 127 87 c 0
 127 71 134 63 150 63 c 0
 189 63 244 146 267 176 c 0
 302 223 327 263 342 321 c 0
 347 339 351 358 351 376 c 0
 351 412 327 409 298 407 c 1
 298 434 l 1
 368 440 437 447 506 462 c 1
EndSplineSet
MinimumDistance: x0,-1 
Ligature: 8 0 'liga' i j
EndChar
StartChar: jcircumflex
Encoding: 309 309 242
Width: 278
Flags: W
HStem: -207 31<-89 -77>
VStem: -189 98<-131 -124>
DStem: 81 310 239 462 -11 -45 125 24
Fore
31 407 m 1
 31 434 l 1
 143 444 180 449 239 462 c 1
 125 24 l 2
 85 -131 16 -207 -84 -207 c 0
 -146 -207 -189 -176 -189 -130 c 0
 -189 -101 -166 -77 -140 -77 c 0
 -113 -77 -91 -99 -91 -126 c 0
 -91 -137 -93 -142 -104 -158 c 0
 -105 -160 -106 -162 -106 -164 c 0
 -106 -169 -93 -176 -82 -176 c 0
 -54 -176 -37 -145 -11 -45 c 2
 81 310 l 1
 88 339 93 364 93 376 c 0
 93 402 81 407 31 407 c 1
292 595 m 1
 204 690 l 1
 73 595 l 1
 16 595 l 1
 176 769 l 1
 257 769 l 1
 343 595 l 1
 292 595 l 1
EndSplineSet
MinimumDistance: x2,-1 
EndChar
StartChar: Kcommaaccent
Encoding: 310 310 243
Width: 667
Flags: W
HStem: 0 21G<-21 268 332 612> 642 27<507 512>
VStem: -21 289<1 25> 119 310<644 668> 156.614 139.834<-128 -106> 332 280<1 25> 491 211<644 668>
DStem: 181 546 335 572 59 97 273 344 181 546 271 337 59 97 204 88 271 337 392 398 384 95 549 60
Fore
392 398 m 1
 549 60 l 2
 560 36 574 29 612 25 c 1
 612 0 l 1
 332 0 l 1
 332 25 l 1
 344 26 355 27 359 28 c 0
 385 30 397 38 397 52 c 0
 397 63 393 75 384 95 c 2
 271 337 l 1
 204 88 l 1
 203 83 202 77 202 71 c 0
 202 38 216 29 268 25 c 1
 268 0 l 1
 -21 0 l 1
 -21 25 l 1
 28 31 43 44 59 97 c 1
 181 546 l 2
 188 572 192 593 192 604 c 0
 192 626 181 635 150 639 c 0
 145 640 133 642 119 644 c 1
 119 669 l 1
 429 669 l 1
 429 644 l 1
 370 639 351 624 335 572 c 1
 273 344 l 1
 479 520 547 588 547 617 c 0
 547 632 537 639 512 642 c 0
 509 642 500 643 491 644 c 1
 491 669 l 1
 702 669 l 1
 702 644 l 1
 659 638 651 635 608 596 c 2
 392 398 l 1
125 -324 m 1
 113 -303 l 1
 184 -265 219 -230 219 -198 c 0
 219 -185 212 -176 192 -163 c 0
 165 -144 156 -130 156 -106 c 0
 156 -68 183 -40 220 -40 c 0
 266 -40 297 -75 297 -128 c 0
 297 -201 229 -278 125 -324 c 1
EndSplineSet
EndChar
StartChar: kcommaaccent
Encoding: 311 311 244
Width: 500
Flags: W
HStem: -7.99557 70.9956<311 363> 0 21G<-23 99>
VStem: 73.6141 139.834<-128 -106> 276 207<424 448>
DStem: 133 567 286 699 -23 0 163 239 133 567 149 188 -23 0 99 0
Fore
149 188 m 1
 99 0 l 1
 -23 0 l 1
 133 567 l 2
 138 586 141 600 141 609 c 0
 141 632 127 643 99 643 c 0
 95 643 86 643 78 642 c 1
 78 669 l 1
 157 677 209 685 286 699 c 1
 163 239 l 1
 289 338 327 375 327 401 c 0
 327 417 315 422 276 424 c 1
 276 449 l 1
 483 449 l 1
 483 424 l 1
 437 418 416 406 348 348 c 2
 285 293 l 1
 323 98 335 63 363 63 c 0
 382 63 398 80 425 127 c 1
 447 116 l 1
 397 25 361 -8 311 -8 c 0
 249 -8 219 45 188 215 c 1
 149 188 l 1
42 -324 m 1
 30 -303 l 1
 101 -265 136 -230 136 -198 c 0
 136 -185 129 -176 109 -163 c 0
 82 -144 73 -130 73 -106 c 0
 73 -68 100 -40 137 -40 c 0
 183 -40 214 -75 214 -128 c 0
 214 -201 146 -278 42 -324 c 1
EndSplineSet
MinimumDistance: x13,-1 
EndChar
StartChar: kgreenlandic
Encoding: 312 312 245
Width: 534
Flags: W
HStem: 0 24.3931<417 418> 213.437 47.5635<185 186> 361 109<452 458>
DStem: 86 328 171 214 -6 0 113 0
Fore
171 214 m 1
 113 0 l 1
 -6 0 l 1
 86 328 l 2
 95 360 98 372 96 382 c 0
 92 401 84 406 42 407 c 1
 42 434 l 1
 98 436 176 447 240 461 c 1
 184 261 l 1
 205 261 l 2
 238 261 290 330 313 368 c 0
 327 390 376 470 453 470 c 0
 509 470 514 447 514 410 c 0
 514 380 486 361 455 361 c 0
 413 361 427 396 401 396 c 0
 364 396 329 271 267 243 c 1
 296 242 332 228 341 200 c 1
 399 39 l 2
 404 26 413 24 424 24 c 1
 418 0 l 1
 270 0 l 1
 214 168 l 1
 214 168 202 214 181 214 c 2
 171 214 l 1
EndSplineSet
MinimumDistance: x0,-1 
EndChar
StartChar: Lcommaaccent
Encoding: 315 315 248
Width: 611
Flags: W
HStem: 0 32<250 282> 649 20G<118 435>
VStem: 118 317<644 668> 128.614 139.834<-128 -106>
DStem: 181 546 334 572 58 97 205 94
Fore
590 194 m 1
 531 0 l 1
 -22 0 l 1
 -22 25 l 1
 27 32 42 45 58 97 c 1
 181 546 l 2
 186 564 191 595 191 607 c 0
 191 627 181 635 150 639 c 0
 145 640 132 642 118 644 c 1
 118 669 l 1
 435 669 l 1
 435 644 l 1
 369 640 350 627 334 572 c 1
 205 94 l 2
 202 83 200 70 200 62 c 0
 200 41 220 32 264 32 c 0
 346 32 417 52 471 90 c 0
 510 118 532 143 566 199 c 1
 590 194 l 1
97 -324 m 1
 85 -303 l 1
 156 -265 191 -230 191 -198 c 0
 191 -185 184 -176 164 -163 c 0
 137 -144 128 -130 128 -106 c 0
 128 -68 155 -40 192 -40 c 0
 238 -40 269 -75 269 -128 c 0
 269 -201 201 -278 97 -324 c 1
EndSplineSet
MinimumDistance: x12,-1 
EndChar
StartChar: lcommaaccent
Encoding: 316 316 249
Width: 278
Flags: W
VStem: -37.3859 139.834<-128 -106>
DStem: 110 473 290 699 36 209 145 176
Fore
216 141 m 1
 238 127 l 1
 169 22 131 -9 69 -9 c 0
 29 -9 2 15 2 51 c 0
 2 75 14 133 36 209 c 1
 110 473 l 1
 130 540 144 602 144 615 c 0
 144 633 129 643 102 643 c 0
 98 643 92 643 81 642 c 1
 81 669 l 1
 156 676 204 682 290 699 c 1
 145 176 l 1
 131 124 123 90 123 76 c 0
 123 68 130 61 138 61 c 0
 155 61 176 82 216 141 c 1
-69 -324 m 1
 -81 -303 l 1
 -10 -265 25 -230 25 -198 c 0
 25 -185 18 -176 -2 -163 c 0
 -29 -144 -38 -130 -38 -106 c 0
 -38 -68 -11 -40 26 -40 c 0
 72 -40 103 -75 103 -128 c 0
 103 -201 35 -278 -69 -324 c 1
EndSplineSet
EndChar
StartChar: Lcaron
Encoding: 317 317 250
Width: 638
Flags: W
HStem: 0 32<250 282> 649 20G<118 435>
VStem: 118 317<644 668> 510.915 139.705<597 619>
DStem: 181 546 334 572 58 97 205 94
Fore
590 194 m 1
 531 0 l 1
 -22 0 l 1
 -22 25 l 1
 27 32 42 45 58 97 c 1
 181 546 l 2
 186 564 191 595 191 607 c 0
 191 627 181 635 150 639 c 0
 145 640 132 642 118 644 c 1
 118 669 l 1
 435 669 l 1
 435 644 l 1
 369 640 350 627 334 572 c 1
 205 94 l 2
 202 83 200 70 200 62 c 0
 200 41 220 32 264 32 c 0
 346 32 417 52 471 90 c 0
 510 118 532 143 566 199 c 1
 590 194 l 1
479 401 m 1
 467 422 l 1
 538 460 573 495 573 527 c 0
 573 540 566 549 546 562 c 0
 519 581 510 595 510 619 c 0
 510 657 537 685 574 685 c 0
 620 685 651 650 651 597 c 0
 651 524 583 447 479 401 c 1
EndSplineSet
EndChar
StartChar: lcaron
Encoding: 318 318 251
Width: 424
Flags: W
VStem: 305 140.996<597 619>
DStem: 110 473 290 699 36 209 145 176
Fore
216 141 m 1
 238 127 l 1
 169 22 131 -9 69 -9 c 0
 29 -9 2 15 2 51 c 0
 2 75 14 133 36 209 c 1
 110 473 l 1
 130 540 144 602 144 615 c 0
 144 633 129 643 102 643 c 0
 98 643 92 643 81 642 c 1
 81 669 l 1
 156 676 204 682 290 699 c 1
 145 176 l 1
 131 124 123 90 123 76 c 0
 123 68 130 61 138 61 c 0
 155 61 176 82 216 141 c 1
274 401 m 1
 262 422 l 1
 333 460 368 495 368 527 c 0
 368 540 361 549 341 562 c 0
 314 581 305 595 305 619 c 0
 305 657 332 685 369 685 c 0
 415 685 446 650 446 597 c 0
 446 524 378 447 274 401 c 1
EndSplineSet
EndChar
StartChar: Lslash
Encoding: 321 321 254
Width: 611
Flags: W
HStem: 0 32<250 291> 649 20G<118 435>
VStem: 118 317<644 668>
DStem: 108 278 271 338 58 97 205 94 181 546 334 572 126 345 290 410 440 491 419 421 290 410 271 338
Fore
590 194 m 1
 531 0 l 1
 -22 0 l 1
 -22 25 l 1
 28 32 42 45 58 97 c 1
 108 278 l 1
 4 222 l 1
 26 292 l 1
 126 345 l 1
 181 546 l 2
 186 564 191 595 191 607 c 0
 191 627 181 635 150 639 c 0
 145 640 132 642 118 644 c 1
 118 669 l 1
 435 669 l 1
 435 644 l 1
 369 640 350 627 334 572 c 1
 290 410 l 1
 440 491 l 1
 419 421 l 1
 271 338 l 1
 205 94 l 2
 202 83 200 70 200 62 c 0
 200 41 220 32 264 32 c 0
 346 32 417 52 471 90 c 0
 510 118 532 143 566 199 c 1
 590 194 l 1
EndSplineSet
MinimumDistance: x14,-1 
EndChar
StartChar: lslash
Encoding: 322 322 255
Width: 278
Flags: W
DStem: 6 336 196 359 -13 266 145 176
Fore
216 141 m 1
 238 127 l 1
 169 22 131 -9 70 -9 c 0
 28 -9 2 15 2 53 c 0
 2 79 16 137 64 309 c 1
 -13 266 l 1
 6 336 l 1
 84 379 l 1
 127 531 144 599 144 615 c 0
 144 633 129 643 102 643 c 0
 97 643 92 643 81 642 c 1
 81 669 l 1
 156 676 204 683 290 699 c 1
 215 427 l 1
 301 474 l 1
 282 406 l 1
 196 359 l 1
 145 176 l 2
 131 125 123 90 123 76 c 0
 123 68 130 61 138 61 c 0
 156 61 176 82 216 141 c 1
EndSplineSet
MinimumDistance: x16,-1 
EndChar
StartChar: Ncommaaccent
Encoding: 325 325 258
Width: 722
Flags: W
HStem: 0 21G<-27 181> 649 20G<111 306 539 748>
VStem: -27 208<1 25> 184.614 139.834<-128 -106> 539 209<644 668>
DStem: 194 589 218 534 74 178 119 178 218 534 306 669 475 -15 521 204 601 491 646 491 521 204 503 -15
Fore
306 669 m 1
 521 204 l 1
 601 491 l 2
 612 531 619 567 619 585 c 0
 619 623 598 639 539 644 c 1
 539 669 l 1
 748 669 l 1
 748 644 l 1
 690 631 685 623 646 491 c 1
 503 -15 l 1
 475 -15 l 1
 218 534 l 1
 119 178 l 1
 108 137 101 102 101 84 c 0
 101 45 122 30 181 25 c 1
 181 0 l 1
 -27 0 l 1
 -27 25 l 1
 28 36 35 47 74 178 c 1
 194 589 l 1
 175 633 166 639 111 644 c 1
 111 669 l 1
 306 669 l 1
153 -324 m 1
 141 -303 l 1
 212 -265 247 -230 247 -198 c 0
 247 -185 240 -176 220 -163 c 0
 193 -144 184 -130 184 -106 c 0
 184 -68 211 -40 248 -40 c 0
 294 -40 325 -75 325 -128 c 0
 325 -201 257 -278 153 -324 c 1
EndSplineSet
EndChar
StartChar: ncommaaccent
Encoding: 326 326 259
Width: 556
Flags: W
HStem: 0 21G<-6 115>
VStem: 101.614 139.834<-128 -106> 353.957 120.043<369 387>
DStem: 349 348 448 272 294 182 412 163
Fore
471 135 m 1
 493 122 l 1
 435 25 393 -9 334 -9 c 0
 292 -9 266 14 266 51 c 0
 266 77 278 134 294 182 c 2
 349 348 l 2
 352 358 354 366 354 369 c 0
 354 379 341 390 329 390 c 0
 311 390 280 368 260 341 c 0
 198 260 162 173 115 0 c 1
 -6 0 l 1
 23 108 l 1
 50 204 l 2
 84 324 96 371 96 382 c 0
 96 401 84 406 42 407 c 1
 42 434 l 1
 98 436 178 447 242 461 c 1
 178 263 l 1
 245 362 264 386 300 421 c 0
 328 447 364 462 401 462 c 0
 448 462 474 435 474 387 c 0
 474 363 464 318 448 272 c 1
 412 163 l 2
 394 109 387 86 387 76 c 128
 387 66 393 59 401 59 c 0
 418 59 431 73 471 135 c 1
70 -324 m 1
 58 -303 l 1
 129 -265 164 -230 164 -198 c 0
 164 -185 157 -176 137 -163 c 0
 110 -144 101 -130 101 -106 c 0
 101 -68 128 -40 165 -40 c 0
 211 -40 242 -75 242 -128 c 0
 242 -201 174 -278 70 -324 c 1
EndSplineSet
MinimumDistance: x20,-1 
EndChar
StartChar: napostrophe
Encoding: 329 329 262
Width: 556
Flags: W
HStem: 0 21G<-6 115>
VStem: 353.957 120.043<369 387>
DStem: 349 348 448 272 294 182 412 163
Fore
471 135 m 1
 493 122 l 1
 435 25 393 -9 334 -9 c 0
 292 -9 266 14 266 51 c 0
 266 77 278 134 294 182 c 2
 349 348 l 2
 352 358 354 366 354 369 c 0
 354 379 341 390 329 390 c 0
 311 390 280 368 260 341 c 0
 198 260 162 173 115 0 c 1
 -6 0 l 1
 23 108 l 1
 50 204 l 2
 84 324 96 371 96 382 c 0
 96 401 84 406 42 407 c 1
 42 434 l 1
 98 436 178 447 242 461 c 1
 178 263 l 1
 245 362 264 386 300 421 c 0
 328 447 364 462 401 462 c 0
 448 462 474 435 474 387 c 0
 474 363 464 318 448 272 c 1
 412 163 l 2
 394 109 387 86 387 76 c 128
 387 66 393 59 401 59 c 0
 418 59 431 73 471 135 c 1
EndSplineSet
MinimumDistance: x20,-1 
EndChar
StartChar: Eng
Encoding: 330 330 263
Width: 722
Flags: W
HStem: 0 21G<-27 181> 649 20G<111 306 539 748>
VStem: -27 208<1 25> 539 209<644 668>
DStem: 194 589 218 534 74 178 119 178 218 534 306 669 475 -15 521 204 601 491 646 491 521 204 503 -15
Fore
306 669 m 1
 521 204 l 1
 601 491 l 2
 612 531 619 567 619 585 c 0
 619 623 598 639 539 644 c 1
 539 669 l 1
 748 669 l 1
 748 644 l 1
 690 631 685 623 646 491 c 1
 503 -15 l 1
 475 -15 l 1
 218 534 l 1
 119 178 l 1
 108 137 101 102 101 84 c 0
 101 45 122 30 181 25 c 1
 181 0 l 1
 -27 0 l 1
 -27 25 l 1
 28 36 35 47 74 178 c 1
 194 589 l 1
 175 633 166 639 111 644 c 1
 111 669 l 1
 306 669 l 1
EndSplineSet
EndChar
StartChar: eng
Encoding: 331 331 264
Width: 556
Flags: W
HStem: 0 21G<-6 115>
VStem: 353.957 120.043<369 387>
DStem: 349 348 448 272 294 182 412 163
Fore
471 135 m 1
 493 122 l 1
 435 25 393 -9 334 -9 c 0
 292 -9 266 14 266 51 c 0
 266 77 278 134 294 182 c 2
 349 348 l 2
 352 358 354 366 354 369 c 0
 354 379 341 390 329 390 c 0
 311 390 280 368 260 341 c 0
 198 260 162 173 115 0 c 1
 -6 0 l 1
 23 108 l 1
 50 204 l 2
 84 324 96 371 96 382 c 0
 96 401 84 406 42 407 c 1
 42 434 l 1
 98 436 178 447 242 461 c 1
 178 263 l 1
 245 362 264 386 300 421 c 0
 328 447 364 462 401 462 c 0
 448 462 474 435 474 387 c 0
 474 363 464 318 448 272 c 1
 412 163 l 2
 394 109 387 86 387 76 c 128
 387 66 393 59 401 59 c 0
 418 59 431 73 471 135 c 1
EndSplineSet
MinimumDistance: x20,-1 
EndChar
StartChar: OE
Encoding: 338 338 271
Width: 944
Flags: W
HStem: -9 33.4921<273 274> 0 32<583 622> 637 32<695 741> 645 31.5792<438 455>
VStem: 23 141.001<158 223>
DStem: 500 514 659 590 392 123 598 370 500 514 814 470 392 123 742 198
Fore
946 669 m 1
 900 478 l 1
 875 484 l 1
 876 498 877 512 877 521 c 0
 877 599 822 637 712 637 c 0
 677 637 670 631 659 590 c 1
 598 370 l 1
 619 370 l 1
 623 370 l 2
 713 369 755 396 787 473 c 1
 814 470 l 1
 742 198 l 1
 715 203 l 1
 716 212 716 219 716 222 c 0
 718 239 719 255 719 263 c 0
 719 282 712 299 699 311 c 0
 684 324 664 329 589 336 c 1
 525 91 l 1
 523 82 521 72 521 66 c 0
 521 42 542 32 594 32 c 0
 711 32 782 78 851 199 c 1
 878 194 l 1
 818 0 l 1
 522 0 l 1
 494 0 l 2
 484 -1 475 -1 470 -1 c 2
 448 -1 l 1
 294 -8 l 1
 274 -9 l 2
 194 -9 139 8 95 46 c 0
 48 85 23 148 23 223 c 0
 23 364 99 513 217 602 c 0
 291 657 356 677 464 677 c 0
 478 677 489 676 520 674 c 0
 561 671 594 669 611 669 c 2
 946 669 l 1
392 123 m 2
 500 514 l 2
 507 540 512 567 512 582 c 0
 512 623 486 645 439 645 c 0
 379 645 329 613 281 545 c 0
 218 454 164 275 164 158 c 0
 164 77 212 24 285 24 c 0
 343 24 372 51 392 123 c 2
EndSplineSet
MinimumDistance: x10,-1 
EndChar
StartChar: oe
Encoding: 339 339 272
Width: 722
Flags: W
HStem: -13 29<167 182> -12.9975 62.9975<431 473> 433 28.2221<281 284 548 554>
VStem: 6 118.002<97 144> 586 87.9954<371 392>
Fore
591 139 m 1
 619 124 l 1
 593 75 576 52 552 32 c 0
 517 2 476 -13 431 -13 c 0
 385 -13 353 3 314 44 c 1
 271 5 224 -13 166 -13 c 0
 71 -13 6 51 6 144 c 0
 6 195 22 249 51 301 c 0
 109 401 203 462 300 462 c 0
 353 462 385 445 416 400 c 1
 475 447 510 462 562 462 c 0
 631 462 674 427 674 371 c 0
 674 326 644 282 587 245 c 0
 542 216 517 207 414 184 c 1
 408 156 406 143 406 128 c 0
 406 77 430 50 473 50 c 0
 519 50 547 71 591 139 c 1
421 218 m 1
 448 226 457 229 469 234 c 0
 536 260 586 328 586 392 c 0
 586 416 572 432 549 432 c 0
 536 432 522 426 513 416 c 0
 482 380 473 361 421 218 c 1
282 433 m 0
 234 433 199 385 159 265 c 0
 136 197 124 140 124 97 c 0
 124 45 143 16 177 16 c 0
 213 16 242 45 273 110 c 0
 302 172 337 308 337 359 c 0
 337 408 318 433 282 433 c 0
EndSplineSet
EndChar
StartChar: Rcommaaccent
Encoding: 342 342 275
Width: 667
Flags: W
HStem: 0 21G<-29 267 400 602> 331 32<273.063 293> 637 32<371 389>
VStem: -29 296<1 25> 156.614 139.834<-128 -106> 472 151<524 544>
DStem: 174 546 333 593 51 97 273 363 174 546 264 331 51 97 209 138 293 331 431 343 400 0 514 97
Fore
111 644 m 1
 111 669 l 1
 387 669 l 2
 545 669 623 622 623 526 c 0
 623 470 594 419 543 385 c 0
 511 364 486 354 431 343 c 1
 514 97 l 1
 536 38 546 30 602 25 c 1
 602 0 l 1
 400 0 l 1
 293 331 l 1
 264 331 l 1
 209 138 l 2
 200 107 195 81 195 67 c 0
 195 37 209 29 267 25 c 1
 267 0 l 1
 -29 0 l 1
 -29 25 l 1
 20 31 35 45 51 97 c 1
 174 546 l 1
 179 563 184 595 184 607 c 0
 184 627 174 635 143 639 c 0
 138 640 125 642 111 644 c 1
333 593 m 1
 273 363 l 1
 335 364 374 371 400 388 c 0
 443 415 472 476 472 542 c 0
 472 602 439 637 382 637 c 0
 351 637 342 629 333 593 c 1
125 -324 m 1
 113 -303 l 1
 184 -265 219 -230 219 -198 c 0
 219 -185 212 -176 192 -163 c 0
 165 -144 156 -130 156 -106 c 0
 156 -68 183 -40 220 -40 c 0
 266 -40 297 -75 297 -128 c 0
 297 -201 229 -278 125 -324 c 1
EndSplineSet
MinimumDistance: x3,-1 
EndChar
StartChar: rcommaaccent
Encoding: 343 343 276
Width: 389
Flags: W
HStem: 0 21G<-21 100> 323 139<329 336>
VStem: -36.3859 139.834<-128 -106>
Fore
27 407 m 1
 27 434 l 1
 148 444 167 447 227 462 c 1
 161 253 l 1
 240 411 281 462 332 462 c 0
 366 462 389 436 389 396 c 0
 389 354 364 323 330 323 c 0
 314 323 301 331 286 348 c 0
 279 357 274 361 270 361 c 0
 257 361 235 336 209 291 c 0
 180 243 165 205 133 104 c 0
 129 89 115 46 100 0 c 1
 -21 0 l 1
 47 229 81 357 81 382 c 0
 81 401 72 405 27 407 c 1
-68 -324 m 1
 -80 -303 l 1
 -9 -265 26 -230 26 -198 c 0
 26 -185 19 -176 -1 -163 c 0
 -28 -144 -37 -130 -37 -106 c 0
 -37 -68 -10 -40 27 -40 c 0
 73 -40 104 -75 104 -128 c 0
 104 -201 36 -278 -68 -324 c 1
EndSplineSet
EndChar
StartChar: Scedilla
Encoding: 350 350 283
Width: 556
Flags: W
HStem: -217.019 40.019<141 152> -18 34<220 238> 649.915 34.2748<303 327> 661 20G<496 526>
VStem: 102.002 120.998<491 545> 197 91<-138 -129> 346.994 121.006<142 185>
DStem: 163 -9 202 -16 107 -92 172 -62
Fore
202 -16 m 1
 172 -62 l 1
 182 -60 188 -59 197 -59 c 0
 250 -59 288 -89 288 -131 c 0
 288 -181 235 -218 164 -218 c 0
 127 -218 95 -211 52 -193 c 1
 74 -160 l 1
 102 -173 119 -177 141 -177 c 0
 175 -177 197 -161 197 -136 c 0
 197 -114 179 -100 150 -100 c 0
 139 -100 131 -101 120 -104 c 1
 107 -92 l 1
 163 -9 l 1
 147 -4 133 0 116 6 c 0
 92 14 79 17 70 17 c 0
 51 17 44 11 32 -18 c 1
 2 -18 l 1
 38 206 l 1
 67 204 l 1
 71 144 79 114 98 83 c 0
 123 41 169 16 221 16 c 0
 270 16 305 35 328 74 c 0
 340 96 347 120 347 142 c 0
 347 188 312 235 234 295 c 0
 178 339 137 383 115 425 c 0
 107 442 102 464 102 491 c 0
 102 601 189 685 303 685 c 0
 331 685 358 680 401 666 c 0
 426 659 443 655 452 655 c 0
 473 655 487 663 496 681 c 1
 526 681 l 1
 486 480 l 1
 459 484 l 1
 446 601 407 650 327 650 c 0
 263 650 223 609 223 545 c 0
 223 500 238 478 300 431 c 0
 422 338 468 271 468 185 c 0
 468 60 379 -18 236 -18 c 0
 225 -18 217 -18 202 -16 c 1
EndSplineSet
MinimumDistance: x36,-1 
EndChar
StartChar: scedilla
Encoding: 351 351 284
Width: 389
Flags: W
HStem: -217.063 40.0633<50 60> -12 29<115 136> 429 32.9762<184 198>
VStem: 47.0031 94.9969<336 376> 105 91<-138 -129> 182.99 96.0095<71 119>
DStem: 75 -3 114 -12 15 -92 80 -62
Fore
114 -12 m 1
 80 -62 l 1
 90 -60 96 -59 106 -59 c 0
 158 -59 196 -89 196 -131 c 0
 196 -181 143 -218 72 -218 c 0
 36 -218 4 -211 -40 -193 c 1
 -18 -160 l 1
 10 -173 27 -177 49 -177 c 0
 83 -177 105 -161 105 -136 c 0
 105 -114 87 -100 58 -100 c 0
 48 -100 40 -101 28 -104 c 1
 15 -92 l 1
 75 -3 l 1
 72 -2 69 -1 68 -1 c 0
 55 4 43 7 37 7 c 0
 24 7 12 -1 8 -13 c 1
 -19 -13 l 1
 3 153 l 1
 30 150 l 1
 38 96 46 73 66 48 c 0
 82 28 103 17 126 17 c 0
 158 17 183 41 183 71 c 0
 183 96 165 130 127 175 c 0
 61 253 47 282 47 336 c 0
 47 412 100 462 181 462 c 0
 201 462 214 459 239 449 c 0
 257 442 266 440 275 440 c 0
 290 440 293 442 304 461 c 1
 333 461 l 1
 310 308 l 1
 283 310 l 1
 267 393 241 429 195 429 c 0
 163 429 142 408 142 376 c 0
 142 354 160 323 198 278 c 0
 254 213 279 164 279 119 c 0
 279 45 215 -13 133 -13 c 0
 129 -13 122 -13 114 -12 c 1
EndSplineSet
MinimumDistance: x34,-1 
EndChar
StartChar: tcaron
Encoding: 357 357 290
Width: 278
Flags: W
HStem: 407 42<210 271>
VStem: 30 251<407 422> 269 139.996<597 619>
DStem: 81 407 198 407 13 169 165 289
Fore
281 422 m 1
 281 407 l 1
 198 407 l 1
 165 289 l 1
 129 167 111 94 111 76 c 0
 111 69 119 61 127 61 c 0
 143 61 169 88 203 141 c 1
 225 127 l 1
 159 24 119 -9 59 -9 c 0
 17 -9 -11 17 -11 56 c 0
 -11 73 -1 118 13 169 c 1
 81 407 l 1
 30 407 l 1
 30 442 l 1
 109 472 159 513 213 594 c 1
 248 594 l 1
 209 449 l 1
 271 449 l 1
 312 478 332 503 332 527 c 0
 332 540 325 549 305 562 c 0
 278 581 269 595 269 619 c 0
 269 657 296 685 333 685 c 0
 378 685 409 650 409 597 c 0
 409 536 360 470 281 422 c 1
EndSplineSet
EndChar
StartChar: Tbar
Encoding: 358 358 291
Width: 611
Flags: W
HStem: 0 25<51 66> 346 70<151 210 402 460> 634 35<290 302 449.125 469.876>
VStem: 50 331<1 25>
DStem: 223.626 346 369.316 346 155 97 309 128 303 634 449 634 242.918 416 388.684 416
Fore
242.918 416 m 1
 303 634 l 1
 201 632 138 591 86 491 c 1
 61 498 l 1
 99 669 l 1
 650 669 l 1
 614 477 l 1
 587 479 l 1
 582 590 543 633 449 634 c 1
 388.684 416 l 1
 476 416 l 1
 460 346 l 1
 369.316 346 l 1
 309 128 l 2
 302 102 298 81 298 66 c 0
 298 34 311 28 381 25 c 1
 381 0 l 1
 50 0 l 1
 50 25 l 1
 64 25 l 2
 115 25 141 46 155 97 c 2
 223.626 346 l 1
 134 346 l 1
 151 416 l 1
 242.918 416 l 1
EndSplineSet
MinimumDistance: x8,-1 
EndChar
StartChar: tbar
Encoding: 359 359 292
Width: 278
Flags: W
HStem: 252 70<-2 33 177 252> 407 42<210 280>
VStem: 30 251<407 442>
DStem: 81 407 198 407 56.7143 322 174.229 322
Fore
56.7143 322 m 1
 81 407 l 1
 30 407 l 1
 30 442 l 1
 109 472 159 513 213 594 c 1
 248 594 l 1
 209 449 l 1
 281 449 l 1
 281 407 l 1
 198 407 l 1
 174.229 322 l 1
 266 322 l 1
 252.854 252 l 1
 154.198 252 l 1
 125.399 152.197 111 92.0994 111 76 c 0
 111 69 119 61 127 61 c 0
 143 61 169 88 203 141 c 1
 225 127 l 1
 159 24 119 -9 59 -9 c 0
 17 -9 -11 17 -11 56 c 0
 -11 73 -1 118 13 169 c 1
 36.7143 252 l 1
 -15 252 l 1
 -1.03223 322 l 1
 56.7143 322 l 1
EndSplineSet
EndChar
StartChar: Uogonek
Encoding: 370 370 303
Width: 722
Flags: W
HStem: -172.996 68.9961<481 521> -17.5989 56.534<289 327> 640 29<128 129>
VStem: 67 138<131 150> 98 311<644 668> 374.004 83.9955<-92 -42> 536 208<644 668>
DStem: 156 529 315 572 100 323 233 272 597 491 642 491 539 282 576 263
Fore
536 669 m 1
 744 669 l 1
 744 644 l 1
 689 633 682 623 642 491 c 1
 576 263 l 1
 557 199 543 158 533 135 c 0
 528 124 519 110 507 92 c 2
 487 62 l 2
 470 36 458 -6 458 -42 c 0
 458 -82 481 -104 521 -104 c 0
 537 -104 547 -101 567 -91 c 0
 576 -87 577 -86 582 -84 c 1
 604 -98 l 1
 579 -144 531 -173 481 -173 c 0
 419 -173 374 -139 374 -92 c 0
 374 -62 386 -39 428 13 c 1
 386 -8 342 -18 289 -18 c 0
 159 -18 67 50 67 148 c 0
 67 181 79 243 100 323 c 1
 156 529 l 2
 165 562 171 593 171 605 c 0
 171 627 161 635 129 640 c 0
 125 640 112 642 98 644 c 1
 98 669 l 1
 409 669 l 1
 409 644 l 1
 347 641 332 629 315 572 c 1
 233 272 l 2
 208 181 205 166 205 139 c 0
 205 76 251 38 327 38 c 0
 382 38 426 58 460 98 c 0
 490 135 512 185 539 282 c 2
 597 491 l 1
 608 532 616 571 616 588 c 0
 616 623 593 639 536 644 c 1
 536 669 l 1
EndSplineSet
EndChar
StartChar: uogonek
Encoding: 371 371 304
Width: 556
Flags: W
HStem: -172.996 68.9961<433 474>
VStem: 15.004 118.996<65 88> 327.004 83.9958<-92 -41>
DStem: 76 306 243 462 36 173 149 154
Fore
370 449 m 1
 488 449 l 1
 410 181 l 1
 385 86 385 86 385 76 c 0
 385 67 391 59 399 59 c 0
 416 59 436 80 471 133 c 1
 492 120 l 1
 476 92 469 81 451 59 c 0
 420 19 411 -3 411 -41 c 0
 411 -82 433 -104 474 -104 c 0
 489 -104 500 -101 520 -91 c 0
 528 -87 529 -86 534 -84 c 1
 556 -98 l 1
 531 -144 483 -173 433 -173 c 0
 372 -173 327 -139 327 -92 c 0
 327 -65 336 -46 367 -4 c 1
 351 -8 343 -9 331 -9 c 0
 287 -9 266 10 266 51 c 0
 266 79 272 106 290 161 c 1
 187 17 157 -9 90 -9 c 0
 41 -9 15 16 15 65 c 0
 15 89 22 125 36 173 c 1
 76 306 l 2
 85 335 90 363 90 379 c 0
 90 399 80 404 34 407 c 1
 34 434 l 1
 82 436 141 444 215 457 c 0
 231 460 237 461 243 462 c 1
 149 154 l 2
 136 111 134 103 134 88 c 0
 134 71 141 63 155 63 c 0
 175 63 197 80 228 118 c 0
 285 190 314 256 370 449 c 1
EndSplineSet
MinimumDistance: x2,-1 
EndChar
StartChar: longs
Encoding: 383 383 316
Width: 333
Flags: W
HStem: -205 31<-73 -57> 407 42<48 111> 669 29<343 349>
VStem: -169 101<-127 -118> 346 100<611 620>
Fore
140 30 m 1
 107 -73 80 -126 40 -162 c 0
 9 -191 -28 -205 -70 -205 c 0
 -130 -205 -169 -174 -169 -126 c 0
 -169 -97 -145 -72 -117 -72 c 0
 -92 -72 -68 -96 -68 -120 c 0
 -68 -131 -72 -143 -80 -154 c 0
 -83 -158 -84 -161 -84 -163 c 0
 -84 -169 -76 -174 -66 -174 c 0
 -26 -174 -7 -133 24 15 c 0
 30 44 58 169 112 407 c 1
 39 407 l 1
 48 449 l 1
 121 449 l 1
 150 550 169 591 211 637 c 0
 247 676 295 698 347 698 c 0
 407 698 446 667 446 618 c 0
 446 587 425 565 395 565 c 0
 368 565 346 587 346 614 c 0
 346 624 349 633 357 645 c 0
 361 651 362 654 362 656 c 0
 362 664 355 669 345 669 c 0
 310 669 279 619 254 520 c 1
 140 30 l 1
EndSplineSet
EndChar
StartChar: uni01E4
Encoding: 484 484 337
Width: 722
Flags: W
HStem: -18 38<321 341> 152 44<402 468 621 685> 304 26<419 435 688 706> 649 36<441 471>
VStem: 21 156<201 253> 419 287<304 329>
Fore
706 304 m 1
 634 300 636 256 620 196 c 1
 700 196 l 1
 685 152 l 1
 608 152 l 1
 579 41 l 1
 499 3 411 -18 322 -18 c 0
 156 -18 21 77 21 253 c 0
 21 483 209 685 442 685 c 0
 477 685 513 682 547 672 c 0
 566 666 587 655 608 655 c 0
 628 655 643 667 650 685 c 1
 681 685 l 1
 630 464 l 1
 601 468 l 1
 601 566 570 649 458 649 c 0
 267 649 177 353 177 201 c 0
 177 97 230 20 338 20 c 0
 447 20 443 64 469 152 c 1
 386 152 l 1
 402 196 l 1
 480 196 l 1
 485 214 493 243 493 262 c 0
 493 304 451 302 419 304 c 1
 419 330 l 1
 706 330 l 1
 706 304 l 1
EndSplineSet
MinimumDistance: x0,-1 
EndChar
StartChar: uni01E5
Encoding: 485 485 338
Width: 500
Flags: W
HStem: -203 34<131 152> -110 44<-92 -51 41 254 375 411> 153 31<194 200> 373 56<412 477> 431 31<248 261>
VStem: 19 103<72 127> 35 116<248 283> 299.924 178.076<373 375> 300 117<330 369>
Fore
478 373 m 1
 411 373 l 1
 415 359 417 345 417 330 c 0
 417 214 300 153 197 153 c 0
 180 153 165 161 149 161 c 0
 136 161 122 139 122 127 c 0
 122 63 403 80 374 -66 c 1
 423 -66 l 1
 411 -110 l 1
 360 -110 l 1
 317 -184 210 -203 132 -203 c 0
 72 -203 -42 -185 -51 -110 c 1
 -104 -110 l 1
 -92 -66 l 1
 -46 -66 l 1
 -27 -18 33 -4 78 6 c 1
 78 8 l 1
 48 18 19 37 19 72 c 0
 19 124 76 148 115 170 c 1
 65 189 35 229 35 283 c 0
 35 398 158 462 259 462 c 0
 297 462 337 453 367 429 c 1
 478 429 l 1
 478 373 l 1
300 369 m 0
 300 398 288 431 254 431 c 0
 188 431 151 301 151 248 c 0
 151 218 157 184 195 184 c 0
 263 184 300 315 300 369 c 0
255 -66 m 1
 232 -36 150 -16 113 -6 c 1
 86 -17 52 -39 40 -66 c 1
 255 -66 l 1
265 -110 m 1
 38 -110 l 1
 53 -153 102 -169 144 -169 c 128
 186 -169 256 -162 265 -110 c 1
EndSplineSet
MinimumDistance: x2,-1 
EndChar
StartChar: Scommaaccent
Encoding: 536 536 383
Width: 556
Flags: W
HStem: -18 34<220 239> 649.915 34.2748<303 327> 661 20G<496 526>
VStem: 102.002 120.998<491 545> 102.614 139.834<-128 -106> 346.994 121.006<142 185>
Fore
2 -18 m 1
 38 206 l 1
 67 204 l 1
 71 144 79 114 98 83 c 0
 123 41 169 16 221 16 c 0
 270 16 305 35 328 74 c 0
 340 96 347 120 347 142 c 0
 347 188 312 235 234 295 c 0
 178 339 137 383 115 425 c 0
 107 442 102 464 102 491 c 0
 102 601 189 685 303 685 c 0
 331 685 358 680 401 666 c 0
 426 659 443 655 452 655 c 0
 473 655 487 663 496 681 c 1
 526 681 l 1
 486 480 l 1
 459 484 l 1
 446 601 407 650 327 650 c 0
 263 650 223 609 223 545 c 0
 223 500 238 478 300 431 c 0
 422 338 468 271 468 185 c 0
 468 61 379 -18 239 -18 c 0
 199 -18 165 -11 116 6 c 0
 93 14 80 17 70 17 c 0
 51 17 44 11 32 -18 c 1
 2 -18 l 1
71 -324 m 1
 59 -303 l 1
 130 -265 165 -230 165 -198 c 0
 165 -185 158 -176 138 -163 c 0
 111 -144 102 -130 102 -106 c 0
 102 -68 129 -40 166 -40 c 0
 212 -40 243 -75 243 -128 c 0
 243 -201 175 -278 71 -324 c 1
EndSplineSet
MinimumDistance: x20,-1 
EndChar
StartChar: scommaaccent
Encoding: 537 537 384
Width: 389
Flags: W
HStem: -13 30<118 134> 429 32.9762<184 198>
VStem: 17.6141 139.834<-128 -106> 47.0031 94.9969<336 376> 182.99 96.0095<71 119>
Fore
333 461 m 1
 310 308 l 1
 283 310 l 1
 267 393 241 429 195 429 c 0
 163 429 142 408 142 376 c 0
 142 354 160 323 198 278 c 0
 254 213 279 164 279 119 c 0
 279 44 215 -13 131 -13 c 0
 111 -13 92 -9 68 -1 c 0
 55 4 44 7 37 7 c 0
 24 7 12 -1 8 -13 c 1
 -19 -13 l 1
 3 153 l 1
 30 150 l 1
 38 96 46 73 66 48 c 0
 82 28 103 17 126 17 c 0
 158 17 183 41 183 71 c 0
 183 96 165 130 127 175 c 0
 61 253 47 282 47 336 c 0
 47 412 100 462 181 462 c 0
 201 462 214 459 239 449 c 0
 257 442 266 440 275 440 c 0
 290 440 293 442 304 461 c 1
 333 461 l 1
-14 -324 m 1
 -26 -303 l 1
 45 -265 80 -230 80 -198 c 0
 80 -185 73 -176 53 -163 c 0
 26 -144 17 -130 17 -106 c 0
 17 -68 44 -40 81 -40 c 0
 127 -40 158 -75 158 -128 c 0
 158 -201 90 -278 -14 -324 c 1
EndSplineSet
MinimumDistance: x6,-1 
EndChar
StartChar: Tcommaaccent
Encoding: 538 538 385
Width: 611
Flags: W
HStem: 0 25<51 66> 634 35<290 302 449.125 469.876>
VStem: 50 331<1 25> 128.614 139.834<-128 -106>
DStem: 303 634 449 634 155 97 309 128
Fore
650 669 m 1
 614 477 l 1
 587 479 l 1
 582 590 543 633 449 634 c 1
 309 128 l 2
 302 102 298 81 298 66 c 0
 298 34 311 28 381 25 c 1
 381 0 l 1
 50 0 l 1
 50 25 l 1
 64 25 l 2
 115 25 141 46 155 97 c 2
 303 634 l 1
 201 632 138 591 86 491 c 1
 61 498 l 1
 99 669 l 1
 650 669 l 1
97 -324 m 1
 85 -303 l 1
 156 -265 191 -230 191 -198 c 0
 191 -185 184 -176 164 -163 c 0
 137 -144 128 -130 128 -106 c 0
 128 -68 155 -40 192 -40 c 0
 238 -40 269 -75 269 -128 c 0
 269 -201 201 -278 97 -324 c 1
EndSplineSet
MinimumDistance: x3,-1 
EndChar
StartChar: tcommaaccent
Encoding: 539 539 386
Width: 278
Flags: W
HStem: 407 42<210 280>
VStem: -37.3859 139.834<-128 -106> 30 251<407 442>
DStem: 81 407 198 407 13 169 165 289
Fore
281 449 m 1
 281 407 l 1
 198 407 l 1
 165 289 l 1
 129 167 111 94 111 76 c 0
 111 69 119 61 127 61 c 0
 143 61 169 88 203 141 c 1
 225 127 l 1
 159 24 119 -9 59 -9 c 0
 17 -9 -11 17 -11 56 c 0
 -11 73 -1 118 13 169 c 1
 81 407 l 1
 30 407 l 1
 30 442 l 1
 109 472 159 513 213 594 c 1
 248 594 l 1
 209 449 l 1
 281 449 l 1
-69 -324 m 1
 -81 -303 l 1
 -10 -265 25 -230 25 -198 c 0
 25 -185 18 -176 -2 -163 c 0
 -29 -144 -38 -130 -38 -106 c 0
 -38 -68 -11 -40 26 -40 c 0
 72 -40 103 -75 103 -128 c 0
 103 -201 35 -278 -69 -324 c 1
EndSplineSet
EndChar
StartChar: uni0292
Encoding: 658 658 403
Width: 461
Flags: W
HStem: -217 31<54 75> 353 96<92.9703 284>
VStem: -89 124<-121 -105> 271 125<62 112>
Fore
440 432 m 1
 216 256 l 1
 231 259 247 261 263 261 c 0
 352 261 396 196 396 112 c 0
 396 -64 242 -217 66 -217 c 0
 15 -217 -89 -178 -89 -115 c 0
 -89 -81 -61 -53 -27 -53 c 128
 7 -53 35 -81 35 -115 c 0
 35 -137 24 -158 4 -168 c 1
 18 -176 38 -186 55 -186 c 0
 186 -186 271 -61 271 62 c 0
 271 139 223 172 150 172 c 0
 125 172 100 163 76 158 c 1
 65 180 l 1
 138 238 210 297 285 353 c 1
 104 353 l 2
 67 353 52 322 41 292 c 1
 13 295 l 1
 56 449 l 1
 440 449 l 1
 440 432 l 1
EndSplineSet
MinimumDistance: x3,-1 
EndChar
StartChar: circumflex
Encoding: 710 710 404
Width: 333
Flags: W
Fore
316 516 m 1
 228 611 l 1
 97 516 l 1
 40 516 l 1
 200 690 l 1
 281 690 l 1
 367 516 l 1
 316 516 l 1
EndSplineSet
EndChar
StartChar: caron
Encoding: 711 711 405
Width: 333
Flags: W
Fore
411 690 m 1
 249 516 l 1
 167 516 l 1
 79 690 l 1
 129 690 l 1
 220 593 l 1
 355 690 l 1
 411 690 l 1
EndSplineSet
EndChar
StartChar: uni02CA
Encoding: 714 714 406
Width: 333
Flags: W
Fore
379 650 m 0
 379 626 359 614 340 603 c 2
 188 516 l 1
 139 516 l 1
 145 523 288 697 330 697 c 0
 356 697 379 677 379 650 c 0
EndSplineSet
EndChar
StartChar: uni02CB
Encoding: 715 715 407
Width: 333
Flags: W
Fore
297 516 m 1
 252 516 l 1
 119 605 l 2
 103 615 85 632 85 652 c 0
 85 676 106 697 130 697 c 128
 154 697 172 681 186 663 c 2
 297 516 l 1
EndSplineSet
EndChar
StartChar: breve
Encoding: 728 728 408
Width: 333
Flags: W
HStem: 516 72<199 218> 658 20G<71 114 348 387>
Fore
348 678 m 1
 387 678 l 1
 369 574 305 516 208 516 c 0
 115 516 71 564 71 665 c 2
 71 678 l 1
 114 678 l 1
 120 617 153 588 216 588 c 0
 281 588 317 612 348 678 c 1
EndSplineSet
EndChar
StartChar: dotaccent
Encoding: 729 729 409
Width: 333
Flags: W
HStem: 525 130<216.208 229>
VStem: 163 130<578.399 591>
Fore
227 655 m 0
 263 655 293 625 293 589 c 0
 293 555 262 525 227 525 c 0
 193 525 163 555 163 589 c 0
 163 625 192 655 227 655 c 0
EndSplineSet
MinimumDistance: x1,-1 
EndChar
StartChar: ring
Encoding: 730 730 410
Width: 333
Flags: W
HStem: 540 48<223 239> 706 48<223 239>
VStem: 127 48<645 652> 292 48<636 652>
Fore
234 754 m 0
 292 754 340 706 340 647 c 128
 340 588 292 540 233 540 c 128
 174 540 127 589 127 649 c 0
 127 706 176 754 234 754 c 0
232 706 m 0
 202 706 175 678 175 647 c 0
 175 615 201 588 232 588 c 0
 265 588 292 614 292 646 c 0
 292 679 265 706 232 706 c 0
EndSplineSet
EndChar
StartChar: ogonek
Encoding: 731 731 411
Width: 333
Flags: W
HStem: -172.996 68.9961<66 107>
VStem: -39.9948 83.9948<-92 -40>
Fore
28 32 m 1
 61 44 l 1
 60 37 59 34 56 24 c 0
 48 -8 44 -27 44 -40 c 0
 44 -81 66 -104 107 -104 c 0
 122 -104 133 -101 153 -91 c 0
 161 -87 162 -86 167 -84 c 1
 189 -98 l 1
 164 -144 116 -173 66 -173 c 0
 5 -173 -40 -139 -40 -92 c 0
 -40 -63 -27 -36 14 14 c 0
 22 24 24 26 28 32 c 1
EndSplineSet
EndChar
StartChar: tilde
Encoding: 732 732 412
Width: 333
Flags: W
HStem: 536.003 76.9966<290 315> 579.992 75.0081<136 164>
Fore
366 655 m 1
 407 655 l 1
 385 572 350 536 290 536 c 0
 271 536 259 539 233 549 c 2
 174 572 l 2
 161 577 147 580 136 580 c 0
 114 580 101 569 88 537 c 1
 48 537 l 1
 61 609 107 655 164 655 c 0
 188 655 220 647 261 629 c 0
 287 618 304 613 315 613 c 0
 338 613 351 624 366 655 c 1
EndSplineSet
EndChar
StartChar: hungarumlaut
Encoding: 733 733 413
Width: 333
Flags: W
Fore
118 516 m 1
 69 516 l 1
 191 647 l 2
 226 685 243 697 261 697 c 0
 287 697 309 675 309 650 c 0
 309 631 300 620 270 603 c 2
 118 516 l 1
307 516 m 1
 258 516 l 1
 380 647 l 2
 415 685 432 697 450 697 c 0
 476 697 498 675 498 650 c 0
 498 631 489 620 459 603 c 2
 307 516 l 1
EndSplineSet
EndChar
StartChar: gravecomb
Encoding: 768 768 414
Width: 0
Flags: HW
Fore
-36 516 m 1
 -81 516 l 1
 -214 605 l 2
 -227 614 -248 631 -248 652 c 128
 -248 673 -230 697 -203 697 c 128
 -176 697 -157 677 -147 663 c 2
 -36 516 l 1
EndSplineSet
EndChar
StartChar: acutecomb
Encoding: 769 769 415
Width: 0
Flags: HW
Fore
-145 516 m 1
 -194 516 l 1
 -72 647 l 2
 -46 674 -25 697 -3 697 c 0
 18 697 46 682 46 650 c 0
 46 627 30 616 7 603 c 2
 -145 516 l 1
EndSplineSet
EndChar
StartChar: uni0302
Encoding: 770 770 416
Width: 0
Flags: HW
Fore
-17 516 m 1
 -105 611 l 1
 -236 516 l 1
 -293 516 l 1
 -133 690 l 1
 -52 690 l 1
 34 516 l 1
 -17 516 l 1
EndSplineSet
EndChar
StartChar: tildecomb
Encoding: 771 771 417
Width: 0
Flags: HW
HStem: 536 77<-44 -20> 580 75<-195 -168>
Fore
33 655 m 1
 74 655 l 1
 65 620 43 536 -44 536 c 0
 -66 536 -83 542 -100 549 c 2
 -159 572 l 2
 -170 576 -182 580 -195 580 c 0
 -228 580 -237 556 -245 537 c 1
 -285 537 l 1
 -285 539 -266 655 -168 655 c 0
 -113 655 -49 613 -20 613 c 0
 14 613 24 636 33 655 c 1
EndSplineSet
EndChar
StartChar: uni0304
Encoding: 772 772 418
Width: 0
Flags: HW
HStem: 553 70<-265 44>
Fore
60 623 m 1
 44 553 l 1
 -282 553 l 1
 -265 623 l 1
 60 623 l 1
EndSplineSet
EndChar
StartChar: uni0305
Encoding: 773 773 419
Width: 0
Flags: HW
HStem: 565 72<-346 133>
VStem: -347 481<566 636>
Fore
134 637 m 1
 134 565 l 1
 -347 565 l 1
 -347 637 l 1
 134 637 l 1
EndSplineSet
EndChar
StartChar: uni0306
Encoding: 774 774 420
Width: 0
Flags: HW
HStem: 516 72<-134 -115> 658 20G<-262 -219 15 54>
Fore
15 678 m 1
 54 678 l 1
 53 672 36 516 -127 516 c 0
 -265 516 -263 634 -262 678 c 1
 -219 678 l 1
 -218 667 -216 645 -203 625 c 0
 -189 605 -164 588 -117 588 c 0
 -27 588 -1 644 15 678 c 1
EndSplineSet
EndChar
StartChar: uni0307
Encoding: 775 775 421
Width: 0
Flags: HW
HStem: 525 130<-107 -103>
VStem: -170 130<577.68 591>
Fore
-105 525 m 0
 -129 525 -170 545 -170 589 c 0
 -170 626 -141 655 -106 655 c 0
 -70 655 -40 625 -40 589 c 0
 -40 546 -81 525 -105 525 c 0
EndSplineSet
MinimumDistance: x3,-1 
EndChar
StartChar: uni0308
Encoding: 776 776 422
Width: 0
Flags: HW
HStem: 525 130<-215 -211 -6 1>
VStem: -278 130<577.68 591> -66 130<577.68 591>
Fore
-213 525 m 0
 -237 525 -278 545 -278 589 c 0
 -278 626 -249 655 -214 655 c 0
 -178 655 -148 625 -148 589 c 0
 -148 546 -189 525 -213 525 c 0
-1 525 m 0
 -25 525 -66 545 -66 589 c 0
 -66 626 -37 655 -2 655 c 0
 34 655 64 625 64 589 c 0
 64 546 23 525 -1 525 c 0
EndSplineSet
EndChar
StartChar: hookabovecomb
Encoding: 777 777 423
Width: 0
Flags: HW
HStem: 679 31<-29 -7>
VStem: -109.582 40.3374<630 638> -4.04001 66.2826<645 661>
Fore
-32 501 m 1
 -75 501 l 1
 -58 571 -17 586 -7 631 c 0
 -1 655 2 679 -29 679 c 0
 -46 679 -69 674 -71 657 c 0
 -73 644 -65 645 -70 627 c 0
 -72 618 -81 606 -94 606 c 0
 -113 606 -111 630 -107 647 c 1
 -94 685 -56 710 -7 710 c 0
 18 710 75 696 61 639 c 0
 49 587 -4 580 -32 501 c 1
EndSplineSet
EndChar
StartChar: uni030A
Encoding: 778 778 424
Width: 0
Flags: HW
HStem: 516 48<-110 -94> 681 48<-110 -94>
VStem: -206 48<621 628> -41 48<612 628>
Fore
-206 623 m 0
 -206 682 -157 729 -99 729 c 128
 -41 729 7 681 7 623 c 0
 7 564 -41 516 -99 516 c 128
 -157 516 -206 563 -206 623 c 0
-41 622 m 0
 -41 654 -68 681 -101 681 c 0
 -139 681 -158 645 -158 623 c 128
 -158 601 -141 564 -101 564 c 0
 -67 564 -41 591 -41 622 c 0
EndSplineSet
EndChar
StartChar: uni030B
Encoding: 779 779 425
Width: 0
Flags: HW
Fore
-215 516 m 1
 -264 516 l 1
 -142 647 l 2
 -116 674 -95 697 -73 697 c 0
 -52 697 -24 682 -24 650 c 0
 -24 627 -40 616 -63 603 c 2
 -215 516 l 1
-26 516 m 1
 -75 516 l 1
 47 647 l 2
 73 674 94 697 116 697 c 0
 137 697 165 682 165 650 c 0
 165 627 149 616 126 603 c 2
 -26 516 l 1
EndSplineSet
EndChar
StartChar: uni030C
Encoding: 780 780 426
Width: 0
Flags: HW
Fore
78 690 m 1
 -84 516 l 1
 -166 516 l 1
 -254 690 l 1
 -204 690 l 1
 -113 593 l 1
 22 690 l 1
 78 690 l 1
EndSplineSet
EndChar
StartChar: uni030D
Encoding: 781 781 427
Width: 0
Flags: HW
HStem: 504 260<-175.368 -164>
VStem: -212 90<712 728>
Fore
-154 504 m 1
 -179 504 l 1
 -188 563 -212 692 -212 721 c 0
 -212 748 -187 764 -166 764 c 0
 -146 764 -122 748 -122 721 c 0
 -122 692 -145 563 -154 504 c 1
EndSplineSet
MinimumDistance: x4,-1 
EndChar
StartChar: uni030E
Encoding: 782 782 428
Width: 0
Flags: HW
HStem: 504 260<-253.368 -242 -97.368 -82>
VStem: -290 90<712 728> -134 90<712 728>
Fore
-232 504 m 1
 -257 504 l 1
 -266 563 -290 692 -290 721 c 0
 -290 748 -265 764 -244 764 c 0
 -224 764 -200 748 -200 721 c 0
 -200 692 -223 563 -232 504 c 1
-76 504 m 1
 -101 504 l 1
 -110 563 -134 692 -134 721 c 0
 -134 748 -109 764 -88 764 c 0
 -68 764 -44 748 -44 721 c 0
 -44 692 -67 563 -76 504 c 1
EndSplineSet
MinimumDistance: x9,-1 
EndChar
StartChar: uni030F
Encoding: 783 783 429
Width: 0
Flags: HW
Fore
41 616 m 2
 20 631 6 641 13 669 c 0
 21 705 55 713 73 713 c 0
 83 713 101 711 118 685 c 2
 218 528 l 1
 162 528 l 1
 41 616 l 2
-159 616 m 2
 -180 631 -194 641 -187 669 c 0
 -179 705 -145 713 -127 713 c 0
 -117 713 -99 711 -82 685 c 2
 18 528 l 1
 -38 528 l 1
 -159 616 l 2
EndSplineSet
EndChar
StartChar: uni0310
Encoding: 784 784 430
Width: 0
Flags: HW
HStem: 507 76<-46 -26> 632 130<-11 -5> 650 20G<-158 -114 101 145>
VStem: -74 130<684.68 699>
Fore
101 670 m 1
 145 670 l 1
 114 570 51 507 -46 507 c 0
 -139 507 -183 564 -158 670 c 1
 -114 670 l 1
 -116 642 -118 583 -27 583 c 0
 57 583 85 639 101 670 c 1
-9 632 m 0
 -33 632 -74 652 -74 696 c 0
 -74 733 -45 762 -10 762 c 0
 26 762 56 732 56 696 c 0
 56 653 15 632 -9 632 c 0
EndSplineSet
EndChar
StartChar: uni0311
Encoding: 785 785 431
Width: 0
Flags: HW
HStem: 593 76<-26 -7>
Fore
62 506 m 1
 61 537 59 593 -25 593 c 0
 -116 593 -142 534 -153 506 c 1
 -197 506 l 1
 -171 612 -101 669 -8 669 c 0
 89 669 122 606 106 506 c 1
 62 506 l 1
EndSplineSet
EndChar
StartChar: uni0312
Encoding: 786 786 432
Width: 0
Flags: HW
HStem: 524 97<-20 18> 524.823 87.1771<-36 -29> 705.181 29.8186<35 55>
VStem: -107.876 165.511<586 588>
Fore
56 573 m 0
 48 538 10 524 -20 524 c 0
 -86 524 -121 563 -105 630 c 128
 -89 697 -24 735 39 735 c 0
 51 735 63 733 74 732 c 1
 68 706 l 1
 28 706 -39 706 -52 650 c 0
 -56 634 -54 612 -35 612 c 0
 -17 612 1 621 18 621 c 0
 47 621 63 602 56 573 c 0
EndSplineSet
EndChar
StartChar: uni0313
Encoding: 787 787 433
Width: 0
Flags: HW
HStem: 525 29.0594<-91 -73> 639 97<-54 -16> 648 87.3762<-2 1>
VStem: -92.47 164.937<669 674>
Fore
-91 687 m 0
 -83 722 -46 736 -16 736 c 0
 50 736 85 697 69 630 c 128
 53 563 -12 525 -75 525 c 0
 -87 525 -98 527 -110 528 c 1
 -104 554 l 1
 -64 554 3 554 16 610 c 0
 20 626 18 648 -1 648 c 0
 -19 648 -37 639 -54 639 c 0
 -83 639 -98 658 -91 687 c 0
EndSplineSet
EndChar
StartChar: uni0314
Encoding: 788 788 434
Width: 0
Flags: HW
HStem: 639 97<19 33>
VStem: -107.618 44.004<595 606>
Fore
83 687 m 0
 76 658 51 639 22 639 c 0
 5 639 -9 648 -27 648 c 0
 -46 648 -58 626 -62 610 c 0
 -75 554 -8 554 32 554 c 1
 26 528 l 1
 14 527 1 525 -11 525 c 0
 -74 525 -121 563 -105 630 c 128
 -89 697 -36 736 30 736 c 0
 60 736 91 722 83 687 c 0
EndSplineSet
EndChar
StartChar: uni0315
Encoding: 789 789 435
Width: -113
Flags: HW
Fore
-231 356 m 1
 -237 378 l 1
 -204 397 -110 454 -97 510 c 0
 -94 522 -98 532 -111 532 c 0
 -116 532 -122 530 -134 530 c 0
 -162 530 -204 546 -189 609 c 0
 -177 661 -133 691 -87 691 c 0
 -14 691 0 629 -13 577 c 0
 -43 451 -171 386 -231 356 c 1
EndSplineSet
EndChar
StartChar: uni0316
Encoding: 790 790 436
Width: 0
Flags: HW
Fore
-125 -310 m 1
 -181 -310 l 1
 -302 -222 l 2
 -323 -207 -335 -192 -329 -169 c 0
 -326 -155 -308 -125 -270 -125 c 0
 -249 -125 -232 -140 -224 -153 c 2
 -125 -310 l 1
EndSplineSet
EndChar
StartChar: uni0317
Encoding: 791 791 437
Width: 0
Flags: HW
Fore
-363 -310 m 1
 -188 -153 l 2
 -174 -140 -151 -125 -130 -125 c 0
 -92 -125 -88 -155 -91 -169 c 0
 -97 -192 -115 -206 -144 -222 c 2
 -307 -310 l 1
 -363 -310 l 1
EndSplineSet
EndChar
StartChar: uni0318
Encoding: 792 792 438
Width: 0
Flags: HW
HStem: -318 72<-354 -190>
DStem: 144 -318 262 -127 116 -438 188 -438 190 -127 262 -127 161 -246 188 -438
Fore
-189 -318 m 1
 -355 -318 l 1
 -355 -246 l 1
 -172 -246 l 1
 -143 -127 l 1
 -71 -127 l 1
 -145 -438 l 1
 -217 -438 l 1
 -189 -318 l 1
EndSplineSet
MinimumDistance: x5,-1 
EndChar
StartChar: uni0319
Encoding: 793 793 439
Width: 0
Flags: HW
HStem: -318 72<-281 -117> -318 191<-299 -282>
DStem: 8 -127 80 -127 -66 -438 51 -246 8 -127 34 -318 -66 -438 6 -438
Fore
-299 -318 m 1
 -327 -438 l 1
 -399 -438 l 1
 -325 -127 l 1
 -253 -127 l 1
 -282 -246 l 1
 -116 -246 l 1
 -116 -318 l 1
 -299 -318 l 1
EndSplineSet
MinimumDistance: x4,-1 
EndChar
StartChar: uni031A
Encoding: 794 794 440
Width: 0
Flags: W
HStem: 670 72<-108 40>
DStem: 40 670 129 742 0 505 72 505
Fore
72 505 m 1
 0 505 l 1
 40 670 l 1
 -108 670 l 1
 -108 742 l 1
 129 742 l 1
 72 505 l 1
EndSplineSet
EndChar
StartChar: uni031B
Encoding: 795 795 441
Width: 0
Flags: HW
HStem: 319 38<-168 -152> 449.559 112.441<-88 -78>
VStem: -162.314 157.555<479 487>
Fore
-248 356 m 1
 -227 446 l 1
 -239 396 -209 357 -159 357 c 0
 -128 357 -97 371 -77 395 c 0
 -70 404 -64 414 -62 423 c 0
 -57 447 -80 454 -103 447 c 0
 -128 439 -172 453 -161 499 c 0
 -152 536 -121 562 -81 562 c 0
 -30 562 7 508 -8 446 c 0
 -24 376 -95 319 -166 319 c 0
 -201 319 -231 333 -248 356 c 1
EndSplineSet
EndChar
StartChar: uni031C
Encoding: 796 796 442
Width: 0
Flags: HW
HStem: -362 72<-232 -215> -200 72<-194 -176>
Fore
-127 -141 m 1
 -174 -205 l 1
 -180 -202 -186 -200 -194 -200 c 0
 -219 -200 -243 -220 -249 -245 c 128
 -255 -270 -240 -290 -215 -290 c 0
 -208 -290 -201 -288 -194 -285 c 1
 -176 -349 l 1
 -194 -357 -213 -362 -232 -362 c 0
 -297 -362 -337 -310 -321 -245 c 0
 -306 -180 -241 -128 -176 -128 c 0
 -157 -128 -141 -133 -127 -141 c 1
EndSplineSet
EndChar
StartChar: uni031D
Encoding: 797 797 443
Width: 0
Flags: HW
HStem: -384 72<-396 -277 -204 -104> -384 255<-234 -205>
VStem: -397 294<-383 -312>
DStem: 99 -129 171 -129 56 -312 128 -312
Fore
-205 -312 m 1
 -103 -312 l 1
 -103 -384 l 1
 -397 -384 l 1
 -397 -312 l 1
 -277 -312 l 1
 -234 -129 l 1
 -162 -129 l 1
 -205 -312 l 1
EndSplineSet
MinimumDistance: x1,-1 
EndChar
StartChar: uni031E
Encoding: 798 798 444
Width: 0
Flags: HW
HStem: -249 72<-364 -263 -190 -72>
VStem: -365 294<-249 -178>
DStem: 71 -249 143 -249 27 -432 99 -432
Fore
-190 -249 m 1
 -234 -432 l 1
 -306 -432 l 1
 -262 -249 l 1
 -365 -249 l 1
 -365 -177 l 1
 -71 -177 l 1
 -71 -249 l 1
 -190 -249 l 1
EndSplineSet
MinimumDistance: x6,-1 
EndChar
StartChar: uni031F
Encoding: 799 799 445
Width: 0
Flags: HW
HStem: -303 72<-377 -276 -185 -85> -303 174<-203 -186>
VStem: -378 294<-303 -231>
DStem: 58 -303 130 -303 34 -405 106 -405 99 -129 171 -129 75 -231 147 -231
Fore
-378 -303 m 1
 -378 -231 l 1
 -258 -231 l 1
 -234 -129 l 1
 -162 -129 l 1
 -186 -231 l 1
 -84 -231 l 1
 -84 -303 l 1
 -203 -303 l 1
 -227 -405 l 1
 -299 -405 l 1
 -275 -303 l 1
 -378 -303 l 1
EndSplineSet
MinimumDistance: x6,-1 
EndChar
StartChar: uni0320
Encoding: 800 800 446
Width: 0
Flags: HW
HStem: -249 72<-364 -72>
VStem: -365 294<-248 -178>
Fore
-71 -177 m 1
 -71 -249 l 1
 -365 -249 l 1
 -365 -177 l 1
 -71 -177 l 1
EndSplineSet
MinimumDistance: x0,-1 
EndChar
StartChar: uni0321
Encoding: 801 801 447
Width: 0
Flags: W
HStem: -251 44<-103 -90> 0 23<-42 0>
DStem: 0 0 65 35 -36 -152 21 -152
Fore
-111 -204 m 1
 -104 -206 -98 -207 -92 -207 c 0
 -62 -207 -43 -182 -36 -152 c 2
 0 0 l 1
 -46 0 l 1
 -41 23 l 1
 7 23 l 1
 19 31 28 39 36 46 c 1
 65 35 l 1
 21 -152 l 1
 11 -196 -38 -251 -102 -251 c 0
 -173 -251 -219 -217 -204 -154 c 0
 -198 -129 -168 -89 -126 -89 c 0
 -91 -89 -68 -119 -77 -155 c 0
 -81 -174 -95 -192 -111 -204 c 1
EndSplineSet
EndChar
StartChar: uni0322
Encoding: 802 802 448
Width: 0
Flags: HW
HStem: -250.98 43.9797<-15 2> 0 23<3 46>
VStem: -95.355 56.9327<-175 -168>
DStem: -49 35 51 23 -93 -152 46 0 -49 35 0 0 -93 -152 -36 -152
Fore
13 -204 m 1
 3 -192 -1 -174 3 -155 c 0
 12 -119 49 -89 84 -89 c 0
 126 -89 136 -129 130 -154 c 0
 115 -217 53 -251 -18 -251 c 0
 -82 -251 -103 -196 -93 -152 c 1
 -49 35 l 1
 -14 46 l 1
 -10 39 -5 31 3 23 c 1
 51 23 l 1
 46 0 l 1
 0 0 l 1
 -36 -152 l 2
 -43 -182 -36 -207 -6 -207 c 0
 0 -207 6 -206 13 -204 c 1
EndSplineSet
EndChar
StartChar: dotbelowcomb
Encoding: 803 803 449
Width: 0
Flags: HW
HStem: -257 130<-214 -210>
VStem: -277 130<-204.32 -191>
Fore
-212 -257 m 0
 -236 -257 -277 -237 -277 -193 c 0
 -277 -156 -248 -127 -213 -127 c 0
 -177 -127 -147 -157 -147 -193 c 0
 -147 -236 -188 -257 -212 -257 c 0
EndSplineSet
MinimumDistance: x3,-1 
EndChar
StartChar: uni0324
Encoding: 804 804 450
Width: 0
Flags: HW
HStem: -257 130<-318 -314 -109 -103>
VStem: -381 130<-204.32 -191> -170 130<-204.32 -191>
Fore
-316 -257 m 0
 -340 -257 -381 -237 -381 -193 c 0
 -381 -156 -352 -127 -317 -127 c 0
 -281 -127 -251 -157 -251 -193 c 0
 -251 -236 -292 -257 -316 -257 c 0
-105 -257 m 0
 -129 -257 -170 -237 -170 -193 c 0
 -170 -156 -141 -127 -106 -127 c 0
 -70 -127 -40 -157 -40 -193 c 0
 -40 -236 -81 -257 -105 -257 c 0
EndSplineSet
MinimumDistance: x7,-1 
EndChar
StartChar: uni0325
Encoding: 805 805 451
Width: 0
Flags: HW
HStem: -343 48<-232 -216> -178 48<-232 -216>
VStem: -328 48<-238 -231> -163 48<-247 -231>
Fore
-328 -236 m 0
 -328 -177 -279 -130 -221 -130 c 128
 -163 -130 -115 -178 -115 -236 c 0
 -115 -295 -163 -343 -221 -343 c 128
 -279 -343 -328 -296 -328 -236 c 0
-163 -237 m 0
 -163 -205 -190 -178 -223 -178 c 0
 -261 -178 -280 -214 -280 -236 c 128
 -280 -258 -263 -295 -223 -295 c 0
 -189 -295 -163 -268 -163 -237 c 0
EndSplineSet
MinimumDistance: x2,-1 
EndChar
StartChar: uni0326
Encoding: 806 806 452
Width: 0
Flags: HW
Fore
-346 -462 m 1
 -352 -440 l 1
 -319 -421 -224 -364 -211 -308 c 0
 -208 -296 -213 -286 -226 -286 c 0
 -231 -286 -237 -288 -249 -288 c 0
 -277 -288 -319 -272 -304 -209 c 0
 -291 -157 -248 -127 -202 -127 c 0
 -129 -127 -115 -189 -127 -241 c 0
 -157 -367 -286 -432 -346 -462 c 1
EndSplineSet
EndChar
StartChar: uni0327
Encoding: 807 807 453
Width: 0
Flags: HW
HStem: -217.04 40.0403<-323 -312>
VStem: -268 91<-138 -129>
DStem: 41 5 85 5 -25 -92 40 -62
Fore
-358 -92 m 1
 -292 5 l 1
 -248 5 l 1
 -293 -62 l 1
 -284 -60 -276 -59 -267 -59 c 0
 -243 -59 -177 -71 -177 -131 c 0
 -177 -194 -249 -218 -302 -218 c 0
 -354 -218 -396 -200 -413 -193 c 1
 -391 -160 l 1
 -369 -170 -351 -177 -322 -177 c 0
 -291 -177 -268 -162 -268 -136 c 0
 -268 -132 -268 -100 -314 -100 c 0
 -328 -100 -337 -102 -345 -104 c 1
 -358 -92 l 1
EndSplineSet
MinimumDistance: x5,-1 
EndChar
StartChar: uni0328
Encoding: 808 808 454
Width: 0
Flags: HW
HStem: -20 20G<-176 -114>
Fore
-176 0 m 1
 -114 0 l 1
 -187 -20 -194 -54 -191 -77 c 0
 -186 -116 -134 -101 -123 -97 c 0
 -98 -89 -87 -86 -67 -69 c 1
 -46 -89 l 1
 -83 -127 -124 -140 -136 -144 c 0
 -174 -157 -274 -179 -284 -103 c 0
 -290 -57 -239 -10 -176 0 c 1
EndSplineSet
EndChar
StartChar: uni0329
Encoding: 809 809 455
Width: 0
Flags: HW
HStem: -391 260<-207.368 -196>
VStem: -244 90<-357.127 -343>
Fore
-186 -131 m 1
 -177 -190 -154 -319 -154 -348 c 0
 -154 -375 -178 -391 -198 -391 c 0
 -219 -391 -244 -375 -244 -348 c 0
 -244 -319 -220 -190 -211 -131 c 1
 -186 -131 l 1
EndSplineSet
MinimumDistance: x1,-1 
EndChar
StartChar: uni032A
Encoding: 810 810 456
Width: 0
Flags: HW
HStem: -249 72<-310 -144>
DStem: -32 -177 279 -177 -78 -370 233 -370 -32 -177 23 -249 -78 -370 -6 -370 190 -249 279 -177 161 -370 233 -370
Fore
-54 -177 m 1
 -100 -370 l 1
 -172 -370 l 1
 -143 -249 l 1
 -310 -249 l 1
 -339 -370 l 1
 -411 -370 l 1
 -365 -177 l 1
 -54 -177 l 1
EndSplineSet
MinimumDistance: x0,-1 
EndChar
StartChar: uni032B
Encoding: 811 811 457
Width: 0
Flags: HW
HStem: -417 66<-162 -138>
Fore
-215 -214 m 0
 -202 -215 -205 -222 -205 -243 c 0
 -206 -289 -214 -351 -162 -351 c 0
 -137 -351 -128 -338 -118 -298 c 0
 -109 -259 -106 -222 -131 -172 c 0
 -139 -156 -121 -148 -109 -157 c 0
 -60 -194 -33 -258 -49 -323 c 0
 -63 -381 -95 -417 -138 -417 c 0
 -182 -417 -227 -395 -246 -352 c 1
 -288 -395 -344 -417 -387 -417 c 128
 -430 -417 -446 -381 -432 -323 c 0
 -416 -258 -359 -194 -292 -157 c 0
 -275 -148 -262 -155 -278 -172 c 0
 -325 -221 -348 -262 -357 -301 c 0
 -367 -341 -363 -354 -338 -354 c 0
 -286 -354 -260 -289 -238 -243 c 0
 -228 -222 -227 -213 -215 -214 c 0
EndSplineSet
EndChar
StartChar: uni032C
Encoding: 812 812 458
Width: 0
Flags: HW
Fore
-37 -165 m 1
 -202 -341 l 1
 -294 -341 l 1
 -374 -165 l 1
 -318 -165 l 1
 -230 -264 l 1
 -94 -165 l 1
 -37 -165 l 1
EndSplineSet
EndChar
StartChar: uni032D
Encoding: 813 813 459
Width: 0
Flags: HW
Fore
-79 -342 m 1
 -136 -342 l 1
 -225 -243 l 1
 -360 -342 l 1
 -416 -342 l 1
 -253 -166 l 1
 -161 -166 l 1
 -79 -342 l 1
EndSplineSet
EndChar
StartChar: uni032E
Encoding: 814 814 460
Width: 0
Flags: HW
HStem: -317 76<-242 -223>
Fore
-96 -154 m 1
 -52 -154 l 1
 -83 -254 -146 -317 -243 -317 c 0
 -336 -317 -379 -260 -355 -154 c 1
 -311 -154 l 1
 -312 -182 -314 -241 -223 -241 c 0
 -139 -241 -111 -185 -96 -154 c 1
EndSplineSet
EndChar
StartChar: uni032F
Encoding: 815 815 461
Width: 0
Flags: HW
HStem: -231 76<-222 -203>
Fore
-135 -318 m 1
 -135 -287 -137 -231 -221 -231 c 0
 -312 -231 -338 -290 -350 -318 c 1
 -394 -318 l 1
 -368 -212 -297 -155 -204 -155 c 0
 -107 -155 -74 -218 -91 -318 c 1
 -135 -318 l 1
EndSplineSet
EndChar
StartChar: uni0330
Encoding: 816 816 462
Width: 0
Flags: HW
HStem: -253 78<-318 -273>
Fore
-378 -300 m 1
 -420 -300 l 1
 -405 -265 -365 -175 -273 -175 c 0
 -244 -175 -215 -189 -206 -194 c 2
 -171 -212 l 2
 -146 -225 -146 -224 -133 -224 c 0
 -96 -224 -79 -192 -69 -175 c 1
 -26 -175 l 1
 -43 -210 -88 -302 -177 -302 c 0
 -195 -302 -219 -295 -234 -288 c 2
 -260 -275 l 2
 -304 -253 -304 -253 -318 -253 c 0
 -350 -253 -373 -282 -378 -300 c 1
EndSplineSet
EndChar
StartChar: uni0331
Encoding: 817 817 463
Width: 0
Flags: HW
HStem: -249 72<-373 -62>
VStem: -374 313<-248 -178>
Fore
-61 -177 m 1
 -61 -249 l 1
 -374 -249 l 1
 -374 -177 l 1
 -61 -177 l 1
EndSplineSet
MinimumDistance: x0,-1 
EndChar
StartChar: uni0332
Encoding: 818 818 464
Width: 0
Flags: HW
HStem: -249 72<-540 -61>
VStem: -541 481<-248 -178>
Fore
-60 -177 m 1
 -60 -249 l 1
 -541 -249 l 1
 -541 -177 l 1
 -60 -177 l 1
EndSplineSet
MinimumDistance: x0,-1 
EndChar
StartChar: uni0333
Encoding: 819 819 465
Width: 0
Flags: HW
HStem: -393 72<-574 -96> -249 72<-540 -61>
Fore
-60 -177 m 1
 -60 -249 l 1
 -541 -249 l 1
 -541 -177 l 1
 -60 -177 l 1
-95 -321 m 1
 -95 -393 l 1
 -575 -393 l 1
 -575 -321 l 1
 -95 -321 l 1
EndSplineSet
EndChar
StartChar: uni0334
Encoding: 820 820 466
Width: 0
Flags: HW
HStem: 319 78<-198 -152>
Fore
-258 272 m 1
 -300 272 l 1
 -285 307 -244 397 -152 397 c 0
 -123 397 -95 382 -86 378 c 2
 -50 360 l 2
 -26 348 -26 348 -13 348 c 0
 24 348 42 380 52 397 c 1
 95 397 l 1
 77 362 32 270 -57 270 c 0
 -75 270 -99 277 -113 284 c 2
 -139 297 l 2
 -184 319 -184 319 -198 319 c 0
 -230 319 -253 290 -258 272 c 1
EndSplineSet
EndChar
StartChar: uni0335
Encoding: 821 821 467
Width: 0
Flags: HW
HStem: 186 72<-271 -12>
VStem: -272 261<187 257>
Fore
-11 258 m 1
 -11 186 l 1
 -272 186 l 1
 -272 258 l 1
 -11 258 l 1
EndSplineSet
EndChar
StartChar: uni0336
Encoding: 822 822 468
Width: 0
Flags: HW
HStem: 187 72<-413 12>
VStem: -414 427<188 258>
Fore
13 259 m 1
 13 187 l 1
 -414 187 l 1
 -414 259 l 1
 13 259 l 1
EndSplineSet
EndChar
StartChar: uni0337
Encoding: 823 823 469
Width: 0
Flags: W
DStem: 16 348 30 283 -431 161 -416 95
Fore
16 348 m 1
 30 283 l 1
 -416 95 l 1
 -431 161 l 1
 16 348 l 1
EndSplineSet
EndChar
StartChar: uni0338
Encoding: 824 824 470
Width: 0
Flags: W
DStem: -23 406 16 355 -413 91 -374 40
Fore
-23 406 m 1
 16 355 l 1
 -374 40 l 1
 -413 91 l 1
 -23 406 l 1
EndSplineSet
EndChar
StartChar: uni0339
Encoding: 825 825 471
Width: 0
Flags: HW
HStem: -362 72<-290 -273> -200 72<-252 -234>
Fore
-291 -141 m 1
 -273 -133 -253 -128 -234 -128 c 0
 -169 -128 -130 -180 -145 -245 c 0
 -161 -310 -225 -362 -290 -362 c 0
 -309 -362 -326 -357 -340 -349 c 1
 -292 -285 l 1
 -287 -288 -280 -290 -273 -290 c 0
 -248 -290 -223 -270 -217 -245 c 128
 -211 -220 -227 -200 -252 -200 c 0
 -260 -200 -266 -202 -274 -205 c 1
 -291 -141 l 1
EndSplineSet
EndChar
StartChar: uni033A
Encoding: 826 826 472
Width: 0
Flags: HW
HStem: -306 72<-306 -140> -306 193<-350 -307 -111 -85>
DStem: -17 -113 55 -113 -63 -306 26 -234 -17 -113 294 -113 -63 -306 248 -306 222 -113 294 -113 193 -234 248 -306
Fore
-85 -306 m 1
 -396 -306 l 1
 -350 -113 l 1
 -278 -113 l 1
 -307 -234 l 1
 -140 -234 l 1
 -111 -113 l 1
 -39 -113 l 1
 -85 -306 l 1
EndSplineSet
MinimumDistance: x7,-1 
EndChar
StartChar: uni033B
Encoding: 827 827 473
Width: 0
Flags: HW
HStem: -488 72<-349 -183> -249 72<-310 -144>
DStem: -32 -177 279 -177 -106 -488 205 -488 -32 -177 23 -249 -106 -488 -17 -416 -32 -177 279 -177 -106 -488 205 -488 190 -249 279 -177 150 -416 205 -488
Fore
-365 -177 m 1
 -54 -177 l 1
 -128 -488 l 1
 -439 -488 l 1
 -365 -177 l 1
-310 -249 m 1
 -350 -416 l 1
 -183 -416 l 1
 -143 -249 l 1
 -310 -249 l 1
EndSplineSet
MinimumDistance: x1,-1 
EndChar
StartChar: uni033C
Encoding: 828 828 474
Width: 0
Flags: HW
Fore
-258 -378 m 0
 -273 -378 -272 -365 -271 -356 c 0
 -267 -315 -253 -249 -320 -242 c 0
 -342 -240 -374 -245 -396 -252 c 0
 -419 -259 -410 -237 -403 -234 c 1
 -358 -181 -317 -163 -287 -165 c 0
 -258 -166 -228 -179 -226 -248 c 1
 -191 -179 -152 -167 -121 -165 c 0
 -91 -164 -48 -177 -42 -234 c 0
 -41 -241 -38 -259 -57 -252 c 0
 -75 -245 -105 -241 -129 -242 c 0
 -198 -245 -212 -317 -232 -356 c 0
 -236 -365 -240 -378 -258 -378 c 0
EndSplineSet
EndChar
StartChar: uni033D
Encoding: 829 829 475
Width: 0
Flags: HW
DStem: 192 726 255 777 261 635 324 686 261 635 300 584 149 544 187 493 300 584 363 635 369 493 433 544 437 777 476 726 324 686 363 635
Fore
-33 584 m 1
 -146 493 l 1
 -184 544 l 1
 -72 635 l 1
 -141 726 l 1
 -78 777 l 1
 -9 686 l 1
 104 777 l 1
 143 726 l 1
 30 635 l 1
 100 544 l 1
 36 493 l 1
 -33 584 l 1
EndSplineSet
EndChar
StartChar: uni033E
Encoding: 830 830 476
Width: 0
Flags: HW
Fore
73 748 m 1
 55 747 23 734 17 709 c 0
 14 698 15 698 27 658 c 2
 34 634 l 1
 38 622 40 601 37 586 c 0
 20 515 -77 497 -113 490 c 1
 -105 524 l 1
 -87 529 -53 537 -46 566 c 0
 -44 577 -44 577 -51 598 c 2
 -61 630 l 1
 -63 638 -71 664 -66 687 c 0
 -48 761 45 776 81 782 c 1
 73 748 l 1
EndSplineSet
EndChar
StartChar: uni033F
Encoding: 831 831 477
Width: 0
Flags: HW
HStem: 547 72<-351 128> 691 72<-316 163>
Fore
164 763 m 1
 164 691 l 1
 -317 691 l 1
 -317 763 l 1
 164 763 l 1
129 619 m 1
 129 547 l 1
 -352 547 l 1
 -352 619 l 1
 129 619 l 1
EndSplineSet
EndChar
StartChar: uni0360
Encoding: 864 864 478
Width: 0
Flags: HW
HStem: 636 113<128 176>
Fore
-336 502 m 1
 -301 544 -129 749 163 749 c 0
 245 749 453 721 526 502 c 1
 498 502 l 1
 459 586 400 636 128 636 c 0
 -177 636 -237 572 -309 502 c 1
 -336 502 l 1
EndSplineSet
EndChar
StartChar: uni0361
Encoding: 865 865 479
Width: 0
Flags: HW
Fore
155 632 m 0
 222 612 304 588 366 594 c 128
 428 600 504 642 552 697 c 1
 585 682 l 1
 541 619 460 524 353 513 c 0
 247 502 194 530 112 553 c 0
 39 573 -42 600 -103 594 c 0
 -166 588 -238 553 -286 498 c 1
 -323 506 l 1
 -279 569 -198 664 -91 675 c 0
 15 686 69 659 155 632 c 0
EndSplineSet
EndChar
StartChar: uni0374
Encoding: 884 884 480
Width: 199
Flags: W
Fore
164 725 m 0
 164 700 52 572 27 551 c 1
 1 569 l 1
 17 615 55 780 111 780 c 0
 139 780 164 753 164 725 c 0
EndSplineSet
EndChar
StartChar: uni0375
Encoding: 885 885 481
Width: 199
Flags: W
Fore
200 -9 m 1
 184 -55 146 -220 90 -220 c 0
 62 -220 37 -193 37 -165 c 0
 37 -140 149 -12 174 9 c 1
 200 -9 l 1
EndSplineSet
EndChar
StartChar: uni037A
Encoding: 890 890 482
Width: 0
Flags: W
Fore
175 -152 m 1
 162 -207 123 -233 68 -233 c 0
 36 -233 0 -216 0 -179 c 0
 0 -140 21 -89 31 -50 c 1
 121 -50 l 1
 110 -88 93 -127 93 -167 c 0
 93 -177 94 -193 108 -193 c 0
 131 -193 138 -169 146 -152 c 1
 175 -152 l 1
EndSplineSet
EndChar
StartChar: tonos
Encoding: 900 900 483
Width: 180
Flags: W
Fore
155 557 m 1
 127 557 l 1
 130 615 125 678 140 735 c 0
 148 767 168 774 199 774 c 0
 216 774 232 768 232 748 c 0
 232 711 172 597 155 557 c 1
EndSplineSet
EndChar
StartChar: dieresistonos
Encoding: 901 901 484
Width: 330
Flags: W
VStem: 29 127<610.065 624> 311 127<610.065 624>
Fore
438 621 m 0
 438 587 409 557 375 557 c 0
 340 557 311 586 311 621 c 0
 311 655 341 684 375 684 c 128
 409 684 438 655 438 621 c 0
227 557 m 1
 199 557 l 1
 202 615 197 678 212 735 c 0
 220 767 240 774 271 774 c 0
 288 774 304 768 304 748 c 0
 304 711 244 597 227 557 c 1
156 621 m 0
 156 586 127 557 92 557 c 0
 58 557 29 587 29 621 c 128
 29 655 58 684 92 684 c 128
 126 684 156 655 156 621 c 0
EndSplineSet
EndChar
StartChar: anoteleia
Encoding: 903 903 486
Width: 250
Flags: W
Fore
218 351 m 0
 218 300 176 258 125 258 c 128
 74 258 32 300 32 351 c 128
 32 402 74 444 125 444 c 128
 176 444 218 402 218 351 c 0
EndSplineSet
EndChar
StartChar: iotadieresistonos
Encoding: 912 912 493
Width: 330
Flags: W
HStem: 441 20G<93 248> 557 127<63 70 341.065 355>
VStem: 0 150<61 72> 5 127<610 628> 288 127<610 628>
Fore
415 621 m 0
 415 587 386 557 352 557 c 0
 317 557 288 586 288 621 c 0
 288 655 318 684 352 684 c 128
 386 684 415 655 415 621 c 0
205 557 m 1
 177 557 l 1
 180 615 175 678 190 735 c 0
 198 767 218 774 249 774 c 0
 266 774 282 768 282 748 c 0
 282 711 222 597 205 557 c 1
132 621 m 0
 132 586 103 557 68 557 c 0
 34 557 5 587 5 621 c 128
 5 655 34 684 68 684 c 128
 102 684 132 655 132 621 c 0
268 148 m 1
 245 56 189 -13 88 -13 c 0
 36 -13 0 18 0 72 c 0
 0 83 1 94 4 105 c 2
 93 461 l 1
 248 461 l 1
 236 411 150 91 150 63 c 0
 150 53 154 45 165 45 c 0
 209 45 230 113 239 148 c 1
 268 148 l 1
EndSplineSet
EndChar
StartChar: Alpha
Encoding: 913 913 494
Width: 667
Flags: W
HStem: 0 25<108 129 289 302.333 583 593> 208 40<161 346> 663 20G<388 413>
DStem: 309 491 413 683 346 248 509 111 388 683 309 491 16 95 161 248
Fore
593 0 m 1
 289 0 l 1
 289 25 l 1
 329 28 368 30 368 81 c 0
 368 123 359 167 353 208 c 1
 138 208 l 1
 122 180 64 97 64 60 c 0
 64 27 105 25 129 25 c 1
 129 0 l 1
 -67 0 l 1
 -67 25 l 1
 -23 36 -8 57 16 95 c 2
 388 683 l 1
 413 683 l 1
 509 111 l 1
 521 41 523 32 593 25 c 1
 593 0 l 1
346 248 m 1
 309 491 l 1
 161 248 l 1
 346 248 l 1
EndSplineSet
MinimumDistance: x14,-1 
EndChar
StartChar: Beta
Encoding: 914 914 495
Width: 667
Flags: W
HStem: 0 25<-24 -15.8333> 0 32<247 277> 644 25<116 149>
VStem: 419 153<206 227> 477 147<523 541>
DStem: 178 546 338 593 56 97 277 368
Fore
624 525 m 0
 624 416 528 378 438 356 c 1
 438 354 l 1
 513 331 572 296 572 208 c 0
 572 45 412 0 277 0 c 2
 -24 0 l 1
 -24 25 l 1
 25 31 43 48 56 97 c 1
 178 546 l 2
 181 557 189 588 189 599 c 0
 189 642 149 643 116 644 c 1
 116 669 l 1
 388 669 l 2
 484 669 624 649 624 525 c 0
477 539 m 0
 477 600 451 637 387 637 c 0
 354 637 346 621 338 593 c 1
 277 368 l 1
 397 372 477 399 477 539 c 0
419 225 m 0
 419 328 353 336 269 338 c 1
 254 282 198 111 198 63 c 0
 198 33 238 32 259 32 c 0
 363 32 419 131 419 225 c 0
EndSplineSet
MinimumDistance: x0,-1 
EndChar
StartChar: Gamma
Encoding: 915 915 496
Width: 637
Flags: W
HStem: 0 25<256 291> 637 32<398 432> 644 25<123 131>
DStem: 186 546 346 593 63 97 220 129
Fore
663 669 m 1
 620 479 l 1
 593 484 l 1
 593 615 530 637 404 637 c 0
 368 637 355 627 346 593 c 2
 220 129 l 2
 215 110 208 88 208 68 c 0
 208 21 256 26 291 25 c 1
 291 0 l 1
 -17 0 l 1
 -17 25 l 1
 34 34 49 44 63 97 c 1
 186 546 l 1
 191 563 196 584 196 602 c 0
 196 644 155 640 123 644 c 1
 123 669 l 1
 663 669 l 1
EndSplineSet
MinimumDistance: x4,-1 
EndChar
StartChar: Delta
Encoding: 916 916 497
Width: 740
Flags: W
HStem: 0 40<24 508> 663 20G<390 412>
DStem: 328 518 412 683 508 40 670 0 390 683 328 518 -45 0 24 40
Fore
670 0 m 1
 -45 0 l 1
 390 683 l 1
 412 683 l 1
 670 0 l 1
508 40 m 1
 328 518 l 1
 24 40 l 1
 508 40 l 1
EndSplineSet
MinimumDistance: x0,-1 
EndChar
StartChar: Epsilon
Encoding: 917 917 498
Width: 667
Flags: W
HStem: 0 32<244 277> 637 32<388 434> 644 25<113 121>
DStem: 176 546 336 593 53 97 275 370
Fore
653 669 m 1
 610 479 l 1
 583 484 l 1
 583 615 520 637 394 637 c 0
 358 637 345 627 336 593 c 2
 275 370 l 1
 295 370 l 2
 404 369 430 382 480 476 c 1
 508 472 l 1
 434 199 l 1
 406 204 l 1
 408 217 410 231 410 244 c 0
 410 337 343 338 266 338 c 1
 260 314 195 96 195 68 c 0
 195 32 232 32 260 32 c 0
 391 32 497 82 561 199 c 1
 586 194 l 1
 527 0 l 1
 -27 0 l 1
 -27 25 l 1
 24 34 39 45 53 97 c 2
 176 546 l 1
 181 563 186 584 186 602 c 0
 186 644 145 640 113 644 c 1
 113 669 l 1
 653 669 l 1
EndSplineSet
MinimumDistance: x4,-1 
EndChar
StartChar: Zeta
Encoding: 918 918 499
Width: 611
Flags: W
HStem: 0 35<186 292> 634 35<354 452>
DStem: 453 634 620 640 19 29 186 35
Fore
620 640 m 1
 186 35 l 1
 266 35 l 2
 396 35 492 83 557 199 c 1
 584 194 l 1
 525 0 l 1
 19 0 l 1
 19 29 l 1
 453 634 l 1
 375 634 l 2
 253 634 190 581 123 487 c 1
 95 491 l 1
 152 669 l 1
 620 669 l 1
 620 640 l 1
EndSplineSet
EndChar
StartChar: Eta
Encoding: 919 919 500
Width: 778
Flags: W
HStem: 0 25<255.5 272 340 370 627 657> 329 44<278 505> 644 25<404.5 433>
DStem: 178 546 332 572 56 97 278 373 505 329 718 572 441 97 609 175
Fore
799 644 m 1
 748 636 732 624 718 572 c 2
 609 175 l 1
 601 147 584 94 584 67 c 0
 584 27 627 26 657 25 c 1
 657 0 l 1
 340 0 l 1
 340 25 l 1
 400 27 425 39 441 97 c 2
 505 329 l 1
 266 329 l 1
 255 289 199 124 199 68 c 0
 199 24 239 27 272 25 c 1
 272 0 l 1
 -24 0 l 1
 -24 25 l 1
 26 33 42 46 56 97 c 2
 178 546 l 1
 183 563 189 583 189 600 c 0
 189 642 149 639 116 644 c 1
 116 669 l 1
 433 669 l 1
 433 644 l 1
 376 642 348 630 332 572 c 2
 278 373 l 1
 517 373 l 1
 530 423 574 544 574 602 c 0
 574 644 534 639 501 644 c 1
 501 669 l 1
 799 669 l 1
 799 644 l 1
EndSplineSet
MinimumDistance: x1,-1 
EndChar
StartChar: Theta
Encoding: 920 920 501
Width: 722
Flags: W
HStem: -18 34<263 284> 296 98<330 396> 435 20G<273 297 483 507> 651 34<426 455>
VStem: 27 144<150 207> 547 144<444 526>
Fore
691 444 m 0
 691 225 493 -18 265 -18 c 0
 135 -18 27 73 27 207 c 0
 27 430 211 685 449 685 c 0
 592 685 691 588 691 444 c 0
547 526 m 0
 547 593 518 651 442 651 c 0
 274 651 171 284 171 150 c 0
 171 79 195 16 275 16 c 0
 445 16 547 391 547 526 c 0
507 455 m 1
 453 235 l 1
 429 235 l 1
 430 241 431 247 431 252 c 0
 431 280 413 296 386 296 c 2
 316 296 l 2
 280 296 251 269 243 235 c 1
 219 235 l 1
 273 455 l 1
 297 455 l 1
 296 449 295 443 295 438 c 0
 295 410 313 394 340 394 c 2
 410 394 l 2
 446 394 475 421 483 455 c 1
 507 455 l 1
EndSplineSet
MinimumDistance: x0,-1 
EndChar
StartChar: Iota
Encoding: 921 921 502
Width: 389
Flags: W
HStem: 0 25<-32 -24.8571 232 264> 644 25<398.714 406>
DStem: 171 546 324 572 48 97 210 152
Fore
406 644 m 1
 355 637 338 624 324 572 c 2
 210 152 l 2
 203 127 192 94 192 68 c 0
 192 26 232 26 264 25 c 1
 264 0 l 1
 -32 0 l 1
 -32 25 l 1
 18 32 34 47 48 97 c 2
 171 546 l 1
 176 563 181 585 181 602 c 0
 181 644 141 639 108 644 c 1
 108 669 l 1
 406 669 l 1
 406 644 l 1
EndSplineSet
MinimumDistance: x1,-1 
EndChar
StartChar: Kappa
Encoding: 922 922 503
Width: 677
Flags: W
HStem: 0 25<-21 -13.8571 253.5 268 332 339.667 602.667 612> 644 25<415.5 429 491 500.5 694.333 702>
DStem: 181 546 335 572 59 97 275 351
Fore
702 644 m 1
 656 638 643 628 608 596 c 2
 392 398 l 1
 549 60 l 2
 562 32 584 28 612 25 c 1
 612 0 l 1
 332 0 l 1
 332 25 l 1
 355 28 397 24 397 56 c 0
 397 76 290 296 276 325 c 1
 268 327 l 1
 254 274 202 112 202 67 c 0
 202 29 239 27 268 25 c 1
 268 0 l 1
 -21 0 l 1
 -21 25 l 1
 29 32 45 46 59 97 c 2
 181 546 l 1
 186 563 192 583 192 600 c 0
 192 642 152 639 119 644 c 1
 119 669 l 1
 429 669 l 1
 429 644 l 1
 375 640 350 626 335 572 c 1
 275 351 l 1
 280 350 l 1
 326 389 547 574 547 616 c 0
 547 643 510 642 491 644 c 1
 491 669 l 1
 702 669 l 1
 702 644 l 1
EndSplineSet
MinimumDistance: x23,-1 
EndChar
StartChar: Lambda
Encoding: 923 923 504
Width: 667
Flags: W
HStem: 0 25<108 129 289 302.333 581.333 593> 663 20G<388 413>
Fore
593 0 m 1
 289 0 l 1
 289 25 l 1
 329 28 368 30 368 81 c 0
 368 127 356 177 349 222 c 1
 309 491 l 1
 79 106 l 2
 71 92 64 76 64 60 c 0
 64 27 105 25 129 25 c 1
 129 0 l 1
 -67 0 l 1
 -67 25 l 1
 -23 36 -8 58 16 95 c 2
 388 683 l 1
 413 683 l 1
 509 111 l 1
 521 41 523 31 593 25 c 1
 593 0 l 1
EndSplineSet
EndChar
StartChar: Mu
Encoding: 924 924 505
Width: 889
Flags: W
HStem: -12 21G<285 313> 0 25<169.2 178 463 477 743 775> 644 25<120 148>
DStem: 181 551 217 542 72 178 117 178 219 542 341 669 285 -12 395 192 686 552 836 572 563 97 713 123 705 669 684 554 397 192 313 -12
Fore
917 644 m 1
 866 636 850 624 836 572 c 2
 713 123 l 2
 708 105 703 87 703 68 c 0
 703 26 743 26 775 25 c 1
 775 0 l 1
 463 0 l 1
 463 25 l 1
 519 29 547 39 563 97 c 1
 686 552 l 1
 684 554 l 1
 313 -12 l 1
 285 -12 l 1
 219 542 l 1
 217 542 l 1
 117 178 l 1
 109 150 98 116 98 88 c 0
 98 34 134 30 178 25 c 1
 178 0 l 1
 -29 0 l 1
 -29 25 l 1
 46 43 53 111 72 178 c 1
 181 551 l 2
 186 569 192 590 192 609 c 0
 192 648 148 643 120 644 c 1
 120 669 l 1
 341 669 l 1
 395 192 l 1
 397 192 l 1
 705 669 l 1
 917 669 l 1
 917 644 l 1
EndSplineSet
MinimumDistance: x1,-1 
EndChar
StartChar: Nu
Encoding: 925 925 506
Width: 722
Flags: W
HStem: -15 21G<475 503> 0 25<167.333 181> 644 25<111 123.25 539 552.667>
DStem: 194 589 218 534 74 178 119 178 218 534 306 669 475 -15 521 204 601 491 646 491 521 204 503 -15
Fore
748 644 m 1
 670 625 666 562 646 491 c 2
 503 -15 l 1
 475 -15 l 1
 218 534 l 1
 119 178 l 2
 111 149 101 116 101 86 c 0
 101 35 140 28 181 25 c 1
 181 0 l 1
 -27 0 l 1
 -27 25 l 1
 48 43 54 111 74 178 c 1
 194 589 l 1
 174 635 160 640 111 644 c 1
 111 669 l 1
 306 669 l 1
 521 204 l 1
 601 491 l 2
 609 520 619 553 619 583 c 0
 619 634 580 641 539 644 c 1
 539 669 l 1
 748 669 l 1
 748 644 l 1
EndSplineSet
MinimumDistance: x1,-1 
EndChar
StartChar: Xi
Encoding: 926 926 507
Width: 650
Flags: W
HStem: 0 141<99 457> 272 125<243 405> 441 20G<190 212 496 519> 528 141<188 549>
Fore
673 669 m 1
 614 439 l 1
 590 439 l 1
 593 450 595 460 595 471 c 0
 595 504 578 528 543 528 c 2
 202 528 l 2
 150 528 120 485 108 439 c 1
 85 439 l 1
 144 669 l 1
 673 669 l 1
519 461 m 1
 454 208 l 1
 431 208 l 1
 433 215 434 222 434 229 c 0
 434 253 422 272 396 272 c 2
 213 272 l 2
 178 272 155 238 147 208 c 1
 125 208 l 1
 190 461 l 1
 212 461 l 1
 210 454 209 446 209 438 c 0
 209 414 221 397 247 397 c 2
 430 397 l 2
 466 397 487 430 496 461 c 1
 519 461 l 1
560 231 m 1
 501 0 l 1
 -28 0 l 1
 32 231 l 1
 54 231 l 1
 51 220 50 209 50 198 c 0
 50 162 68 141 105 141 c 2
 446 141 l 2
 497 141 526 187 537 231 c 1
 560 231 l 1
EndSplineSet
EndChar
StartChar: Omicron
Encoding: 927 927 508
Width: 722
Flags: W
HStem: -18 34<263 284> 651 34<426 451>
VStem: 27 144<150 207> 547 144<444 526>
Fore
691 444 m 0
 691 225 493 -18 265 -18 c 0
 135 -18 27 73 27 207 c 0
 27 430 211 685 449 685 c 0
 592 685 691 588 691 444 c 0
547 526 m 0
 547 593 518 651 442 651 c 0
 274 651 171 284 171 150 c 0
 171 79 195 16 275 16 c 0
 445 16 547 391 547 526 c 0
EndSplineSet
MinimumDistance: x0,-1 
EndChar
StartChar: Pi
Encoding: 928 928 509
Width: 778
Flags: W
HStem: 0 25<255.5 272 340 370 627 657> 625 44<346 586>
DStem: 178 546 347 625 56 97 216 148 586 625 718 572 441 97 609 175
Fore
799 644 m 1
 748 636 732 624 718 572 c 2
 609 175 l 1
 601 147 584 94 584 67 c 0
 584 27 627 26 657 25 c 1
 657 0 l 1
 340 0 l 1
 340 25 l 1
 400 27 425 39 441 97 c 2
 586 625 l 1
 347 625 l 1
 216 148 l 2
 209 122 199 95 199 68 c 0
 199 24 239 27 272 25 c 1
 272 0 l 1
 -24 0 l 1
 -24 25 l 1
 26 33 42 46 56 97 c 2
 178 546 l 1
 183 563 189 583 189 600 c 0
 189 642 149 639 116 644 c 1
 116 669 l 1
 799 669 l 1
 799 644 l 1
EndSplineSet
MinimumDistance: x1,-1 
EndChar
StartChar: Rho
Encoding: 929 929 510
Width: 611
Flags: W
HStem: 0 25<235 267> 637 32<372 390> 644 25<113 121>
VStem: 467 146<512 541>
DStem: 176 546 333 593 53 97 269 354
Fore
613 512 m 0
 613 374 470 317 352 317 c 0
 321 317 290 319 259 322 c 1
 244 268 195 124 195 68 c 0
 195 26 235 26 267 25 c 1
 267 0 l 1
 -27 0 l 1
 -27 25 l 1
 24 34 39 45 53 97 c 2
 176 546 l 1
 181 563 186 584 186 602 c 0
 186 643 145 640 113 644 c 1
 113 669 l 1
 400 669 l 2
 506 669 613 638 613 512 c 0
467 541 m 0
 467 597 444 637 382 637 c 0
 348 637 341 622 333 593 c 2
 269 354 l 1
 282 353 294 352 307 352 c 0
 422 352 467 433 467 541 c 0
EndSplineSet
EndChar
StartChar: Sigma
Encoding: 931 931 511
Width: 730
Flags: W
HStem: 0 141<158 469> 635 34<294 533>
DStem: 295 303 415 364 -19 33 158 141
Fore
721 669 m 1
 684 475 l 1
 654 475 l 1
 655 486 656 496 656 507 c 0
 656 602 598 635 510 635 c 2
 294 635 l 1
 415 364 l 1
 158 141 l 1
 434 141 l 2
 512 141 583 150 609 236 c 1
 637 236 l 1
 552 0 l 1
 -28 0 l 1
 -19 33 l 1
 295 303 l 1
 134 624 l 1
 145 669 l 1
 721 669 l 1
EndSplineSet
MinimumDistance: x6,-1 
EndChar
StartChar: Tau
Encoding: 932 932 512
Width: 621
Flags: W
HStem: 0 25<60 75 353.605 390.958 356 391> 634 35<299 313>
DStem: 313 634 459 634 165 97 319 128
Fore
660 669 m 1
 624 477 l 1
 597 479 l 1
 594 581 561 630 459 634 c 1
 319 128 l 2
 314 109 308 88 308 68 c 0
 308 21 356 26 391 25 c 1
 391 0 l 1
 60 0 l 1
 60 25 l 1
 74 25 l 2
 125 23 151 47 165 97 c 2
 313 634 l 1
 209 634 142 583 96 491 c 1
 71 498 l 1
 109 669 l 1
 660 669 l 1
EndSplineSet
MinimumDistance: x3,-1 
EndChar
StartChar: Upsilon
Encoding: 933 933 513
Width: 722
Flags: W
HStem: 0 25<140 147.143 404 436> 644 32<179 194 690 705>
VStem: 72 133<568 602> 643 135<567 616>
Fore
692 519 m 0
 664 519 643 539 643 567 c 0
 643 611 680 642 723 638 c 1
 716 643 707 644 699 644 c 0
 490 644 421 293 382 152 c 0
 375 127 364 94 364 68 c 0
 364 26 404 26 436 25 c 1
 436 0 l 1
 140 0 l 1
 140 25 l 1
 190 32 206 48 220 97 c 0
 248 197 307 355 307 468 c 0
 307 550 280 644 181 644 c 0
 171 644 161 643 152 638 c 1
 178 638 205 634 205 602 c 0
 205 559 164 519 121 519 c 0
 93 519 72 540 72 568 c 0
 72 633 132 676 192 676 c 0
 313 676 370 525 380 425 c 1
 453 538 554 676 703 676 c 0
 743 676 778 661 778 616 c 0
 778 569 743 519 692 519 c 0
EndSplineSet
EndChar
StartChar: Phi
Encoding: 934 934 514
Width: 748
Flags: W
HStem: 0 25<154 161.333 418 450> 530 29<337.366 352.875 506 513> 644 25<294 302.25 583.714 592>
VStem: 0 168<250 288> 582 170<390 434>
Fore
388 122 m 1
 383 105 378 85 378 68 c 0
 378 26 418 26 450 25 c 1
 450 0 l 1
 154 0 l 1
 154 25 l 1
 220 34 225 63 241 122 c 1
 136 123 0 159 0 288 c 0
 0 470 203 559 360 559 c 1
 363 572 367 588 367 602 c 0
 367 644 327 640 294 644 c 1
 294 669 l 1
 592 669 l 1
 592 644 l 1
 534 637 522 614 506 559 c 1
 608 559 752 515 752 390 c 0
 752 202 546 122 388 122 c 1
582 434 m 0
 582 490 560 530 499 530 c 1
 492 503 397 152 395 150 c 1
 400 150 l 2
 526 150 582 332 582 434 c 0
353 530 m 1
 231 530 168 351 168 251 c 0
 168 197 189 152 249 150 c 1
 353 530 l 1
EndSplineSet
EndChar
StartChar: Chi
Encoding: 935 935 515
Width: 667
Flags: W
HStem: 0 25<177 190 278 291.5 575.625 586> 644 25<100 109.8 394 405 491 502>
Fore
694 644 m 1
 650 637 625 614 595 583 c 2
 396 378 l 1
 470 141 l 2
 493 67 503 33 586 25 c 1
 586 0 l 1
 278 0 l 1
 278 25 l 1
 305 27 346 27 346 64 c 0
 346 112 302 211 289 264 c 1
 273 247 125 98 125 67 c 0
 125 33 164 27 190 25 c 1
 190 0 l 1
 -24 0 l 1
 -24 25 l 1
 61 49 208 239 275 309 c 1
 191 581 l 2
 175 632 149 639 100 644 c 1
 100 669 l 1
 405 669 l 1
 405 644 l 1
 372 641 331 645 331 602 c 0
 331 579 373 453 382 421 c 1
 392 432 546 582 546 615 c 0
 546 645 513 642 491 644 c 1
 491 669 l 1
 694 669 l 1
 694 644 l 1
EndSplineSet
EndChar
StartChar: Psi
Encoding: 936 936 516
Width: 868
Flags: W
HStem: 0 25<190 197.143 454 486> 0 244<301 310> 644 25<330 338.25 619.5 628>
VStem: 74 156<320 373> 123 159<585 623>
DStem: 393 546 546 572 310 244 457 244
Fore
904 681 m 1
 897 653 l 1
 892 655 887 656 882 656 c 0
 759 656 886 215 449 215 c 1
 441 186 414 97 414 68 c 0
 414 26 454 26 486 25 c 1
 486 0 l 1
 190 0 l 1
 190 25 l 1
 240 32 257 47 270 97 c 1
 302 215 l 1
 196 215 74 244 74 373 c 0
 74 454 123 554 123 623 c 0
 123 650 105 663 80 653 c 1
 87 681 l 1
 109 685 131 690 153 690 c 0
 227 690 282 667 282 585 c 0
 282 494 230 410 230 320 c 0
 230 267 259 245 310 244 c 1
 393 546 l 1
 398 563 403 585 403 602 c 0
 403 644 363 640 330 644 c 1
 330 669 l 1
 628 669 l 1
 628 644 l 1
 577 638 560 623 546 572 c 2
 457 244 l 1
 691 250 528 690 842 690 c 0
 863 690 884 685 904 681 c 1
EndSplineSet
MinimumDistance: x25,-1 
EndChar
StartChar: Omega
Encoding: 937 937 517
Width: 741
Flags: W
HStem: 0 122<83 242 414 581> 643 33<451 470>
VStem: 62 175<324 362> 570 176<479 512>
DStem: 256 177 297 211 242 122 243 0 405 211 429 177 351 0 414 122
Fore
429 177 m 1
 414 122 l 1
 553 122 l 2
 597 122 633 125 644 176 c 1
 667 176 l 1
 622 0 l 1
 351 0 l 1
 405 211 l 1
 510 248 570 409 570 512 c 0
 570 583 540 643 460 643 c 0
 313 643 237 448 237 324 c 0
 237 278 250 231 297 211 c 1
 243 0 l 1
 -28 0 l 1
 17 176 l 1
 40 176 l 1
 38 169 36 162 36 155 c 0
 36 119 79 122 104 122 c 2
 242 122 l 1
 256 177 l 1
 158 192 62 253 62 362 c 0
 62 570 288 676 468 676 c 0
 592 676 746 629 746 480 c 0
 746 309 583 199 429 177 c 1
EndSplineSet
EndChar
StartChar: upsilondieresistonos
Encoding: 944 944 524
Width: 550
Flags: W
HStem: 557 127<203.239 217 486 504>
VStem: 40 152<98 116> 104 145<381 404> 151 127<610 628> 371 125<382 408> 433 127<610 628>
Fore
560 621 m 0
 560 587 531 557 497 557 c 0
 462 557 433 586 433 621 c 0
 433 655 463 684 497 684 c 128
 531 684 560 655 560 621 c 0
352 557 m 1
 324 557 l 1
 327 615 322 678 337 735 c 0
 345 767 365 774 396 774 c 0
 413 774 429 768 429 748 c 0
 429 711 369 597 352 557 c 1
278 621 m 0
 278 586 249 557 214 557 c 0
 180 557 151 587 151 621 c 128
 151 655 180 684 214 684 c 128
 248 684 278 655 278 621 c 0
173 -13 m 0
 95 -13 40 26 40 108 c 0
 40 199 104 320 104 397 c 0
 104 406 101 417 89 417 c 0
 61 417 42 365 36 343 c 1
 7 343 l 1
 26 421 78 474 161 474 c 0
 220 474 249 445 249 386 c 0
 249 290 192 199 192 103 c 0
 192 67 207 45 245 45 c 0
 338 45 395 148 395 232 c 0
 395 284 371 332 371 383 c 0
 371 422 400 474 444 474 c 0
 485 474 496 444 496 408 c 0
 496 375 488 342 480 310 c 0
 441 159 352 -13 173 -13 c 0
EndSplineSet
EndChar
StartChar: alpha
Encoding: 945 945 525
Width: 605
Flags: W
HStem: -13 35<163 181> 435 39<277 287> 441 20G<429 569>
VStem: -2 135<87 155> 336 32<342 372>
Fore
569 461 m 1
 391 153 l 1
 395 125 405 84 441 84 c 0
 469 84 494 109 505 133 c 1
 534 133 l 1
 516 82 480 -13 414 -13 c 0
 358 -13 359 77 363 115 c 1
 361 115 l 1
 314 54 246 -13 164 -13 c 0
 58 -13 -2 51 -2 155 c 0
 -2 301 124 474 279 474 c 0
 362 474 373 410 368 342 c 1
 370 342 l 1
 429 461 l 1
 569 461 l 1
336 355 m 0
 336 390 329 435 285 435 c 0
 194 435 133 158 133 87 c 0
 133 56 141 22 179 22 c 0
 279 22 336 276 336 355 c 0
EndSplineSet
MinimumDistance: x11,-1 
EndChar
StartChar: beta
Encoding: 946 946 526
Width: 550
Flags: W
HStem: -13.2969 43.7237<198.276 239.962> 369.765 38.021<301 307> 369.765 44.674<270 302>
VStem: 343.184 145.899<248.098 308.931> 394.795 133.988<580.781 607.396>
DStem: 72.2285 384.973 224.082 457.213 -76.9961 -202 125.823 79.8545 72.2285 384.973 123.838 72.25 -76.9961 -202 56 -202
Fore
326.312 392.577 m 1
 326.312 390.677 l 1
 412.66 379.27 489.083 342.199 489.083 248.098 c 0
 489.083 123.579 375.937 -13.2969 239.962 -13.2969 c 0
 182.396 -13.2969 124.831 7.61426 125.823 72.25 c 1
 123.838 72.25 l 1
 56 -202 l 5
 -76.9961 -202 l 5
 72.2285 384.973 l 2
 108.95 525.651 190.337 690.092 366.012 690.092 c 0
 438.465 690.092 528.783 664.428 528.783 580.781 c 0
 528.783 468.619 426.555 413.489 326.312 392.577 c 1
394.795 607.396 m 0
 394.795 633.061 387.848 662.526 354.102 662.526 c 0
 276.686 662.526 238.971 514.245 224.082 457.213 c 2
 125.823 79.8545 l 1
 156.591 79.8545 l 1
 156.591 74.1514 l 1
 155.6 52.2891 174.456 30.4268 198.276 30.4268 c 0
 296.536 30.4268 310.431 148.292 328.297 215.78 c 0
 336.236 246.197 343.184 277.563 343.184 308.931 c 0
 343.184 335.546 337.229 369.765 301.498 369.765 c 0
 285.618 369.765 271.724 361.21 255.843 361.21 c 0
 244.926 361.21 241.947 372.616 241.947 381.171 c 0
 241.947 396.38 254.851 414.439 271.724 414.439 c 0
 283.633 414.439 293.559 407.786 305.468 407.786 c 0
 363.034 407.786 394.795 562.722 394.795 607.396 c 0
EndSplineSet
MinimumDistance: x10,-1 
EndChar
StartChar: gamma
Encoding: 947 947 527
Width: 550
Flags: W
HStem: 338 136<107 153>
VStem: 71 169<-173 -59>
Fore
229 48 m 1
 235 13 240 -23 240 -59 c 0
 240 -127 214 -231 129 -231 c 0
 92 -231 71 -209 71 -173 c 0
 71 -96 148 -2 199 50 c 1
 200 113 l 1
 200 175 199 338 107 338 c 0
 72 338 51 306 44 275 c 1
 10 275 l 1
 26 343 65 474 153 474 c 0
 238 474 241 331 241 273 c 0
 241 210 234 149 231 87 c 1
 233 87 l 1
 278 148 317 215 342 287 c 0
 366 356 402 474 493 474 c 0
 520 474 542 466 542 435 c 0
 542 350 295 119 229 48 c 1
EndSplineSet
MinimumDistance: x1,-1 
EndChar
StartChar: delta
Encoding: 948 948 528
Width: 550
Flags: W
HStem: -13.2998 27.5498<181 193> 656.45 33.25<333 352>
VStem: -0.544922 144.638<82.6504 150.1> 175.015 97.755<555.75 602.3> 333.617 160.598<301 323>
Fore
181.997 -13.2998 m 0
 80.2529 -13.2998 -0.544922 49.4004 -0.544922 150.1 c 0
 -0.544922 276.45 119.155 412.3 256.81 412.3 c 0
 281.747 412.3 305.688 406.6 328.63 399 c 1
 330.625 400.9 l 1
 270.775 437 175.015 475.95 175.015 555.75 c 0
 175.015 638.4 263.793 689.7 342.595 689.7 c 0
 416.41 689.7 460.3 652.65 484.24 588.05 c 1
 446.335 573.8 l 1
 440.35 622.25 398.455 656.45 347.582 656.45 c 0
 314.665 656.45 272.77 640.3 272.77 602.3 c 0
 272.77 547.2 494.215 485.45 494.215 302.1 c 0
 494.215 145.35 351.572 -13.2998 181.997 -13.2998 c 0
333.617 321.1 m 0
 333.617 349.6 325.638 384.75 288.73 384.75 c 0
 189.978 384.75 144.093 154.85 144.093 82.6504 c 0
 144.093 52.25 152.072 14.25 191.973 14.25 c 0
 282.745 14.25 333.617 252.7 333.617 321.1 c 0
EndSplineSet
MinimumDistance: x11,-1 
EndChar
StartChar: epsilon
Encoding: 949 949 529
Width: 440
Flags: W
HStem: 215 68<272 291> 230 39<202 216> 440 34<256 281>
VStem: -24 149<82 105> 44 140<306 328>
Fore
365 343 m 0
 287 343 339 440 272 440 c 0
 210 440 184 358 184 307 c 0
 184 285 192 269 216 269 c 0
 242 269 265 283 291 283 c 0
 307 283 321 276 321 258 c 0
 321 230 300 215 273 215 c 0
 248 215 227 230 202 230 c 0
 154 230 125 133 125 95 c 0
 125 47 160 33 202 33 c 0
 258 33 315 75 346 119 c 1
 370 103 l 1
 299 18 233 -13 123 -13 c 0
 56 -13 -24 10 -24 91 c 0
 -24 189 56 236 143 248 c 1
 143 249 l 1
 96 251 44 274 44 328 c 0
 44 431 173 474 257 474 c 0
 300 474 420 464 420 404 c 0
 420 376 394 343 365 343 c 0
EndSplineSet
MinimumDistance: x2,-1 
EndChar
StartChar: zeta
Encoding: 950 950 530
Width: 495
Flags: W
HStem: -174.35 90.2504<144 154> -7.15039 137.75<164 198> -3.34961 137.75<260 291> 491.6 107.35<337.6 421.015>
VStem: 119.515 71.355<589 601>
Fore
337.6 491.6 m 0
 315.49 491.6 293.38 494.45 272.275 498.25 c 1
 190.87 432.7 92.3799 301.6 92.3799 197.1 c 0
 92.3799 140.1 136.6 130.6 186.85 130.6 c 0
 221.02 130.6 255.19 134.4 289.36 134.4 c 0
 352.675 134.4 395.89 103.05 395.89 40.3496 c 0
 395.89 -80.2998 275.29 -174.35 152.68 -174.35 c 0
 128.56 -174.35 82.3301 -167.7 82.3301 -137.3 c 0
 82.3301 -104.05 114.49 -84.0996 146.65 -84.0996 c 0
 181.825 -84.0996 214.99 -102.15 250.165 -102.15 c 0
 289.36 -102.15 331.57 -78.4004 331.57 -37.5498 c 0
 331.57 -4.2998 292.375 -3.34961 266.245 -3.34961 c 0
 234.085 -3.34961 200.92 -7.15039 168.76 -7.15039 c 0
 80.3203 -7.15039 21.0254 18.5 21.0254 111.6 c 0
 21.0254 254.1 122.53 414.65 231.07 506.8 c 1
 182.83 515.35 119.515 542.9 119.515 597.05 c 0
 119.515 664.5 205.945 694.9 266.245 694.9 c 0
 281.32 694.9 297.4 693.95 312.475 693 c 1
 305.44 667.35 l 1
 257.2 667.35 190.87 647.4 190.87 591.35 c 0
 190.87 557.15 230.065 535.3 262.225 529.6 c 1
 306.445 561.9 362.725 598.95 421.015 598.95 c 0
 446.14 598.95 485.335 591.35 485.335 560.95 c 0
 485.335 501.1 383.83 491.6 337.6 491.6 c 0
EndSplineSet
MinimumDistance: x19,-1 
EndChar
StartChar: eta
Encoding: 951 951 531
Width: 605
Flags: W
HStem: 0 21G<9 163>
VStem: 105 138<387 397>
DStem: 99 359 232 278 9 0 163 0 369 327 531 358 237 -200 392 -200
Fore
392 -200 m 5
 237 -200 l 5
 369 327 l 2
 373 342 376 357 376 372 c 0
 376 391 369 406 348 406 c 0
 297 406 243 323 232 278 c 2
 163 0 l 1
 9 0 l 1
 99 359 l 2
 102 370 105 381 105 392 c 0
 105 404 100 411 88 411 c 0
 64 411 41 355 35 335 c 1
 6 335 l 1
 22 401 89 474 161 474 c 0
 217 474 243 449 243 394 c 0
 243 376 241 359 238 342 c 1
 240 342 l 1
 278 415 353 474 438 474 c 0
 491 474 535 446 535 389 c 0
 535 379 534 368 531 358 c 1
 392 -200 l 5
EndSplineSet
MinimumDistance: x19,-1 
EndChar
StartChar: theta
Encoding: 952 952 532
Width: 550
Flags: W
HStem: -13 29<183 194> 337 45<222 334> 667 29<343 364>
Fore
185 -13 m 0
 63 -13 31 105 31 206 c 0
 31 378 156 696 362 696 c 0
 484 696 516 579 516 478 c 0
 516 305 392 -13 185 -13 c 0
396 611 m 0
 396 640 388 667 354 667 c 0
 280 667 262 539 248 485 c 2
 222 382 l 1
 345 382 l 1
 362 449 396 541 396 611 c 0
334 337 m 1
 211 337 l 1
 196 277 150 139 150 71 c 0
 150 43 159 16 192 16 c 0
 267 16 285 143 299 198 c 2
 334 337 l 1
EndSplineSet
EndChar
StartChar: iota
Encoding: 953 953 533
Width: 330
Flags: W
HStem: 441 20G<93 248>
Fore
268 148 m 1
 245 56 189 -13 88 -13 c 0
 36 -13 0 18 0 72 c 0
 0 83 1 94 4 105 c 2
 93 461 l 1
 248 461 l 1
 236 411 150 91 150 63 c 0
 150 53 154 45 165 45 c 0
 209 45 230 113 239 148 c 1
 268 148 l 1
EndSplineSet
EndChar
StartChar: kappa
Encoding: 954 954 534
Width: 608
Flags: W
HStem: 0 17<203.015 221.785 482 492> 368 118<506 535>
DStem: 55 337 173 187 -29 0 126 0
Fore
506 368 m 0
 466 368 465 402 436 402 c 0
 400 402 316 328 286 304 c 1
 409 78 l 2
 432 36 444 17 496 17 c 1
 492 0 l 1
 199 0 l 1
 203 17 l 1
 216 17 252 18 252 37 c 128
 252 56 187 163 173 187 c 1
 126 0 l 1
 -29 0 l 1
 55 337 l 1
 60 355 68 375 68 394 c 0
 68 414 53 420 35 420 c 1
 41 447 l 1
 111 448 180 460 246 481 c 1
 194 273 l 1
 264 328 452 486 535 486 c 0
 561 486 581 469 581 442 c 0
 581 403 544 368 506 368 c 0
EndSplineSet
MinimumDistance: x9,-1 
EndChar
StartChar: lambda
Encoding: 955 955 535
Width: 495
Flags: W
HStem: -12.6748 94.5752<312.393 340.463> 0 21G<-75.5752 87.832> 595.725 94.575<219.16 245.225>
VStem: 265.275 35.087<149 260 496.307 517.579> 265.275 38.095<130 150>
Fore
440.713 160.875 m 1
 424.673 101.4 391.59 -12.6748 312.393 -12.6748 c 0
 266.277 -12.6748 265.275 43.875 265.275 76.0498 c 2
 265.275 272.025 l 1
 263.27 272.025 l 1
 87.832 0 l 1
 -75.5752 0 l 1
 265.275 496.275 l 1
 264.272 528.45 268.282 595.725 219.16 595.725 c 0
 173.045 595.725 140.965 554.775 126.93 516.75 c 1
 97.8574 516.75 l 1
 116.905 580.125 165.025 690.3 245.225 690.3 c 0
 316.402 690.3 300.362 561.6 300.362 517.725 c 1
 303.37 149.175 l 1
 303.37 122.85 303.37 81.9004 340.463 81.9004 c 0
 378.558 81.9004 404.622 129.675 411.64 160.875 c 1
 440.713 160.875 l 1
EndSplineSet
MinimumDistance: x13,-1 
EndChar
StartChar: uni03BC
Encoding: 956 956 536
Width: 605
Flags: W
HStem: 441 20G<93 248 372 526>
VStem: -78 117<-169 -130> 292 137<59 76>
DStem: 93 461 248 461 13 139 166 131
Fore
533 131 m 1
 508 60 453 -13 371 -13 c 0
 314 -13 292 24 292 76 c 0
 292 92 294 108 297 124 c 1
 295 124 l 1
 260 54 193 -13 110 -13 c 0
 59 -13 32 15 25 64 c 1
 23 64 l 1
 18 45 14 25 14 5 c 0
 14 -42 39 -85 39 -130 c 0
 39 -171 10 -215 -34 -215 c 0
 -62 -215 -78 -195 -78 -169 c 0
 -78 -159 2 95 13 139 c 2
 93 461 l 1
 248 461 l 1
 166 131 l 2
 163 118 159 105 159 91 c 0
 159 69 171 58 193 58 c 0
 262 58 305 194 319 249 c 2
 372 461 l 1
 526 461 l 1
 512 403 429 104 429 66 c 0
 429 56 434 50 444 50 c 0
 474 50 496 108 504 131 c 1
 533 131 l 1
EndSplineSet
MinimumDistance: x21,-1 
EndChar
StartChar: nu
Encoding: 957 957 537
Width: 495
Flags: W
HStem: -13 21G<141 175>
DStem: 97 344 240 384 126 112 267 160
Fore
175 -13 m 1
 141 -13 l 1
 140 29 131 70 126 112 c 1
 97 344 l 1
 96 355 94 394 78 394 c 0
 53 394 37 339 31 320 c 1
 2 320 l 1
 21 395 74 474 159 474 c 0
 215 474 234 433 240 384 c 2
 267 160 l 1
 297 203 351 270 363 320 c 0
 372 355 368 393 378 427 c 0
 386 455 418 474 447 474 c 0
 470 474 492 466 492 439 c 0
 492 390 281 131 237 75 c 0
 221 54 184 10 175 -13 c 1
EndSplineSet
MinimumDistance: x9,-1 
EndChar
